<?xml version="1.0" encoding="utf-8"?>
<!-- Generator: Adobe Illustrator 27.0.0, SVG Export Plug-In . SVG Version: 6.00 Build 0)  -->
<svg version="1.1" id="Layer_1" xmlns="http://www.w3.org/2000/svg" xmlns:xlink="http://www.w3.org/1999/xlink" x="0px" y="0px"
	 viewBox="0 0 629.7 303.1" style="enable-background:new 0 0 629.7 303.1;" xml:space="preserve">
<style type="text/css">
	.st0{fill-rule:evenodd;clip-rule:evenodd;}
	.st1{fill-rule:evenodd;clip-rule:evenodd;fill:#32A849;}
	.st2{fill:#32A849;}
</style>
<g>
	<g>
		<path class="st0" d="M61.3,45.4c-4.3,110.5,34.5,193.1,128,240.4c45.1-22.8,77.5-53.8,98.5-92.2h-13.2c-1.4,2.4-2.9,4.8-4.4,7.2
			c-20.3,31.4-48.2,54.8-80.9,72.2c-32.7-17.4-60.6-40.8-80.9-72.2c-28.4-43.9-37-96.1-35.9-147.6c79.4-32.5,154.2-32.5,233.6,0
			c0.4,19-0.5,38.2-3.3,57h11.6c2.9-20.3,3.8-41.9,2.9-64.7C230.3,7.9,148.3,7.9,61.3,45.4z"/>
		<path class="st1" d="M83.9,60.9c-0.1,46.5,8.6,94,34.2,133.6c18,27.9,42.6,49.2,71.3,65.3c28.7-16.1,53.2-37.4,71.3-65.3l0.6-1
			h-6.8c-16.7,25.1-39.1,44.6-65,59.7c-26.7-15.5-49.6-35.7-66.5-61.8C98.6,153.9,90,109,89.6,64.9c67.7-25.2,131.7-25.2,199.4,0
			c-0.1,15.1-1.2,30.3-3.6,45.2h5.8c2.5-16.2,3.6-32.8,3.5-49.2C223.1,33.3,155.5,33.3,83.9,60.9z"/>
		<path class="st1" d="M188.9,102.8L188.9,102.8c-1-0.1-2.1-0.2-3.2-0.2c-1,0-2,0.1-3,0.2c-5.5-13.8-13.8-17.1-23.4-16.3
			c7.6,3,14.3,8.7,16.8,18.5c-6.1,3.4-10.3,9.9-10.3,17.4c0,3,0.7,5.9,1.9,8.5c-2.8,2.9-5.2,6.5-7.2,10.6h-10c-4.2,0-2.8-2-3.6-5.3
			c-1.5-6.6-5.5-9.6-11.1-10.1c2.4,2.7,4,7.1,4.9,13.5c0.8,6.1,3.3,9.3,9.9,9.3h6.9c-0.9,2.8-1.6,5.8-2.2,8.9h-10.9
			c-8.4,0-8.9,4.7-10.2,11.3c-0.9,4.9-2.5,6.8-4.6,9.2c5.2-0.4,9-1,10.7-6.4c1.2-3.5-0.6-6.7,4-6.7h10.2c-0.1,1.4-0.1,2.8-0.1,4.2
			c0,2.8,0.2,5.5,0.5,8.2c-3.9,2-9.7,4.9-12.5,7.1c-3.5,2.9-3.9,5.9-3.9,9.7c0,4.4,0.9,6.9-4,10.4c5.8,0.6,9.5-2.6,10.5-7.2
			c0.7-3-0.7-5.8,1.2-8c1-1.1,6.5-4,9.7-5.7c4.1,18.9,15.8,32.6,29.7,32.6V110.1h15.5c-1.6-2-3.6-3.7-5.9-5l0-0.1
			c2.5-9.7,9.2-15.5,16.8-18.5C202.7,85.7,194.4,89,188.9,102.8z"/>
		<path d="M208,113.1L190.3,162h12.5l2.9-8.6H224l2.9,8.6h12.6l-17.7-48.9H208z M208.9,144.2l6-17.9l6.1,17.9H208.9z"/>
		<path d="M267.4,123.4c2.3,0,4.3,0.5,6.1,1.6c1.8,1.1,3.2,2.6,4.2,4.7h13.1c-1.4-5.3-4.2-9.5-8.3-12.6c-4.1-3.1-9.1-4.6-14.9-4.6
			c-4.7,0-9,1.1-12.7,3.2c-3.7,2.1-6.7,5.1-8.7,8.9c-2.1,3.8-3.1,8.1-3.1,12.9c0,4.8,1,9.1,3.1,12.9c2.1,3.8,5,6.7,8.7,8.8
			c3.7,2.1,8,3.2,12.7,3.2c5.8,0,10.8-1.5,14.9-4.6c4.1-3,6.9-7.2,8.3-12.5h-13.1c-1,2-2.4,3.6-4.2,4.7c-1.8,1.1-3.8,1.6-6.1,1.6
			c-3.7,0-6.6-1.3-8.9-3.8c-2.3-2.6-3.4-6-3.4-10.3c0-4.3,1.1-7.7,3.4-10.2C260.7,124.7,263.7,123.4,267.4,123.4z"/>
		<path d="M320.5,123.4c2.3,0,4.3,0.5,6.1,1.6c1.8,1.1,3.2,2.6,4.2,4.7h13.1c-1.4-5.3-4.2-9.5-8.3-12.6c-4.1-3.1-9.1-4.6-14.9-4.6
			c-4.7,0-9,1.1-12.7,3.2c-3.7,2.1-6.7,5.1-8.8,8.9c-2.1,3.8-3.1,8.1-3.1,12.9c0,4.8,1,9.1,3.1,12.9c2.1,3.8,5,6.7,8.8,8.8
			c3.7,2.1,8,3.2,12.7,3.2c5.8,0,10.8-1.5,14.9-4.6c4.1-3,6.9-7.2,8.3-12.5h-13.1c-1,2-2.4,3.6-4.2,4.7c-1.8,1.1-3.8,1.6-6.1,1.6
			c-3.7,0-6.7-1.3-8.9-3.8c-2.3-2.6-3.4-6-3.4-10.3c0-4.3,1.1-7.7,3.4-10.2C313.9,124.7,316.8,123.4,320.5,123.4z"/>
		<path d="M380,142.3c0,2.9-0.7,5.2-2.2,6.8c-1.5,1.6-3.6,2.4-6.4,2.4c-2.8,0-4.9-0.8-6.3-2.4c-1.4-1.6-2.2-3.8-2.2-6.8v-29.3H351
			v29.2c0,4.4,0.9,8.1,2.6,11.1c1.8,3,4.2,5.3,7.2,6.8c3,1.5,6.5,2.3,10.4,2.3c3.9,0,7.4-0.8,10.5-2.3c3.1-1.5,5.6-3.8,7.5-6.8
			c1.9-3,2.8-6.7,2.8-11.1v-29.2H380V142.3z"/>
		<path d="M435.6,137.2c1.8-2.6,2.8-5.5,2.8-8.7c0-2.9-0.7-5.5-2-7.8c-1.3-2.3-3.4-4.2-6.1-5.5c-2.7-1.3-6-2-9.9-2h-20V162h11.9
			v-18.5h2.9l10.2,18.5h13.5l-11.3-19.4C431,141.6,433.7,139.7,435.6,137.2z M424.6,133.5c-1.1,1.1-2.7,1.6-4.9,1.6h-7.4V123h7.4
			c2.2,0,3.8,0.5,4.9,1.6c1.1,1.1,1.6,2.5,1.6,4.4C426.2,130.9,425.7,132.4,424.6,133.5z"/>
		<path d="M460.3,113.1L442.6,162h12.5l2.9-8.6h18.3l2.9,8.6h12.6l-17.7-48.9H460.3z M461.1,144.2l6-17.9l6.1,17.9H461.1z"/>
		<polygon points="494.5,122.6 507.5,122.6 507.5,162 519.4,162 519.4,122.6 532.4,122.6 532.4,113.1 494.5,113.1 		"/>
		<polygon points="538.4,162 568.4,162 568.4,152.5 550.3,152.5 550.3,141.7 566.3,141.7 566.3,132.5 550.3,132.5 550.3,122.6 
			568.4,122.6 568.4,113.1 538.4,113.1 		"/>
		<path class="st2" d="M200.6,170.8c-1-0.5-2.1-0.7-3.5-0.7h-6.8v17.3h4.2v-6.2h2.6c1.4,0,2.6-0.3,3.5-0.8c1-0.5,1.7-1.2,2.1-2
			c0.5-0.8,0.7-1.7,0.7-2.7c0-1.1-0.2-2-0.7-2.9C202.3,172,201.6,171.3,200.6,170.8z M198.6,177.3c-0.4,0.4-1,0.6-1.8,0.6h-2.3v-4.3
			h2.3c0.8,0,1.4,0.2,1.8,0.6c0.4,0.4,0.6,0.9,0.6,1.6C199.2,176.4,199,176.9,198.6,177.3z"/>
		<polygon class="st2" points="206.9,187.4 217.5,187.4 217.5,184 211.1,184 211.1,180.2 216.8,180.2 216.8,177 211.1,177 
			211.1,173.5 217.5,173.5 217.5,170.1 206.9,170.1 		"/>
		<path class="st2" d="M231.4,178.2c-0.7-0.3-1.6-0.7-2.7-1.1c-1.1-0.4-1.9-0.7-2.5-1c-0.5-0.3-0.8-0.7-0.8-1.3
			c0-0.5,0.2-0.9,0.5-1.2c0.3-0.3,0.7-0.4,1.2-0.4c0.6,0,1.1,0.2,1.5,0.5c0.4,0.3,0.6,0.8,0.6,1.3h4.6c-0.1-1.6-0.7-2.9-1.9-3.8
			c-1.2-0.9-2.7-1.4-4.6-1.4c-1.9,0-3.4,0.5-4.6,1.4c-1.2,0.9-1.7,2.2-1.7,3.8c0,1.1,0.3,2,0.8,2.6c0.5,0.7,1.1,1.2,1.8,1.5
			c0.7,0.3,1.6,0.7,2.7,1c0.8,0.2,1.4,0.4,1.8,0.6c0.4,0.2,0.8,0.4,1.1,0.7c0.3,0.3,0.4,0.6,0.4,1.1c0,0.5-0.2,0.9-0.5,1.2
			c-0.4,0.3-0.9,0.4-1.5,0.4c-0.6,0-1.1-0.2-1.5-0.5c-0.4-0.3-0.6-0.8-0.7-1.5H221c0,1.1,0.3,2.1,0.9,2.9c0.6,0.8,1.4,1.4,2.4,1.8
			c1,0.4,2.1,0.6,3.4,0.6c1.3,0,2.4-0.2,3.4-0.7c1-0.5,1.7-1.1,2.2-1.9c0.5-0.8,0.8-1.7,0.8-2.7c0-1-0.3-1.9-0.8-2.5
			C232.7,179.1,232.1,178.6,231.4,178.2z"/>
		<polygon class="st2" points="236.9,173.5 241.5,173.5 241.5,187.4 245.7,187.4 245.7,173.5 250.3,173.5 250.3,170.1 236.9,170.1 
					"/>
		<path class="st2" d="M268,173.8c0.8,0,1.5,0.2,2.2,0.6c0.6,0.4,1.1,0.9,1.5,1.6h4.6c-0.5-1.9-1.5-3.3-2.9-4.4
			c-1.5-1.1-3.2-1.6-5.3-1.6c-1.7,0-3.2,0.4-4.5,1.1c-1.3,0.7-2.4,1.8-3.1,3.1s-1.1,2.9-1.1,4.6c0,1.7,0.4,3.2,1.1,4.6
			c0.7,1.3,1.8,2.4,3.1,3.1c1.3,0.7,2.8,1.1,4.5,1.1c2.1,0,3.8-0.5,5.3-1.6c1.5-1.1,2.4-2.5,2.9-4.4h-4.6c-0.3,0.7-0.8,1.3-1.5,1.6
			c-0.6,0.4-1.3,0.6-2.2,0.6c-1.3,0-2.3-0.5-3.2-1.4c-0.8-0.9-1.2-2.1-1.2-3.6c0-1.5,0.4-2.7,1.2-3.6
			C265.6,174.2,266.7,173.8,268,173.8z"/>
		<path class="st2" d="M292.7,171c-1.4-0.8-2.8-1.1-4.5-1.1s-3.1,0.4-4.5,1.1c-1.4,0.8-2.4,1.8-3.2,3.2c-0.8,1.3-1.2,2.9-1.2,4.6
			c0,1.7,0.4,3.2,1.2,4.6c0.8,1.4,1.9,2.4,3.2,3.2c1.4,0.8,2.8,1.1,4.5,1.1s3.1-0.4,4.5-1.1c1.3-0.8,2.4-1.8,3.2-3.2
			c0.8-1.4,1.2-2.9,1.2-4.6c0-1.7-0.4-3.2-1.2-4.6C295.1,172.8,294,171.8,292.7,171z M291.5,182.4c-0.8,0.9-1.9,1.4-3.3,1.4
			c-1.4,0-2.5-0.5-3.3-1.4c-0.8-0.9-1.2-2.1-1.2-3.7c0-1.5,0.4-2.8,1.2-3.7c0.8-0.9,1.9-1.4,3.3-1.4c1.4,0,2.5,0.5,3.3,1.4
			c0.8,0.9,1.2,2.1,1.2,3.7C292.8,180.2,292.4,181.4,291.5,182.4z"/>
		<polygon class="st2" points="311.9,180.8 304.8,170.1 300.6,170.1 300.6,187.4 304.8,187.4 304.8,176.7 311.9,187.4 316.1,187.4 
			316.1,170.1 311.9,170.1 		"/>
		<polygon class="st2" points="319.4,173.5 324,173.5 324,187.4 328.2,187.4 328.2,173.5 332.8,173.5 332.8,170.1 319.4,170.1 		"/>
		<path class="st2" d="M348.6,178.6c0.7-0.9,1-1.9,1-3.1c0-1-0.2-1.9-0.7-2.8c-0.5-0.8-1.2-1.5-2.2-2c-1-0.5-2.1-0.7-3.5-0.7h-7.1
			v17.3h4.2v-6.5h1l3.6,6.5h4.8l-4-6.8C347,180.2,347.9,179.5,348.6,178.6z M344.7,177.3c-0.4,0.4-1,0.6-1.7,0.6h-2.6v-4.3h2.6
			c0.8,0,1.3,0.2,1.7,0.6c0.4,0.4,0.6,0.9,0.6,1.6C345.3,176.4,345.1,177,344.7,177.3z"/>
		<path class="st2" d="M366.1,171c-1.4-0.8-2.8-1.1-4.5-1.1s-3.1,0.4-4.5,1.1c-1.4,0.8-2.4,1.8-3.2,3.2c-0.8,1.3-1.2,2.9-1.2,4.6
			c0,1.7,0.4,3.2,1.2,4.6c0.8,1.4,1.9,2.4,3.2,3.2c1.4,0.8,2.8,1.1,4.5,1.1s3.1-0.4,4.5-1.1c1.3-0.8,2.4-1.8,3.2-3.2
			c0.8-1.4,1.2-2.9,1.2-4.6c0-1.7-0.4-3.2-1.2-4.6C368.5,172.8,367.4,171.8,366.1,171z M364.9,182.4c-0.8,0.9-1.9,1.4-3.3,1.4
			c-1.4,0-2.5-0.5-3.3-1.4c-0.8-0.9-1.2-2.1-1.2-3.7c0-1.5,0.4-2.8,1.2-3.7c0.8-0.9,1.9-1.4,3.3-1.4c1.4,0,2.5,0.5,3.3,1.4
			s1.2,2.1,1.2,3.7C366.2,180.2,365.7,181.4,364.9,182.4z"/>
		<polygon class="st2" points="378.2,170.1 374,170.1 374,187.4 383.7,187.4 383.7,184.1 378.2,184.1 		"/>
		<path class="st2" d="M403.4,178.2c-0.7-0.3-1.6-0.7-2.7-1.1c-1.1-0.4-1.9-0.7-2.5-1c-0.5-0.3-0.8-0.7-0.8-1.3
			c0-0.5,0.2-0.9,0.5-1.2c0.3-0.3,0.7-0.4,1.2-0.4c0.6,0,1.1,0.2,1.5,0.5c0.4,0.3,0.6,0.8,0.6,1.3h4.6c-0.1-1.6-0.7-2.9-1.9-3.8
			c-1.2-0.9-2.7-1.4-4.6-1.4c-1.9,0-3.4,0.5-4.6,1.4c-1.2,0.9-1.7,2.2-1.7,3.8c0,1.1,0.3,2,0.8,2.6c0.5,0.7,1.1,1.2,1.8,1.5
			c0.7,0.3,1.6,0.7,2.7,1c0.8,0.2,1.4,0.4,1.8,0.6c0.4,0.2,0.8,0.4,1.1,0.7c0.3,0.3,0.4,0.6,0.4,1.1c0,0.5-0.2,0.9-0.5,1.2
			c-0.4,0.3-0.9,0.4-1.5,0.4c-0.6,0-1.1-0.2-1.5-0.5c-0.4-0.3-0.6-0.8-0.7-1.5h-4.5c0,1.1,0.3,2.1,0.9,2.9c0.6,0.8,1.4,1.4,2.4,1.8
			c1,0.4,2.1,0.6,3.4,0.6c1.3,0,2.4-0.2,3.4-0.7c1-0.5,1.7-1.1,2.2-1.9c0.5-0.8,0.8-1.7,0.8-2.7c0-1-0.3-1.9-0.8-2.5
			C404.7,179.1,404.1,178.6,403.4,178.2z"/>
		<polygon class="st2" points="409.8,187.4 420.4,187.4 420.4,184 414,184 414,180.2 419.6,180.2 419.6,177 414,177 414,173.5 
			420.4,173.5 420.4,170.1 409.8,170.1 		"/>
		<path class="st2" d="M436.8,178.6c0.7-0.9,1-1.9,1-3.1c0-1-0.2-1.9-0.7-2.8c-0.5-0.8-1.2-1.5-2.2-2c-1-0.5-2.1-0.7-3.5-0.7h-7.1
			v17.3h4.2v-6.5h1l3.6,6.5h4.8l-4-6.8C435.2,180.2,436.1,179.5,436.8,178.6z M432.9,177.3c-0.4,0.4-1,0.6-1.7,0.6h-2.6v-4.3h2.6
			c0.8,0,1.3,0.2,1.7,0.6c0.4,0.4,0.6,0.9,0.6,1.6C433.5,176.4,433.3,177,432.9,177.3z"/>
		<polygon class="st2" points="449.1,183.2 444.8,170.1 440.3,170.1 446.4,187.4 451.7,187.4 457.8,170.1 453.4,170.1 		"/>
		<rect x="460.8" y="170.1" class="st2" width="4.2" height="17.3"/>
		<path class="st2" d="M477.2,173.8c0.8,0,1.5,0.2,2.2,0.6c0.6,0.4,1.1,0.9,1.5,1.6h4.6c-0.5-1.9-1.5-3.3-2.9-4.4
			c-1.5-1.1-3.2-1.6-5.3-1.6c-1.7,0-3.2,0.4-4.5,1.1c-1.3,0.7-2.3,1.8-3.1,3.1c-0.7,1.3-1.1,2.9-1.1,4.6c0,1.7,0.4,3.2,1.1,4.6
			c0.7,1.3,1.8,2.4,3.1,3.1c1.3,0.7,2.8,1.1,4.5,1.1c2.1,0,3.8-0.5,5.3-1.6c1.5-1.1,2.4-2.5,2.9-4.4h-4.6c-0.3,0.7-0.8,1.3-1.5,1.6
			c-0.6,0.4-1.3,0.6-2.2,0.6c-1.3,0-2.3-0.5-3.2-1.4c-0.8-0.9-1.2-2.1-1.2-3.6c0-1.5,0.4-2.7,1.2-3.6
			C474.9,174.2,475.9,173.8,477.2,173.8z"/>
		<polygon class="st2" points="489.3,187.4 499.9,187.4 499.9,184 493.5,184 493.5,180.2 499.1,180.2 499.1,177 493.5,177 
			493.5,173.5 499.9,173.5 499.9,170.1 489.3,170.1 		"/>
		<path class="st2" d="M513.8,178.2c-0.7-0.3-1.6-0.7-2.7-1.1c-1.1-0.4-1.9-0.7-2.5-1c-0.5-0.3-0.8-0.7-0.8-1.3
			c0-0.5,0.2-0.9,0.5-1.2c0.3-0.3,0.7-0.4,1.2-0.4c0.6,0,1.1,0.2,1.5,0.5c0.4,0.3,0.6,0.8,0.6,1.3h4.6c-0.1-1.6-0.7-2.9-1.9-3.8
			c-1.2-0.9-2.7-1.4-4.6-1.4c-1.9,0-3.4,0.5-4.6,1.4c-1.2,0.9-1.7,2.2-1.7,3.8c0,1.1,0.3,2,0.8,2.6c0.5,0.7,1.1,1.2,1.8,1.5
			c0.7,0.3,1.6,0.7,2.7,1c0.8,0.2,1.4,0.4,1.8,0.6c0.4,0.2,0.8,0.4,1.1,0.7c0.3,0.3,0.4,0.6,0.4,1.1c0,0.5-0.2,0.9-0.5,1.2
			c-0.4,0.3-0.9,0.4-1.5,0.4c-0.6,0-1.1-0.2-1.5-0.5c-0.4-0.3-0.6-0.8-0.7-1.5h-4.5c0,1.1,0.3,2.1,0.9,2.9c0.6,0.8,1.4,1.4,2.4,1.8
			c1,0.4,2.1,0.6,3.4,0.6c1.3,0,2.4-0.2,3.4-0.7c1-0.5,1.7-1.1,2.2-1.9c0.5-0.8,0.8-1.7,0.8-2.7c0-1-0.3-1.9-0.8-2.5
			C515.1,179.1,514.5,178.6,513.8,178.2z"/>
		<polygon class="st2" points="530.9,170.1 526.7,170.1 526.7,187.4 536.4,187.4 536.4,184.1 530.9,184.1 		"/>
		<polygon class="st2" points="543.8,170.1 539.6,170.1 539.6,187.4 549.4,187.4 549.4,184.1 543.8,184.1 		"/>
		<path class="st2" d="M560.5,173.8c0.8,0,1.5,0.2,2.2,0.6c0.6,0.4,1.1,0.9,1.5,1.6h4.6c-0.5-1.9-1.5-3.3-2.9-4.4
			c-1.5-1.1-3.2-1.6-5.3-1.6c-1.7,0-3.2,0.4-4.5,1.1c-1.3,0.7-2.3,1.8-3.1,3.1c-0.7,1.3-1.1,2.9-1.1,4.6c0,1.7,0.4,3.2,1.1,4.6
			c0.7,1.3,1.8,2.4,3.1,3.1c1.3,0.7,2.8,1.1,4.5,1.1c2.1,0,3.8-0.5,5.3-1.6c1.5-1.1,2.4-2.5,2.9-4.4h-4.6c-0.3,0.7-0.8,1.3-1.5,1.6
			c-0.6,0.4-1.3,0.6-2.2,0.6c-1.3,0-2.3-0.5-3.2-1.4c-0.8-0.9-1.2-2.1-1.2-3.6c0-1.5,0.4-2.7,1.2-3.6
			C558.2,174.2,559.2,173.8,560.5,173.8z"/>
	</g>
	<g>
		<path d="M303.1,197.2c1.1,0.6,2,1.4,2.6,2.5c0.6,1.1,0.9,2.3,0.9,3.7c0,1.4-0.3,2.6-0.9,3.7c-0.6,1.1-1.5,1.9-2.6,2.5
			c-1.1,0.6-2.4,0.9-3.9,0.9h-5.3v-14.1h5.3C300.7,196.3,302,196.6,303.1,197.2z M302,206.4c0.7-0.7,1.1-1.7,1.1-3
			c0-1.3-0.4-2.3-1.1-3c-0.7-0.7-1.7-1.1-3-1.1h-1.6v8.2h1.6C300.2,207.5,301.3,207.1,302,206.4z"/>
		<path d="M311.9,196.3v8.5c0,0.8,0.2,1.5,0.6,2c0.4,0.5,1,0.7,1.8,0.7c0.8,0,1.4-0.2,1.9-0.7c0.4-0.5,0.6-1.1,0.6-2v-8.5h3.4v8.4
			c0,1.3-0.3,2.3-0.8,3.2c-0.5,0.9-1.3,1.5-2.2,2c-0.9,0.4-1.9,0.7-3,0.7s-2.1-0.2-3-0.7c-0.9-0.4-1.6-1.1-2.1-2
			c-0.5-0.9-0.8-1.9-0.8-3.2v-8.4H311.9z"/>
		<path d="M333.2,204.4c0.5,0.6,0.7,1.4,0.7,2.2c0,1.2-0.4,2.1-1.2,2.8c-0.8,0.7-2,1-3.5,1h-6.6v-14.1h6.4c1.4,0,2.6,0.3,3.4,1
			c0.8,0.7,1.2,1.5,1.2,2.7c0,0.8-0.2,1.5-0.7,2.1c-0.4,0.6-1,0.9-1.7,1.1C332.1,203.4,332.7,203.8,333.2,204.4z M326.1,202.1h2.3
			c0.6,0,1-0.1,1.3-0.4c0.3-0.2,0.5-0.6,0.5-1.1c0-0.5-0.2-0.9-0.5-1.1c-0.3-0.3-0.7-0.4-1.3-0.4h-2.3V202.1z M330,207.3
			c0.3-0.3,0.5-0.6,0.5-1.1c0-0.5-0.2-0.9-0.5-1.2c-0.3-0.3-0.8-0.4-1.4-0.4h-2.5v3.1h2.5C329.3,207.7,329.7,207.6,330,207.3z"/>
		<path d="M344.8,208h-5.3l-0.8,2.5H335l5.1-14.1h4l5.1,14.1h-3.6L344.8,208z M343.9,205.3l-1.8-5.2l-1.7,5.2H343.9z"/>
		<path d="M354.3,196.3v14.1h-3.4v-14.1H354.3z"/>
		<path d="M369.7,202v2.9h-8.9V202H369.7z"/>
		<path d="M379.3,210.1c-0.8-0.3-1.5-0.8-2-1.5s-0.7-1.4-0.8-2.4h3.7c0.1,0.5,0.2,0.9,0.5,1.2c0.3,0.3,0.7,0.4,1.2,0.4
			c0.5,0,0.9-0.1,1.2-0.4c0.3-0.2,0.4-0.6,0.4-1c0-0.3-0.1-0.6-0.4-0.9c-0.2-0.2-0.5-0.4-0.9-0.6c-0.3-0.1-0.8-0.3-1.5-0.5
			c-0.9-0.3-1.7-0.6-2.2-0.8s-1.1-0.7-1.5-1.2c-0.4-0.6-0.6-1.3-0.6-2.2c0-1.3,0.5-2.3,1.4-3.1c1-0.7,2.2-1.1,3.7-1.1
			c1.6,0,2.8,0.4,3.8,1.1c1,0.7,1.5,1.8,1.5,3.1h-3.7c0-0.5-0.2-0.8-0.5-1.1c-0.3-0.3-0.7-0.4-1.2-0.4c-0.4,0-0.8,0.1-1,0.3
			c-0.3,0.2-0.4,0.5-0.4,1c0,0.5,0.2,0.8,0.6,1.1c0.4,0.3,1.1,0.5,2,0.8c0.9,0.3,1.7,0.6,2.2,0.9c0.6,0.3,1.1,0.7,1.5,1.2
			c0.4,0.5,0.6,1.2,0.6,2.1c0,0.8-0.2,1.5-0.6,2.2c-0.4,0.7-1,1.2-1.8,1.6c-0.8,0.4-1.7,0.6-2.8,0.6
			C381,210.6,380.1,210.5,379.3,210.1z"/>
		<path d="M401.6,196.3v14.1h-3.4v-5.8h-5.4v5.8h-3.4v-14.1h3.4v5.5h5.4v-5.5H401.6z"/>
		<path d="M412.9,208h-5.3l-0.8,2.5h-3.6l5.1-14.1h4l5.1,14.1h-3.6L412.9,208z M412,205.3l-1.8-5.2l-1.7,5.2H412z"/>
		<path d="M426.1,210.5l-2.9-5.3h-0.8v5.3h-3.4v-14.1h5.8c1.1,0,2.1,0.2,2.8,0.6c0.8,0.4,1.4,0.9,1.8,1.6c0.4,0.7,0.6,1.4,0.6,2.3
			c0,0.9-0.3,1.8-0.8,2.5c-0.5,0.7-1.3,1.3-2.3,1.6l3.3,5.6H426.1z M422.4,202.7h2.1c0.6,0,1.1-0.2,1.4-0.5c0.3-0.3,0.5-0.7,0.5-1.3
			c0-0.5-0.2-1-0.5-1.3c-0.3-0.3-0.8-0.5-1.4-0.5h-2.1V202.7z"/>
		<path d="M440.9,196.3v9.6c0,1.5-0.4,2.6-1.3,3.4c-0.8,0.8-2,1.2-3.4,1.2c-1.5,0-2.7-0.4-3.6-1.3c-0.9-0.8-1.3-2-1.3-3.6h3.4
			c0,0.6,0.1,1,0.4,1.3c0.2,0.3,0.6,0.5,1,0.5c0.4,0,0.7-0.1,1-0.4c0.2-0.3,0.3-0.7,0.3-1.2v-9.6H440.9z"/>
		<path d="M452.5,208h-5.3l-0.8,2.5h-3.6l5.1-14.1h4l5.1,14.1h-3.6L452.5,208z M451.6,205.3l-1.8-5.2l-1.7,5.2H451.6z"/>
		<path d="M470.8,196.3v14.1h-3.4v-5.8H462v5.8h-3.4v-14.1h3.4v5.5h5.4v-5.5H470.8z"/>
		<path d="M486.2,202v2.9h-8.9V202H486.2z"/>
		<path d="M502.2,208H497l-0.8,2.5h-3.6l5.1-14.1h4l5.1,14.1h-3.6L502.2,208z M501.4,205.3l-1.8-5.2l-1.7,5.2H501.4z"/>
		<path d="M517.1,196.3v9.6c0,1.5-0.4,2.6-1.3,3.4c-0.8,0.8-2,1.2-3.4,1.2c-1.5,0-2.7-0.4-3.6-1.3s-1.3-2-1.3-3.6h3.4
			c0,0.6,0.1,1,0.4,1.3c0.2,0.3,0.6,0.5,1,0.5c0.4,0,0.7-0.1,1-0.4c0.2-0.3,0.3-0.7,0.3-1.2v-9.6H517.1z"/>
		<path d="M535.9,196.3v14.1h-3.4V202l-3.2,8.5h-2.8l-3.2-8.5v8.5h-3.4v-14.1h4.1l4,9.8l3.9-9.8H535.9z"/>
		<path d="M547.2,208h-5.3l-0.8,2.5h-3.6l5.1-14.1h4l5.1,14.1h-3.6L547.2,208z M546.3,205.3l-1.8-5.2l-1.7,5.2H546.3z"/>
		<path d="M565.9,210.5h-3.4l-5.8-8.7v8.7h-3.4v-14.1h3.4l5.8,8.8v-8.8h3.4V210.5z"/>
	</g>
</g>
</svg>
