<?xml version="1.0" encoding="utf-8"?>
<!-- Generator: Adobe Illustrator 27.0.0, SVG Export Plug-In . SVG Version: 6.00 Build 0)  -->
<svg version="1.1" id="Layer_1" xmlns="http://www.w3.org/2000/svg" xmlns:xlink="http://www.w3.org/1999/xlink" x="0px" y="0px"
	 viewBox="0 0 144 144" style="enable-background:new 0 0 144 144;" xml:space="preserve">
<style type="text/css">
	.st0{fill:#45A041;}
	.st1{fill-rule:evenodd;clip-rule:evenodd;fill:#FFFFFF;}
</style>
<g>
	<g>
		<rect x="0" y="0" class="st0" width="144" height="144"/>
		<g>
			<g>
				<path class="st1" d="M52.2,68.3l-26.6,33.8c-1.1-1.5-1.7-3.3-1.7-5.3V54.9c0-3.2,1.7-6,4.2-7.6L52.2,68.3z M115.9,47.3l-24,20.9
					l26.6,33.8c1-1.5,1.6-3.2,1.6-5.2V54.9C120.1,51.7,118.4,48.9,115.9,47.3z M72,85.6L55,70.8l-26.7,34c1.5,1.2,3.5,1.9,5.6,1.9
					h76.4c2.2,0,4.2-0.8,5.7-2.1l-26.7-34L72,85.6z M72,78.9l41.3-35.9c3-2.7,1.9-5.5-2.3-5.7c-26,0-52.1,0-78.1,0
					c-4.1,0.2-5.2,2.9-2.3,5.7L72,78.9z"/>
			</g>
		</g>
	</g>
</g>
</svg>
