<?xml version="1.0" encoding="utf-8"?>
<!-- Generator: Adobe Illustrator 27.0.0, SVG Export Plug-In . SVG Version: 6.00 Build 0)  -->
<svg version="1.1" id="Layer_1" xmlns="http://www.w3.org/2000/svg" xmlns:xlink="http://www.w3.org/1999/xlink" x="0px" y="0px"
	 viewBox="0 0 664 195.8" style="enable-background:new 0 0 664 195.8;" xml:space="preserve">
<style type="text/css">
	.st0{fill:#FFFFFF;}
</style>
<g>
	<g>
		<path d="M630.7,126.9H33.3c-14.5,0-26.2-11.8-26.2-26.2V35.1c0-14.5,11.8-26.2,26.2-26.2h597.5c14.5,0,26.2,11.8,26.2,26.2v65.6
			C657,115.2,645.2,126.9,630.7,126.9z"/>
		<g>
			<path class="st0" d="M43.2,87.5c-3.6-2.6-5.5-6.3-5.8-11.3h15.3c0.2,2.6,1.4,3.9,3.5,3.9c0.8,0,1.4-0.2,2-0.5s0.8-0.9,0.8-1.7
				c0-1.1-0.6-2-1.7-2.6c-1.2-0.7-3-1.4-5.4-2.3c-2.9-1-5.4-2-7.3-3s-3.6-2.4-4.9-4.3c-1.4-1.9-2-4.3-2-7.3s0.8-5.5,2.3-7.6
				s3.6-3.7,6.3-4.8c2.7-1.1,5.6-1.6,9-1.6c5.6,0,10.1,1.3,13.4,3.9s5,6.2,5.2,10.9H58.2c0-1.3-0.4-2.2-1-2.8
				c-0.6-0.6-1.3-0.8-2.2-0.8c-0.6,0-1.1,0.2-1.5,0.6s-0.6,1-0.6,1.7c0,1,0.6,1.9,1.7,2.6s3,1.5,5.5,2.4C63,64,65.4,65,67.2,66
				c1.9,1,3.5,2.4,4.9,4.1c1.4,1.8,2.1,4,2.1,6.7c0,2.8-0.7,5.3-2.1,7.5c-1.4,2.2-3.4,4-6,5.2c-2.6,1.3-5.8,1.9-9.4,1.9
				C51.3,91.4,46.8,90.1,43.2,87.5z"/>
			<path class="st0" d="M97.6,56.6v5.6h14.2V73H97.6v6.5h16.2V91H83.3V45.1h30.5v11.5H97.6z"/>
			<path class="st0" d="M146.1,90.9l-8.6-16.4h-0.1v16.4H123V45.1h21.3c3.7,0,6.9,0.7,9.5,2s4.6,3.1,5.9,5.4c1.3,2.3,2,4.8,2,7.7
				c0,3.1-0.9,5.8-2.6,8.2c-1.7,2.4-4.2,4.1-7.3,5.1l10,17.5h-15.7V90.9z M137.4,64.9h5.7c1.4,0,2.4-0.3,3.1-0.9s1-1.6,1-2.9
				c0-1.2-0.4-2.2-1.1-2.8c-0.7-0.7-1.7-1-3.1-1h-5.7v7.6H137.4z"/>
			<path class="st0" d="M216.4,45.1L201,90.9h-18.6L167,45.1h15.3l9.4,31.5l9.4-31.5H216.4z"/>
			<path class="st0" d="M237.9,45.1v45.8h-14.4V45.1H237.9z"/>
			<path class="st0" d="M249.7,55.9c1.8-3.5,4.5-6.3,7.9-8.2c3.4-2,7.4-2.9,12-2.9c4,0,7.5,0.7,10.6,2.2s5.7,3.6,7.6,6.3
				c2,2.7,3.3,5.9,3.9,9.5h-15.1c-0.7-1.5-1.7-2.7-2.9-3.5c-1.3-0.8-2.7-1.3-4.4-1.3c-2.4,0-4.3,0.9-5.7,2.7
				c-1.4,1.8-2.1,4.2-2.1,7.3c0,3.1,0.7,5.5,2.1,7.3s3.3,2.7,5.7,2.7c1.6,0,3.1-0.4,4.4-1.3c1.3-0.8,2.3-2,2.9-3.5h15.1
				c-0.6,3.6-2,6.8-3.9,9.5c-2,2.7-4.5,4.8-7.6,6.3s-6.7,2.2-10.6,2.2c-4.6,0-8.6-1-12-2.9c-3.4-2-6-4.7-7.9-8.2
				c-1.8-3.5-2.8-7.6-2.8-12.1C246.9,63.4,247.8,59.4,249.7,55.9z"/>
			<path class="st0" d="M315.2,56.6v5.6h14.2V73h-14.2v6.5h16.2V91h-30.5V45.1h30.5v11.5H315.2z"/>
			<path class="st0" d="M378.6,90.9L370,74.5h-0.1v16.4h-14.4V45.1h21.3c3.7,0,6.9,0.7,9.5,2s4.6,3.1,5.9,5.4s2,4.8,2,7.7
				c0,3.1-0.9,5.8-2.6,8.2c-1.7,2.4-4.2,4.1-7.3,5.1l10,17.5h-15.7V90.9z M369.9,64.9h5.7c1.4,0,2.4-0.3,3.1-0.9s1-1.6,1-2.9
				c0-1.2-0.4-2.2-1.1-2.8c-0.7-0.7-1.7-1-3.1-1h-5.7v7.6H369.9z"/>
			<path class="st0" d="M417.1,56.6v5.6h14.2V73h-14.2v6.5h16.2V91h-30.5V45.1h30.5v11.5H417.1z"/>
			<path class="st0" d="M478.1,68.7c-1.3,2.4-3.3,4.2-5.9,5.6s-5.8,2.1-9.5,2.1H457V91h-14.4V45.1h20.1c5.6,0,9.9,1.4,12.9,4.3
				c3,2.8,4.5,6.7,4.5,11.5C480.1,63.7,479.4,66.4,478.1,68.7z M465.5,60.9c0-2.8-1.5-4.2-4.5-4.2h-4v8.4h4.1
				C464,65.1,465.5,63.7,465.5,60.9z"/>
			<path class="st0" d="M498.9,88.3c-3.6-2-6.5-4.8-8.6-8.4s-3.2-7.6-3.2-12.1s1.1-8.5,3.2-12.1c2.1-3.6,5-6.4,8.6-8.4s7.6-3,11.9-3
				c4.3,0,8.3,1,11.8,3c3.6,2,6.4,4.8,8.5,8.4s3.1,7.6,3.1,12.1s-1,8.5-3.1,12.1s-4.9,6.4-8.5,8.4s-7.5,3-11.8,3
				C506.5,91.4,502.5,90.4,498.9,88.3z M517.4,75.2c1.6-1.8,2.3-4.3,2.3-7.4s-0.8-5.6-2.3-7.5c-1.6-1.8-3.8-2.7-6.6-2.7
				c-2.9,0-5.1,0.9-6.7,2.7c-1.6,1.8-2.3,4.3-2.3,7.5c0,3.1,0.8,5.6,2.3,7.4c1.6,1.8,3.8,2.8,6.7,2.8
				C513.7,78,515.9,77.1,517.4,75.2z"/>
			<path class="st0" d="M566.4,90.9l-8.6-16.4h-0.1v16.4h-14.4V45.1h21.3c3.7,0,6.9,0.7,9.5,2s4.6,3.1,5.9,5.4c1.3,2.3,2,4.8,2,7.7
				c0,3.1-0.9,5.8-2.6,8.2c-1.7,2.4-4.2,4.1-7.3,5.1l10,17.5h-15.7V90.9z M557.7,64.9h5.7c1.4,0,2.4-0.3,3.1-0.9
				c0.7-0.6,1-1.6,1-2.9c0-1.2-0.4-2.2-1.1-2.8c-0.7-0.7-1.7-1-3.1-1h-5.7L557.7,64.9L557.7,64.9z"/>
			<path class="st0" d="M626.5,45.1v11.4h-12.2v34.4H600V56.5h-12V45.1H626.5z"/>
		</g>
	</g>
	<g>
		<path d="M123.9,152.3c1.8,0.9,3.2,2.3,4.2,4s1.5,3.7,1.5,6s-0.5,4.3-1.5,6s-2.4,3-4.2,4c-1.8,0.9-3.9,1.4-6.3,1.4h-7.9V151h7.9
			C120,150.9,122.1,151.3,123.9,152.3z M123,167.8c1.3-1.3,2-3.1,2-5.5s-0.6-4.2-2-5.5c-1.3-1.3-3.1-2-5.5-2h-3.2v15h3.2
			C119.8,169.7,121.7,169.1,123,167.8z"/>
		<path d="M152,155.6v18h-4.6v-2.3c-0.6,0.8-1.4,1.4-2.3,1.8c-0.9,0.4-2,0.7-3.1,0.7c-1.4,0-2.7-0.3-3.7-0.9
			c-1.1-0.6-1.9-1.5-2.6-2.6c-0.6-1.2-0.9-2.5-0.9-4.1v-10.6h4.6v9.9c0,1.4,0.4,2.5,1.1,3.3c0.7,0.8,1.7,1.2,2.9,1.2
			c1.3,0,2.2-0.4,3-1.2c0.7-0.8,1.1-1.9,1.1-3.3v-9.9L152,155.6L152,155.6z"/>
		<path d="M165.4,156.1c1-0.5,2.2-0.8,3.5-0.8c1.5,0,2.9,0.4,4.2,1.1c1.2,0.8,2.2,1.8,3,3.2c0.7,1.4,1.1,3,1.1,4.9
			c0,1.8-0.4,3.5-1.1,4.9c-0.7,1.4-1.7,2.5-3,3.3c-1.2,0.8-2.6,1.2-4.2,1.2c-1.3,0-2.5-0.3-3.5-0.8s-1.8-1.2-2.4-2.1v2.6h-4.6v-24.1
			h4.6v8.7C163.6,157.3,164.4,156.6,165.4,156.1z M171.8,161.7c-0.4-0.8-1-1.4-1.8-1.8c-0.7-0.4-1.5-0.6-2.4-0.6
			c-0.8,0-1.6,0.2-2.3,0.6c-0.7,0.4-1.3,1-1.8,1.8s-0.7,1.7-0.7,2.8s0.2,2,0.7,2.8s1,1.4,1.8,1.8c0.7,0.4,1.5,0.6,2.3,0.6
			s1.6-0.2,2.4-0.7c0.7-0.4,1.3-1.1,1.8-1.9c0.4-0.8,0.7-1.8,0.7-2.9C172.5,163.4,172.3,162.5,171.8,161.7z"/>
		<path d="M182.3,159.7c0.7-1.4,1.7-2.5,3-3.3c1.2-0.8,2.6-1.1,4.2-1.1c1.3,0,2.5,0.3,3.5,0.8s1.8,1.2,2.4,2v-2.6h4.6v18h-4.6V171
			c-0.6,0.8-1.4,1.5-2.4,2.1s-2.2,0.8-3.6,0.8c-1.5,0-2.9-0.4-4.1-1.2c-1.2-0.8-2.2-1.9-3-3.3c-0.7-1.4-1.1-3.1-1.1-4.9
			C181.3,162.7,181.6,161.1,182.3,159.7z M194.8,161.7c-0.4-0.8-1-1.4-1.8-1.8c-0.7-0.4-1.5-0.6-2.4-0.6s-1.6,0.2-2.3,0.6
			c-0.7,0.4-1.3,1-1.7,1.8s-0.7,1.7-0.7,2.8s0.2,2,0.7,2.8s1,1.4,1.8,1.9c0.7,0.4,1.5,0.7,2.3,0.7s1.6-0.2,2.4-0.6
			c0.7-0.4,1.3-1,1.8-1.8c0.4-0.8,0.7-1.7,0.7-2.8C195.4,163.5,195.2,162.5,194.8,161.7z"/>
		<path d="M206.7,152.7c-0.5-0.5-0.8-1.1-0.8-1.9c0-0.8,0.3-1.4,0.8-1.9s1.2-0.8,2-0.8s1.5,0.3,2,0.8s0.8,1.1,0.8,1.9
			c0,0.8-0.3,1.4-0.8,1.9s-1.2,0.8-2,0.8C207.9,153.4,207.3,153.2,206.7,152.7z M211,155.6v18h-4.6v-18H211z"/>
		<path d="M241,160.1v3.8h-13.8v-3.8H241z"/>
		<path d="M261.3,173c-1.3-0.5-2.3-1.3-3-2.3s-1.1-2.2-1.1-3.6h4.9c0.1,0.9,0.4,1.7,1,2.2s1.4,0.8,2.5,0.8s1.9-0.3,2.5-0.8
			s0.9-1.2,0.9-2c0-0.7-0.2-1.2-0.6-1.7c-0.4-0.4-0.9-0.8-1.5-1s-1.5-0.5-2.6-0.8c-1.5-0.4-2.7-0.9-3.6-1.3
			c-0.9-0.4-1.7-1.1-2.4-1.9c-0.7-0.9-1-2-1-3.4c0-1.3,0.3-2.5,1-3.5s1.6-1.8,2.8-2.3c1.2-0.5,2.6-0.8,4.2-0.8
			c2.3,0,4.2,0.6,5.7,1.7s2.3,2.7,2.4,4.8h-5c0-0.8-0.4-1.4-1-1.9s-1.4-0.8-2.5-0.8c-0.9,0-1.6,0.2-2.1,0.7s-0.8,1.1-0.8,2
			c0,0.6,0.2,1.1,0.6,1.5s0.9,0.7,1.5,1c0.6,0.2,1.4,0.5,2.5,0.9c1.5,0.4,2.7,0.9,3.6,1.3c0.9,0.4,1.7,1.1,2.4,2c0.7,0.9,1,2,1,3.4
			c0,1.2-0.3,2.3-0.9,3.4c-0.6,1-1.6,1.9-2.8,2.5s-2.7,0.9-4.3,0.9C264,173.8,262.6,173.5,261.3,173z"/>
		<path d="M293.3,156.2c1.1,0.6,1.9,1.5,2.5,2.6c0.6,1.2,0.9,2.6,0.9,4.2v10.6h-4.6v-10c0-1.4-0.4-2.5-1.1-3.3s-1.7-1.2-2.9-1.2
			c-1.3,0-2.3,0.4-3,1.2s-1.1,1.9-1.1,3.3v10h-4.6v-24.1h4.6v8.3c0.6-0.8,1.4-1.4,2.3-1.8c1-0.4,2.1-0.7,3.3-0.7
			C291,155.3,292.2,155.6,293.3,156.2z"/>
		<path d="M302.9,159.7c0.7-1.4,1.7-2.5,3-3.3c1.2-0.8,2.6-1.1,4.2-1.1c1.3,0,2.5,0.3,3.5,0.8s1.8,1.2,2.4,2v-2.6h4.6v18H316V171
			c-0.6,0.8-1.4,1.5-2.4,2.1s-2.2,0.8-3.6,0.8c-1.5,0-2.9-0.4-4.1-1.2s-2.2-1.9-3-3.3c-0.7-1.4-1.1-3.1-1.1-4.9
			C301.8,162.7,302.2,161.1,302.9,159.7z M315.3,161.7c-0.4-0.8-1-1.4-1.8-1.8c-0.7-0.4-1.5-0.6-2.4-0.6c-0.8,0-1.6,0.2-2.3,0.6
			c-0.7,0.4-1.3,1-1.7,1.8c-0.4,0.8-0.7,1.7-0.7,2.8s0.2,2,0.7,2.8c0.4,0.8,1,1.4,1.8,1.9s1.5,0.7,2.3,0.7s1.6-0.2,2.4-0.6
			c0.7-0.4,1.3-1,1.8-1.8c0.4-0.8,0.7-1.7,0.7-2.8C316,163.5,315.8,162.5,315.3,161.7z"/>
		<path d="M333.8,156.1c0.9-0.5,2-0.8,3.2-0.8v4.8h-1.2c-1.4,0-2.5,0.3-3.2,1s-1.1,1.8-1.1,3.5v9H327v-18h4.6v2.8
			C332.1,157.4,332.9,156.7,333.8,156.1z"/>
		<path d="M346.6,176.5c0,2-0.5,3.4-1.5,4.3c-1,0.9-2.4,1.3-4.2,1.3h-2v-3.9h1.3c0.7,0,1.2-0.1,1.5-0.4c0.3-0.3,0.4-0.7,0.4-1.3v-21
			h4.6L346.6,176.5L346.6,176.5z M342.3,152.7c-0.5-0.5-0.8-1.1-0.8-1.9c0-0.8,0.3-1.4,0.8-1.9s1.2-0.8,2-0.8s1.5,0.3,2,0.8
			s0.8,1.1,0.8,1.9c0,0.8-0.3,1.4-0.8,1.9s-1.2,0.8-2,0.8C343.6,153.4,342.9,153.2,342.3,152.7z"/>
		<path d="M353,159.7c0.7-1.4,1.7-2.5,3-3.3c1.2-0.8,2.6-1.1,4.2-1.1c1.3,0,2.5,0.3,3.5,0.8s1.8,1.2,2.4,2v-2.6h4.6v18h-4.6V171
			c-0.6,0.8-1.4,1.5-2.4,2.1s-2.2,0.8-3.6,0.8c-1.5,0-2.9-0.4-4.1-1.2s-2.2-1.9-3-3.3c-0.7-1.4-1.1-3.1-1.1-4.9
			C351.9,162.7,352.3,161.1,353,159.7z M365.4,161.7c-0.4-0.8-1-1.4-1.8-1.8c-0.7-0.4-1.5-0.6-2.4-0.6s-1.6,0.2-2.3,0.6
			c-0.7,0.4-1.3,1-1.7,1.8c-0.4,0.8-0.7,1.7-0.7,2.8s0.2,2,0.7,2.8s1,1.4,1.8,1.9c0.7,0.4,1.5,0.7,2.3,0.7s1.6-0.2,2.4-0.6
			c0.7-0.4,1.3-1,1.8-1.8c0.4-0.8,0.7-1.7,0.7-2.8C366.1,163.5,365.9,162.5,365.4,161.7z"/>
		<path d="M390.9,156.2c1.1,0.6,1.9,1.5,2.5,2.6c0.6,1.2,0.9,2.6,0.9,4.2v10.6h-4.6v-10c0-1.4-0.4-2.5-1.1-3.3s-1.7-1.2-2.9-1.2
			c-1.3,0-2.3,0.4-3,1.2s-1.1,1.9-1.1,3.3v10H377v-24.1h4.6v8.3c0.6-0.8,1.4-1.4,2.3-1.8c1-0.4,2.1-0.7,3.3-0.7
			C388.6,155.3,389.8,155.6,390.9,156.2z"/>
		<path d="M424.1,160.1v3.8h-13.8v-3.8H424.1z"/>
		<path d="M454.8,169.3h-9l-1.5,4.3h-4.8l8.2-22.7h5.3l8.2,22.7h-4.8L454.8,169.3z M453.5,165.6l-3.3-9.5l-3.3,9.5H453.5z"/>
		<path d="M470.6,176.5c0,2-0.5,3.4-1.5,4.3c-1,0.9-2.4,1.3-4.2,1.3h-2v-3.9h1.3c0.7,0,1.2-0.1,1.5-0.4s0.4-0.7,0.4-1.3v-21h4.6
			L470.6,176.5L470.6,176.5z M466.4,152.7c-0.5-0.5-0.8-1.1-0.8-1.9c0-0.8,0.3-1.4,0.8-1.9s1.2-0.8,2-0.8s1.5,0.3,2,0.8
			s0.8,1.1,0.8,1.9c0,0.8-0.3,1.4-0.8,1.9s-1.2,0.8-2,0.8C467.6,153.4,466.9,153.2,466.4,152.7z"/>
		<path d="M504.8,157.3c1.4,1.4,2,3.2,2,5.7v10.6h-4.6v-10c0-1.4-0.4-2.5-1.1-3.2c-0.7-0.7-1.7-1.1-2.9-1.1s-2.2,0.4-2.9,1.1
			c-0.7,0.7-1.1,1.8-1.1,3.2v10h-4.6v-10c0-1.4-0.4-2.5-1.1-3.2c-0.7-0.7-1.7-1.1-2.9-1.1c-1.3,0-2.2,0.4-3,1.1s-1.1,1.8-1.1,3.2v10
			h-4.6v-18h4.6v2.2c0.6-0.8,1.3-1.4,2.3-1.8c0.9-0.4,1.9-0.7,3-0.7c1.4,0,2.7,0.3,3.8,0.9c1.1,0.6,2,1.4,2.6,2.6
			c0.6-1,1.4-1.9,2.6-2.5c1.1-0.6,2.3-0.9,3.6-0.9C501.7,155.3,503.5,156,504.8,157.3z"/>
		<path d="M513.1,159.7c0.7-1.4,1.7-2.5,3-3.3c1.2-0.8,2.6-1.1,4.2-1.1c1.3,0,2.5,0.3,3.5,0.8s1.8,1.2,2.4,2v-2.6h4.6v18h-4.6V171
			c-0.6,0.8-1.4,1.5-2.4,2.1s-2.2,0.8-3.6,0.8c-1.5,0-2.9-0.4-4.1-1.2c-1.2-0.8-2.2-1.9-3-3.3c-0.7-1.4-1.1-3.1-1.1-4.9
			C512,162.7,512.3,161.1,513.1,159.7z M525.5,161.7c-0.4-0.8-1-1.4-1.8-1.8c-0.7-0.4-1.5-0.6-2.4-0.6c-0.8,0-1.6,0.2-2.3,0.6
			c-0.7,0.4-1.3,1-1.7,1.8s-0.7,1.7-0.7,2.8s0.2,2,0.7,2.8c0.4,0.8,1,1.4,1.8,1.9s1.5,0.7,2.3,0.7s1.6-0.2,2.4-0.6
			c0.7-0.4,1.3-1,1.8-1.8c0.4-0.8,0.6-1.7,0.6-2.8C526.2,163.5,525.9,162.5,525.5,161.7z"/>
		<path d="M552.3,157.3c1.3,1.4,2,3.2,2,5.7v10.6h-4.6v-10c0-1.4-0.4-2.5-1.1-3.3c-0.7-0.8-1.7-1.2-2.9-1.2c-1.3,0-2.2,0.4-3,1.2
			s-1.1,1.9-1.1,3.3v10H537v-18h4.6v2.2c0.6-0.8,1.4-1.4,2.3-1.8c0.9-0.4,2-0.7,3.1-0.7C549.3,155.3,551,156,552.3,157.3z"/>
	</g>
</g>
</svg>
