<?xml version="1.0" encoding="utf-8"?>
<!-- Generator: Adobe Illustrator 27.0.0, SVG Export Plug-In . SVG Version: 6.00 Build 0)  -->
<svg version="1.1" id="Layer_1" xmlns="http://www.w3.org/2000/svg" xmlns:xlink="http://www.w3.org/1999/xlink" x="0px" y="0px"
	 viewBox="0 0 144 144" style="enable-background:new 0 0 144 144;" xml:space="preserve">
<style type="text/css">
	.st0{fill:#45A041;}
	.st1{fill:#FFFFFF;}
</style>
<g>
	<g>
		<g>
			<rect class="st0" width="144" height="144"/>
		</g>
		<g>
			<path class="st1" d="M72,114.5c-12.1,0-24.1,0-36.2,0c-3.1,0-4.6-1.4-4.6-4.5c0-3.8,0-7.7,0.2-11.5c0.4-5.2,2.5-9.8,5.2-14.2
				c4.5-7.4,9.1-14.8,13.7-22.2c0.6-0.9,0.8-2.1,0.9-3.2c0.1-1.6,0-3.2,0-4.8c0.1-2.3,1.5-3.8,3.9-3.8c1.6,0,3.1,0,4.7,0
				c2.2,0.1,3.6,1.4,3.8,3.5c0.3,2.8,1.6,4,4.4,4c2.7,0,5.3,0,8,0c2.7,0,4.1-1.2,4.4-3.9c0.3-2.4,1.7-3.6,4.1-3.7c1.5,0,3,0,4.4,0
				c2.4,0.1,3.9,1.6,3.9,4c0,1.6-0.1,3.2,0,4.8c0.1,1,0.3,2.2,0.9,3.1c4.6,7.5,9.1,14.9,13.9,22.3c3.5,5.5,5.5,11.3,5.1,17.9
				c-0.1,2.6,0,5.3,0,8c0,2.8-1.6,4.3-4.4,4.3C96.2,114.5,84.1,114.5,72,114.5C72,114.5,72,114.5,72,114.5z M54.7,88.2
				c0,9.6,7.8,17.4,17.3,17.4c9.6,0,17.3-7.7,17.3-17.2c0-9.6-7.6-17.4-17.2-17.5C62.5,70.9,54.7,78.7,54.7,88.2z"/>
			<path class="st1" d="M72,29.5c12.6,0.1,25.1,1.5,37.3,4.9c6.7,1.9,11.2,6.1,13.3,12.7c0.5,1.7,1,3.5,1.4,5.3
				c0.4,1.6-0.2,2.5-1.8,2.8c-6.7,1.2-13.3,0.8-19.8-1.7c-0.7-0.3-1.4-0.6-2.2-0.9c-1.8-0.5-2.8-1.5-3-3.6c-0.2-1.9-1.7-3.1-3.3-3.9
				c-3.3-1.7-6.9-2.3-10.5-2.7c-8.1-0.8-16.3-0.9-24.4,0.3c-2.8,0.4-5.5,1.2-8.2,2.1c-2.5,0.9-4.4,2.6-4.5,5.6
				c0,0.5-0.6,1.2-1.1,1.5c-7.3,4.1-15,5.8-23.3,3.5C20,55,19.5,54.3,20,52.4c0.8-2.9,1.5-5.8,2.8-8.5c2.2-4.7,6.1-7.8,11.1-9.2
				C46.3,31,59.1,29.5,72,29.5z"/>
			<path class="st1" d="M30,69.7c-1.6-0.2-3.6-0.4-5.5-0.8c-2.5-0.5-4-2.2-4.5-4.7c-0.3-1.5-0.4-3-0.5-4.5c-0.1-1.7,0.5-2.1,2.3-1.7
				c2.3,0.5,4.6,1,6.9,1.1c5.3,0.3,10.3-0.9,15.2-3.2c1.8-0.9,2.6-0.4,2.5,1.7C46.2,64.2,42.8,68,36,69.1
				C34.2,69.4,32.2,69.5,30,69.7z"/>
			<path class="st1" d="M113.7,69c-3.6-0.1-7.2-0.5-10.6-2.1c-4.5-2.2-5.7-6.2-5.7-10.1c0-1.4,1.1-1.8,2.5-1.4
				c2.7,0.9,5.3,1.8,8.1,2.4c4.6,1,9.3,0.8,13.9-0.1c1.7-0.4,2.5,0.2,2.5,2c0,1.1-0.1,2.2-0.3,3.2c-0.6,3.3-2.2,5-5.7,5.5
				C116.9,68.8,115.3,68.9,113.7,69z"/>
			<path class="st1" d="M81.7,88.3c0,5.4-4.3,9.8-9.8,9.8c-5.3,0-9.8-4.5-9.8-9.9c0-5.3,4.4-9.7,9.8-9.7
				C77.4,78.5,81.7,82.9,81.7,88.3z"/>
			<path class="st1" d="M71.9,78c-1.7,0-3-1.5-3-3.2c0-1.6,1.5-3.1,3.1-3c1.6,0,3.1,1.6,3,3.2C75,76.6,73.6,78,71.9,78z"/>
			<path class="st1" d="M62.4,81.7c-1.7,0-3-1.3-3-3.1c0-1.7,1.4-3.1,3.1-3c1.7,0,3.1,1.4,3,3.1C65.4,80.4,64.1,81.8,62.4,81.7z"/>
			<path class="st1" d="M61.3,88.3c0,1.6-1.4,3-3,3c-1.7,0-3.1-1.4-3.1-3.2c0.1-1.6,1.4-3,3.1-2.9C60,85.2,61.4,86.6,61.3,88.3z"/>
			<path class="st1" d="M71.6,98.8c1.7,0,3.1,1.3,3.1,3c0,1.7-1.3,3-2.9,3.1c-1.7,0.1-3.1-1.3-3.2-3C68.6,100.3,69.9,98.9,71.6,98.8
				z"/>
			<path class="st1" d="M81.5,75.9c1.7,0,3.1,1.3,3.1,3c0,1.7-1.3,3-3.1,3c-1.7,0-3-1.3-3-3C78.4,77.3,79.7,75.9,81.5,75.9z"/>
			<path class="st1" d="M85.3,91.6c-1.7,0-3.1-1.5-3-3.1c0.1-1.7,1.4-3,3.2-3c1.6,0,3,1.4,3,3C88.4,90.2,87,91.6,85.3,91.6z"/>
			<path class="st1" d="M81.3,95c1.7,0,3,1.4,3,3.1c0,1.7-1.4,3-3.1,2.9c-1.7,0-2.9-1.3-2.9-3C78.2,96.3,79.6,95,81.3,95z"/>
			<path class="st1" d="M59.1,97.9c0-1.7,1.3-3.1,3-3.1c1.7,0,3.1,1.4,3.1,3.1c0,1.6-1.3,3-3,3C60.5,100.9,59.2,99.6,59.1,97.9z"/>
		</g>
	</g>
</g>
</svg>
