<?xml version="1.0" encoding="utf-8"?>
<!-- Generator: Adobe Illustrator 27.0.0, SVG Export Plug-In . SVG Version: 6.00 Build 0)  -->
<svg version="1.1" id="Layer_1" xmlns="http://www.w3.org/2000/svg" xmlns:xlink="http://www.w3.org/1999/xlink" x="0px" y="0px"
	 viewBox="0 0 144 144" style="enable-background:new 0 0 144 144;" xml:space="preserve">
<style type="text/css">
	.st0{fill:#45A041;}
	.st1{fill:#FFFFFF;}
</style>
<g>
	<g>
		<rect y="0" class="st0" width="144" height="144"/>
		<g>
			<path id="Icon_00000013193119542484365290000015989490401643214759_" class="st1" d="M109.3,51.5c-1.3-7.6-4.4-14.4-9.7-20.1
				c-7-7.7-15.8-11.9-26.2-12.3c-10-0.4-18.8,2.8-26.4,9.4C35.3,38.8,31.1,55.8,36.6,70.5c2.7,7.3,6.8,13.8,11.2,20.1
				c7.8,10.9,16.3,21.3,22.5,33.2c0.8,1.5,2.5,1.4,3.3-0.2c4.3-8,9.6-15.3,15.1-22.5c5.1-6.8,10.5-13.5,14.6-21
				c3.8-7,6.4-14.4,6.3-23C109.9,55.5,109.7,53.5,109.3,51.5z M71.6,76.7C60.6,76.4,52,67.3,52.3,56.3c0.3-10.8,9.4-19.5,20.2-19.2
				c10.8,0.3,19.6,9.4,19.4,20C91.6,68.2,82.6,77,71.6,76.7z"/>
		</g>
	</g>
</g>
</svg>
