<?xml version="1.0" encoding="utf-8"?>
<!-- Generator: Adobe Illustrator 27.0.0, SVG Export Plug-In . SVG Version: 6.00 Build 0)  -->
<svg version="1.1" id="Layer_1" xmlns="http://www.w3.org/2000/svg" xmlns:xlink="http://www.w3.org/1999/xlink" x="0px" y="0px"
	 viewBox="0 0 144 144" style="enable-background:new 0 0 144 144;" xml:space="preserve">
<style type="text/css">
	.st0{fill:#45A041;}
	.st1{fill:#FFFFFF;}
</style>
<g>
	<g>
		<rect class="st0" width="144" height="144"/>
		<g>
			<path class="st1" d="M119.2,99.3c0.2,1.5-0.3,2.9-1.4,4l-13.3,13.2c-0.6,0.7-1.4,1.2-2.4,1.7c-1,0.5-1.9,0.8-2.9,0.9
				c-0.1,0-0.3,0-0.6,0.1c-0.3,0-0.8,0.1-1.3,0.1c-1.3,0-3.3-0.2-6.2-0.7c-2.8-0.4-6.3-1.5-10.4-3.2c-4.1-1.7-8.8-4.3-14-7.7
				c-5.2-3.4-10.7-8.1-16.6-14c-4.7-4.6-8.5-9-11.6-13.2c-3.1-4.2-5.5-8.1-7.4-11.7c-1.9-3.6-3.3-6.8-4.2-9.7
				c-0.9-2.9-1.6-5.4-1.9-7.5c-0.3-2.1-0.5-3.8-0.4-5c0.1-1.2,0.1-1.9,0.1-2c0.1-0.9,0.4-1.9,0.9-2.9c0.5-1,1-1.8,1.7-2.4l13.3-13.3
				c0.9-0.9,2-1.4,3.2-1.4c0.9,0,1.6,0.2,2.3,0.8c0.7,0.5,1.2,1.1,1.7,1.9l10.7,20.3c0.6,1.1,0.8,2.2,0.5,3.5
				c-0.3,1.3-0.8,2.3-1.7,3.2l-4.9,4.9c-0.1,0.1-0.3,0.4-0.4,0.7c-0.1,0.3-0.2,0.6-0.2,0.8c0.3,1.4,0.9,3,1.8,4.8
				c0.8,1.6,2,3.6,3.7,5.9c1.7,2.3,4,5,7.1,8c3,3.1,5.7,5.5,8,7.2c2.3,1.7,4.3,3,5.9,3.8c1.6,0.8,2.8,1.3,3.6,1.5l1.2,0.2
				c0.1,0,0.4-0.1,0.7-0.1c0.3-0.1,0.5-0.2,0.7-0.4l5.7-5.8c1.2-1.1,2.6-1.6,4.2-1.6c1.1,0,2,0.2,2.7,0.6h0.1L116.7,96
				C118.1,96.9,118.9,98,119.2,99.3L119.2,99.3z"/>
		</g>
	</g>
</g>
</svg>
