<?xml version="1.0" encoding="utf-8"?>
<!-- Generator: Adobe Illustrator 27.0.0, SVG Export Plug-In . SVG Version: 6.00 Build 0)  -->
<svg version="1.0" id="Layer_1" xmlns="http://www.w3.org/2000/svg" xmlns:xlink="http://www.w3.org/1999/xlink" x="0px" y="0px"
	 viewBox="0 0 218.82 144" enable-background="new 0 0 218.82 144" xml:space="preserve">
<g>
	<path fill-rule="evenodd" clip-rule="evenodd" d="M58.9,126C21.26,107,5.66,73.76,7.4,29.3c35.02-15.07,67.98-15.07,103,0
		c0.36,9.16-0.02,17.84-1.18,26.02h-4.66c1.11-7.56,1.48-15.26,1.32-22.92c-31.94-13.06-62.03-13.06-93.97,0
		c-0.45,20.71,3.02,41.71,14.44,59.37c8.16,12.62,19.4,22.04,32.54,29.03c13.14-6.99,24.38-16.41,32.54-29.03
		c0.62-0.95,1.21-1.92,1.78-2.89h5.29C90.08,104.35,77.05,116.83,58.9,126"/>
	<path fill-rule="evenodd" clip-rule="evenodd" fill="#32A849" d="M101.31,35.55c-28.81-11.1-56.01-11.1-84.82,0
		c-0.03,18.71,3.46,37.81,13.74,53.73c7.26,11.23,17.13,19.78,28.67,26.28c11.54-6.49,21.41-15.05,28.67-26.28l0.25-0.39h-2.75
		c-6.73,10.09-15.72,17.94-26.16,24.01c-10.74-6.24-19.94-14.37-26.73-24.87c-9.75-15.08-13.2-33.15-13.37-50.89
		C46.02,27,71.78,27,99,37.14c-0.06,6.07-0.5,12.17-1.44,18.19h2.33C100.89,48.79,101.32,42.14,101.31,35.55"/>
	<path fill-rule="evenodd" clip-rule="evenodd" fill="#32A849" d="M57.46,52.3c0.43,0,0.85,0.03,1.27,0.1l0.01-0.01
		c2.2-5.56,5.57-6.89,9.39-6.55c-3.05,1.19-5.75,3.52-6.77,7.44l-0.02,0.03c0.91,0.51,1.72,1.2,2.36,2.01h-6.25v42.88
		c-5.59,0-10.32-5.5-11.96-13.1c-1.31,0.68-3.51,1.83-3.91,2.29c-0.78,0.88-0.24,1.98-0.5,3.2c-0.4,1.86-1.89,3.16-4.22,2.9
		c1.98-1.4,1.64-2.42,1.63-4.19c-0.01-1.55,0.15-2.77,1.56-3.92c1.1-0.9,3.45-2.06,5.02-2.87c-0.12-1.07-0.19-2.16-0.19-3.28
		c0-0.58,0.02-1.15,0.05-1.71h-4.09c-1.82,0-1.13,1.26-1.59,2.68c-0.71,2.15-2.22,2.4-4.31,2.56c0.85-0.97,1.48-1.75,1.86-3.72
		c0.51-2.66,0.72-4.53,4.09-4.53h4.38c0.21-1.25,0.51-2.45,0.87-3.58h-2.78c-2.65,0-3.62-1.29-3.96-3.75
		c-0.36-2.57-1.03-4.35-1.98-5.44c2.26,0.18,3.85,1.39,4.47,4.05c0.31,1.33-0.26,2.12,1.43,2.12h4.04c0.81-1.64,1.79-3.07,2.9-4.25
		c-0.49-1.04-0.77-2.19-0.77-3.41c0-3.01,1.67-5.63,4.14-6.99c-1.02-3.92-3.71-6.24-6.77-7.44c3.83-0.34,7.19,0.99,9.39,6.55
		C56.65,52.33,57.05,52.3,57.46,52.3"/>
	<g>
		<g>
			<path d="M72.86,72.73h-7.35l-1.18,3.48h-5.02l7.12-19.69h5.55l7.12,19.69h-5.08L72.86,72.73z M71.62,69.03l-2.44-7.21l-2.41,7.21
				H71.62z"/>
			<path d="M81.72,61.13c0.84-1.52,2.01-2.71,3.52-3.56c1.5-0.85,3.21-1.28,5.12-1.28c2.34,0,4.34,0.62,6,1.85
				c1.66,1.23,2.78,2.92,3.34,5.05h-5.27c-0.39-0.82-0.95-1.45-1.67-1.88c-0.72-0.43-1.54-0.65-2.45-0.65
				c-1.48,0-2.67,0.51-3.59,1.54c-0.92,1.03-1.37,2.4-1.37,4.12c0,1.72,0.46,3.1,1.37,4.12C87.63,71.49,88.83,72,90.3,72
				c0.92,0,1.73-0.21,2.45-0.65c0.72-0.43,1.28-1.06,1.67-1.88h5.27c-0.56,2.13-1.67,3.81-3.34,5.03c-1.66,1.22-3.67,1.84-6,1.84
				c-1.91,0-3.61-0.43-5.12-1.28c-1.51-0.85-2.68-2.03-3.52-3.55c-0.84-1.51-1.26-3.24-1.26-5.19
				C80.46,64.39,80.88,62.66,81.72,61.13z"/>
			<path d="M103.09,61.13c0.84-1.52,2.01-2.71,3.52-3.56c1.5-0.85,3.21-1.28,5.12-1.28c2.34,0,4.34,0.62,6,1.85
				c1.66,1.23,2.78,2.92,3.34,5.05h-5.27c-0.39-0.82-0.95-1.45-1.67-1.88c-0.72-0.43-1.54-0.65-2.45-0.65
				c-1.48,0-2.67,0.51-3.59,1.54c-0.92,1.03-1.37,2.4-1.37,4.12c0,1.72,0.46,3.1,1.37,4.12C109,71.49,110.2,72,111.68,72
				c0.92,0,1.73-0.21,2.45-0.65c0.72-0.43,1.28-1.06,1.67-1.88h5.27c-0.56,2.13-1.67,3.81-3.34,5.03c-1.66,1.22-3.67,1.84-6,1.84
				c-1.91,0-3.61-0.43-5.12-1.28c-1.51-0.85-2.68-2.03-3.52-3.55c-0.84-1.51-1.26-3.24-1.26-5.19
				C101.83,64.39,102.25,62.66,103.09,61.13z"/>
			<path d="M128.73,56.52V68.3c0,1.18,0.29,2.09,0.87,2.72c0.58,0.64,1.43,0.95,2.55,0.95c1.12,0,1.98-0.32,2.58-0.95
				c0.6-0.64,0.9-1.54,0.9-2.72V56.52h4.8v11.75c0,1.76-0.37,3.24-1.12,4.46c-0.75,1.22-1.75,2.13-3.02,2.75
				c-1.26,0.62-2.67,0.93-4.22,0.93c-1.55,0-2.94-0.3-4.17-0.91c-1.22-0.61-2.19-1.52-2.9-2.75c-0.71-1.22-1.07-2.72-1.07-4.47
				V56.52H128.73z"/>
			<path d="M153.84,76.21l-4.09-7.43h-1.15v7.43h-4.8V56.52h8.05c1.55,0,2.88,0.27,3.97,0.81c1.09,0.54,1.91,1.29,2.45,2.23
				c0.54,0.94,0.81,2,0.81,3.16c0,1.31-0.37,2.48-1.11,3.51c-0.74,1.03-1.83,1.76-3.27,2.19l4.54,7.8H153.84z M148.59,65.38h2.97
				c0.88,0,1.54-0.21,1.98-0.65c0.44-0.43,0.66-1.04,0.66-1.82c0-0.75-0.22-1.34-0.66-1.77c-0.44-0.43-1.1-0.65-1.98-0.65h-2.97
				V65.38z"/>
			<path d="M174.34,72.73h-7.35l-1.18,3.48h-5.02l7.12-19.69h5.55l7.12,19.69h-5.08L174.34,72.73z M173.11,69.03l-2.44-7.21
				l-2.41,7.21H173.11z"/>
			<path d="M196.92,56.52v3.84h-5.22v15.85h-4.8V60.36h-5.22v-3.84H196.92z"/>
			<path d="M204.13,60.36v3.98h6.42v3.7h-6.42v4.32h7.26v3.84h-12.06V56.52h12.06v3.84H204.13z"/>
		</g>
		<g>
			<path fill="#32A849" d="M64.33,82.82c-0.18,0.33-0.47,0.6-0.85,0.81c-0.38,0.2-0.86,0.31-1.43,0.31H61v2.5h-1.69v-6.95h2.74
				c0.55,0,1.02,0.1,1.41,0.29c0.38,0.19,0.67,0.46,0.86,0.79c0.19,0.34,0.29,0.72,0.29,1.16C64.61,82.12,64.51,82.48,64.33,82.82z
				 M62.65,82.36c0.16-0.15,0.24-0.37,0.24-0.64s-0.08-0.49-0.24-0.64s-0.4-0.23-0.72-0.23H61v1.74h0.92
				C62.25,82.58,62.49,82.51,62.65,82.36z"/>
			<path fill="#32A849" d="M67.68,80.83v1.41h2.27v1.31h-2.27v1.52h2.56v1.36h-4.26v-6.95h4.26v1.36H67.68z"/>
			<path fill="#32A849" d="M72.98,86.25c-0.4-0.17-0.72-0.41-0.97-0.73c-0.24-0.32-0.37-0.71-0.38-1.17h1.8
				c0.03,0.26,0.12,0.45,0.27,0.59c0.15,0.14,0.35,0.2,0.59,0.2c0.25,0,0.45-0.06,0.59-0.17c0.15-0.12,0.22-0.28,0.22-0.48
				c0-0.17-0.06-0.31-0.17-0.43c-0.12-0.11-0.26-0.2-0.43-0.28c-0.17-0.07-0.41-0.16-0.72-0.25c-0.45-0.14-0.82-0.28-1.1-0.42
				c-0.28-0.14-0.53-0.34-0.73-0.61c-0.2-0.27-0.31-0.62-0.31-1.06c0-0.65,0.23-1.15,0.7-1.52c0.47-0.37,1.08-0.55,1.83-0.55
				c0.77,0,1.38,0.18,1.85,0.55c0.47,0.37,0.72,0.88,0.75,1.53h-1.83c-0.01-0.22-0.1-0.4-0.25-0.53c-0.15-0.13-0.35-0.19-0.58-0.19
				c-0.2,0-0.37,0.05-0.5,0.16s-0.19,0.27-0.19,0.47c0,0.22,0.11,0.4,0.32,0.52c0.21,0.13,0.54,0.26,0.99,0.41
				c0.45,0.15,0.81,0.3,1.09,0.44c0.28,0.14,0.52,0.34,0.73,0.6c0.2,0.26,0.31,0.6,0.31,1.02c0,0.4-0.1,0.76-0.3,1.08
				c-0.2,0.32-0.49,0.58-0.88,0.77c-0.38,0.19-0.84,0.29-1.36,0.29C73.84,86.5,73.39,86.41,72.98,86.25z"/>
			<path fill="#32A849" d="M83.42,79.48v1.36h-1.84v5.59h-1.69v-5.59h-1.84v-1.36H83.42z"/>
			<path fill="#32A849" d="M87.52,81.1c0.3-0.54,0.71-0.96,1.24-1.26c0.53-0.3,1.13-0.45,1.81-0.45c0.83,0,1.53,0.22,2.12,0.65
				c0.59,0.44,0.98,1.03,1.18,1.78h-1.86c-0.14-0.29-0.34-0.51-0.59-0.66c-0.25-0.15-0.54-0.23-0.87-0.23
				c-0.52,0-0.94,0.18-1.27,0.55c-0.32,0.36-0.49,0.85-0.49,1.46c0,0.61,0.16,1.09,0.49,1.46c0.32,0.36,0.75,0.54,1.27,0.54
				c0.32,0,0.61-0.08,0.87-0.23c0.25-0.15,0.45-0.37,0.59-0.66h1.86c-0.2,0.75-0.59,1.35-1.18,1.78c-0.59,0.43-1.29,0.65-2.12,0.65
				c-0.67,0-1.28-0.15-1.81-0.45c-0.53-0.3-0.95-0.72-1.24-1.25c-0.3-0.53-0.45-1.15-0.45-1.83C87.07,82.25,87.22,81.64,87.52,81.1z
				"/>
			<path fill="#32A849" d="M96.89,86.04c-0.54-0.3-0.98-0.73-1.3-1.27c-0.32-0.55-0.48-1.16-0.48-1.84c0-0.68,0.16-1.29,0.48-1.83
				c0.32-0.54,0.75-0.96,1.3-1.27c0.54-0.3,1.14-0.46,1.8-0.46s1.25,0.15,1.8,0.46c0.54,0.3,0.97,0.73,1.29,1.27
				c0.31,0.54,0.47,1.15,0.47,1.83c0,0.68-0.16,1.29-0.48,1.84c-0.32,0.54-0.75,0.97-1.29,1.27c-0.54,0.3-1.14,0.46-1.79,0.46
				S97.44,86.34,96.89,86.04z M100.02,84.4c0.33-0.37,0.5-0.86,0.5-1.47c0-0.61-0.17-1.1-0.5-1.47c-0.33-0.37-0.78-0.55-1.33-0.55
				c-0.56,0-1.01,0.18-1.34,0.54c-0.33,0.36-0.5,0.86-0.5,1.48c0,0.61,0.17,1.1,0.5,1.47c0.33,0.37,0.78,0.55,1.34,0.55
				C99.24,84.95,99.69,84.77,100.02,84.4z"/>
			<path fill="#32A849" d="M109.9,86.43h-1.69l-2.83-4.29v4.29h-1.69v-6.95h1.69l2.83,4.31v-4.31h1.69V86.43z"/>
			<path fill="#32A849" d="M116.62,79.48v1.36h-1.84v5.59h-1.69v-5.59h-1.84v-1.36H116.62z"/>
			<path fill="#32A849" d="M121.52,86.43l-1.45-2.62h-0.41v2.62h-1.69v-6.95h2.84c0.55,0,1.02,0.1,1.4,0.29
				c0.39,0.19,0.67,0.45,0.87,0.79c0.19,0.33,0.29,0.7,0.29,1.11c0,0.46-0.13,0.87-0.39,1.24c-0.26,0.36-0.65,0.62-1.15,0.77
				l1.6,2.75H121.52z M119.66,82.6h1.05c0.31,0,0.54-0.08,0.7-0.23c0.16-0.15,0.23-0.37,0.23-0.64c0-0.26-0.08-0.47-0.23-0.62
				c-0.16-0.15-0.39-0.23-0.7-0.23h-1.05V82.6z"/>
			<path fill="#32A849" d="M126.41,86.04c-0.54-0.3-0.98-0.73-1.3-1.27c-0.32-0.55-0.48-1.16-0.48-1.84c0-0.68,0.16-1.29,0.48-1.83
				c0.32-0.54,0.75-0.96,1.3-1.27c0.54-0.3,1.14-0.46,1.8-0.46c0.65,0,1.25,0.15,1.8,0.46c0.54,0.3,0.97,0.73,1.29,1.27
				c0.31,0.54,0.47,1.15,0.47,1.83c0,0.68-0.16,1.29-0.48,1.84c-0.32,0.54-0.75,0.97-1.29,1.27c-0.54,0.3-1.14,0.46-1.79,0.46
				C127.56,86.5,126.96,86.34,126.41,86.04z M129.54,84.4c0.33-0.37,0.5-0.86,0.5-1.47c0-0.61-0.17-1.1-0.5-1.47
				c-0.33-0.37-0.78-0.55-1.33-0.55c-0.56,0-1.01,0.18-1.34,0.54c-0.33,0.36-0.5,0.86-0.5,1.48c0,0.61,0.17,1.1,0.5,1.47
				c0.33,0.37,0.78,0.55,1.34,0.55C128.76,84.95,129.21,84.77,129.54,84.4z"/>
			<path fill="#32A849" d="M134.89,85.12h2.22v1.31h-3.91v-6.95h1.69V85.12z"/>
			<path fill="#32A849" d="M142.16,86.25c-0.4-0.17-0.72-0.41-0.97-0.73c-0.24-0.32-0.37-0.71-0.38-1.17h1.8
				c0.03,0.26,0.12,0.45,0.27,0.59c0.15,0.14,0.35,0.2,0.59,0.2c0.25,0,0.45-0.06,0.59-0.17c0.15-0.12,0.22-0.28,0.22-0.48
				c0-0.17-0.06-0.31-0.17-0.43c-0.12-0.11-0.26-0.2-0.43-0.28c-0.17-0.07-0.41-0.16-0.72-0.25c-0.45-0.14-0.82-0.28-1.1-0.42
				c-0.28-0.14-0.53-0.34-0.73-0.61s-0.31-0.62-0.31-1.06c0-0.65,0.23-1.15,0.7-1.52c0.47-0.37,1.08-0.55,1.83-0.55
				c0.77,0,1.38,0.18,1.85,0.55c0.47,0.37,0.72,0.88,0.75,1.53h-1.83c-0.01-0.22-0.1-0.4-0.25-0.53c-0.15-0.13-0.35-0.19-0.58-0.19
				c-0.2,0-0.37,0.05-0.5,0.16c-0.13,0.11-0.19,0.27-0.19,0.47c0,0.22,0.11,0.4,0.32,0.52c0.21,0.13,0.54,0.26,0.99,0.41
				c0.45,0.15,0.81,0.3,1.09,0.44c0.28,0.14,0.52,0.34,0.73,0.6c0.2,0.26,0.31,0.6,0.31,1.02c0,0.4-0.1,0.76-0.3,1.08
				c-0.2,0.32-0.49,0.58-0.88,0.77c-0.38,0.19-0.84,0.29-1.36,0.29C143.02,86.5,142.56,86.41,142.16,86.25z"/>
			<path fill="#32A849" d="M149.29,80.83v1.41h2.27v1.31h-2.27v1.52h2.56v1.36h-4.26v-6.95h4.26v1.36H149.29z"/>
			<path fill="#32A849" d="M157,86.43l-1.45-2.62h-0.41v2.62h-1.69v-6.95h2.84c0.55,0,1.02,0.1,1.4,0.29
				c0.39,0.19,0.67,0.45,0.87,0.79c0.19,0.33,0.29,0.7,0.29,1.11c0,0.46-0.13,0.87-0.39,1.24c-0.26,0.36-0.65,0.62-1.15,0.77
				l1.6,2.75H157z M155.14,82.6h1.05c0.31,0,0.54-0.08,0.7-0.23c0.16-0.15,0.23-0.37,0.23-0.64c0-0.26-0.08-0.47-0.23-0.62
				c-0.16-0.15-0.39-0.23-0.7-0.23h-1.05V82.6z"/>
			<path fill="#32A849" d="M166.93,79.48l-2.47,6.95h-2.12l-2.47-6.95h1.8l1.72,5.25l1.73-5.25H166.93z"/>
			<path fill="#32A849" d="M169.82,79.48v6.95h-1.69v-6.95H169.82z"/>
			<path fill="#32A849" d="M171.7,81.1c0.3-0.54,0.71-0.96,1.24-1.26c0.53-0.3,1.13-0.45,1.81-0.45c0.83,0,1.53,0.22,2.12,0.65
				c0.59,0.44,0.98,1.03,1.18,1.78h-1.86c-0.14-0.29-0.34-0.51-0.59-0.66c-0.25-0.15-0.54-0.23-0.87-0.23
				c-0.52,0-0.94,0.18-1.27,0.55c-0.32,0.36-0.49,0.85-0.49,1.46c0,0.61,0.16,1.09,0.49,1.46c0.32,0.36,0.75,0.54,1.27,0.54
				c0.32,0,0.61-0.08,0.87-0.23c0.25-0.15,0.45-0.37,0.59-0.66h1.86c-0.2,0.75-0.59,1.35-1.18,1.78c-0.59,0.43-1.29,0.65-2.12,0.65
				c-0.67,0-1.28-0.15-1.81-0.45c-0.53-0.3-0.95-0.72-1.24-1.25c-0.3-0.53-0.45-1.15-0.45-1.83C171.25,82.25,171.4,81.64,171.7,81.1
				z"/>
			<path fill="#32A849" d="M181.28,80.83v1.41h2.27v1.31h-2.27v1.52h2.56v1.36h-4.26v-6.95h4.26v1.36H181.28z"/>
			<path fill="#32A849" d="M186.58,86.25c-0.4-0.17-0.72-0.41-0.97-0.73c-0.24-0.32-0.37-0.71-0.38-1.17h1.8
				c0.03,0.26,0.12,0.45,0.27,0.59c0.15,0.14,0.35,0.2,0.59,0.2c0.25,0,0.45-0.06,0.59-0.17c0.15-0.12,0.22-0.28,0.22-0.48
				c0-0.17-0.06-0.31-0.17-0.43c-0.12-0.11-0.26-0.2-0.43-0.28c-0.17-0.07-0.41-0.16-0.72-0.25c-0.45-0.14-0.82-0.28-1.1-0.42
				c-0.28-0.14-0.53-0.34-0.73-0.61s-0.31-0.62-0.31-1.06c0-0.65,0.23-1.15,0.7-1.52c0.47-0.37,1.08-0.55,1.83-0.55
				c0.77,0,1.38,0.18,1.85,0.55c0.47,0.37,0.72,0.88,0.75,1.53h-1.83c-0.01-0.22-0.1-0.4-0.25-0.53c-0.15-0.13-0.35-0.19-0.58-0.19
				c-0.2,0-0.37,0.05-0.5,0.16c-0.13,0.11-0.19,0.27-0.19,0.47c0,0.22,0.11,0.4,0.32,0.52c0.21,0.13,0.54,0.26,0.99,0.41
				c0.45,0.15,0.81,0.3,1.09,0.44c0.28,0.14,0.52,0.34,0.73,0.6c0.2,0.26,0.31,0.6,0.31,1.02c0,0.4-0.1,0.76-0.3,1.08
				c-0.2,0.32-0.49,0.58-0.88,0.77c-0.38,0.19-0.84,0.29-1.36,0.29C187.44,86.5,186.99,86.41,186.58,86.25z"/>
			<path fill="#32A849" d="M196.31,85.12h2.22v1.31h-3.91v-6.95h1.69V85.12z"/>
			<path fill="#32A849" d="M201.53,85.12h2.22v1.31h-3.91v-6.95h1.69V85.12z"/>
			<path fill="#32A849" d="M205.21,81.1c0.3-0.54,0.71-0.96,1.24-1.26c0.53-0.3,1.13-0.45,1.81-0.45c0.83,0,1.53,0.22,2.12,0.65
				c0.59,0.44,0.98,1.03,1.18,1.78h-1.86c-0.14-0.29-0.34-0.51-0.59-0.66c-0.25-0.15-0.54-0.23-0.87-0.23
				c-0.52,0-0.94,0.18-1.27,0.55c-0.32,0.36-0.49,0.85-0.49,1.46c0,0.61,0.16,1.09,0.49,1.46c0.32,0.36,0.75,0.54,1.27,0.54
				c0.32,0,0.61-0.08,0.87-0.23c0.25-0.15,0.45-0.37,0.59-0.66h1.86c-0.2,0.75-0.59,1.35-1.18,1.78c-0.59,0.43-1.29,0.65-2.12,0.65
				c-0.67,0-1.28-0.15-1.81-0.45c-0.53-0.3-0.95-0.72-1.24-1.25c-0.3-0.53-0.45-1.15-0.45-1.83
				C204.76,82.25,204.91,81.64,205.21,81.1z"/>
		</g>
	</g>
</g>
</svg>
