<?xml version="1.0" encoding="utf-8"?>
<!-- Generator: Adobe Illustrator 27.0.0, SVG Export Plug-In . SVG Version: 6.00 Build 0)  -->
<svg version="1.1" id="Layer_1" xmlns="http://www.w3.org/2000/svg" xmlns:xlink="http://www.w3.org/1999/xlink" x="0px" y="0px"
	 viewBox="0 0 1017.7 987" style="enable-background:new 0 0 1017.7 987;" xml:space="preserve">
<style type="text/css">
	.st0{fill:none;}
	.st1{fill:#32A849;}
</style>
<g>
	<g>
		<path d="M658.9,737.4c-1-21.4-1.9-42.8-3-66.2c-40.7,0-81,0-123.2,0c-0.7-11-1.3-20.1-2-30.6c-9.4,0-18.6,0-29,0
			c0,19.5,0,38.8,0,59.7c9,0.8,18.2,1.6,28.5,2.5c0,9.8,0,19,0,30.3c-19.6,0-39,0-59.4,0c-1,11.2-1.8,20.3-2.9,32.2
			c-11.3,0-21.9,0-32.4,0l0.6,0.4c0.5-6.9,1.3-13.9,1.4-20.8c0.1-40,0.4-80.1-0.3-120.1c-0.2-12.4,3.5-20,16.2-20
			c9.5,0,19,2.8,28.4,2.9c26.4,0.4,52.7,0.2,79.8,0.2c0.8,11.3,1.5,20.5,2.2,29.7c21.5,0,41.3,0,61.1,0c0-10.4,0-19,0-28.3
			c-10.2-1-19.5-1.9-28.3-2.7c-4.5-29.1-2.2-31.9,24-31.9c16.5,0,33,0,49.6,0c26.4,0,52.8,0,79.9,0c0.9,12.4,1.6,22.2,2.4,32.4
			c10.6,0.7,19.3,1.3,28.8,2c0.9,10,1.7,19.2,2.5,29.1c10.1,0.8,19.3,1.6,29,2.4c0.7,10.5,1.4,19.7,2.1,30.7c21.1,0,40.4,0,59.6,0
			c0,11.2,0,20.4,0,29.4c-10.3,0.8-19,1.5-28.3,2.3c0,10.3,0,19.4,0,30.7c20.8,0,40.1,0,60.4,0c0.9,12.2,1.6,22.2,2.3,32.2l0.6-0.5
			c-20.8,0-41.6,0-63.5,0c0,10.2,0,18.8,0,29.7c9,0.6,18.2,1.1,28.7,1.8c0,9.8,0,18.9,0,29.1c-61.7,0-122.9,0-186,0
			c0-30.4,0-60,0-93.5c-11.5,1.7-20.7,3.1-30,4.4L658.9,737.4z M686.7,640.6c0.9,9.2,1.7,18.4,2.7,28.6c9.7,0,18.7,0,28.9,0
			c0-9.9,0-18.9,0-30.3c-11.4,0.8-21.8,1.5-32.2,2.2c0.8-10.3,1.6-20.7,2.5-32.1c-11.5,0-20.6,0-30.5,0c0,10.1,0,19.1,0,28.9
			C668.2,638.9,677.4,639.8,686.7,640.6z M812.6,795.1c0-31.9,0-61.5,0-93.4c-28.8,0-56.6-0.2-84.4,0.3c-2.9,0.1-8.2,4.9-8.3,7.6
			c-0.6,28.4-0.4,56.7-0.4,85.4C751.9,795.1,781.5,795.1,812.6,795.1z"/>
		<path d="M405.2,197.2c10,0,20.1,0,31.3,0c0-30.4,0-60,0-91.6c-9.8-0.7-19.5-1.4-30.6-2.2c-0.6-10.6-1.2-20.5-1.8-31.5
			c-9.6-0.6-18.2-1.2-28.7-1.8c0-9.1,0-18.2,0-28.9c29.9,0,60.6,0,93.4,0c0,20.1,0,40.1,0,61.8c11.1,0.8,20.3,1.5,30.3,2.3
			c1.1,10.9,2.1,21.4,3.2,32c-10.4-0.6-20.8-1.1-31.8-1.7c0,11.4,0,20.5,0,30c10.3,0,19.3,0,29,0c0.8-10.4,1.5-19.6,2.2-28.8
			c8.8-0.6,17.6-1.3,28.5-2c0.8-8.9,1.5-18,2.5-29.3c8.9-0.6,18-1.2,29-1.9c0.6-10.4,1.2-20.2,1.9-31.5c9.9-0.7,19.1-1.4,29.8-2.1
			c0.8-9.4,1.5-18.6,2.4-29c30.1,0,59.7,0,90.9,0c0,9,0,18.1,0,29.3c-19.1,0-38.4,0-61.1,0c1.1,13.8,2,25.4,2.9,37
			c-10.8-1-21.6-2-34.1-3.2c0.6,12.6,1,21.6,1.4,30.2c11.2,0,20.1,0,28.9,0c1.3-10.2,2.4-18.7,3.5-27.3c9.1-0.9,18.1-1.9,28.8-3
			c0,22.6,0,42.7,0,62.8l0.6-0.5c-9.9,0.5-19.7,1-30.2,1.5c-0.9,10.4-1.7,19.5-2.5,29c-21.7,0-42.2,0-62.8,0c0-9.3,0-18.6,0-28.6
			c-10.6,0-19.7,0-29,0c0,10.5,0,19.6,0,30.4c10.8-0.9,20.2-1.6,29.5-2.3c-0.8,12.3-1.5,24.6-2.3,36.9l0.3-0.3c-9.2-1-18.4-2-27.7-3
			c0,22.6,0,41.8,0,63.3c20.9,0,40.6,0,60.2,0c1.4,11.5,2.5,20.8,3.6,30c-52.2,0-104.4,0-159.2,0c0,22.1,0,41.9,0,62.6
			c-12.4,0.7-22.4,1.3-32.3,1.8l0.6,0.6c0-21,0-42,0-63.5c-12.5-0.8-21.8-1.4-31-2l0.5,0.5c0-10.3,0-20.7,0.1-31l-0.6,0.5
			c20.5,0,41.1,0,63.7,0c-1.1-22.7-2-42.1-2.9-61.5c11.6,0.1,23.2,0.3,34.8,0.4c0,19.9,0,39.8,0,59.2c11.2,0,20.2,0,28.8,0
			c0-20.9,0-40.2,0-61.4c-10.8,1-20,1.8-29.2,2.6c-1.6-37-1.6-37-31-31.7c-1,10.2-2.1,20.7-3.1,31.2c-10.2,0.1-20.4,0.1-30.6,0.2
			c0.2-11.7,0.3-23.4,0.5-35L405.2,197.2z"/>
		<path d="M717.7,292.7c52,0,103.9,0,156.9,0c1,10.4,2,19.6,3,29.8c20.2,0,39.6,0,60.4,0c0.7-9.6,1.4-18.8,2.2-29
			c9.4,0,18.1,0,28.4,0c0,40.4,0,81.2,0,123.5c-8.7,0.6-17.4,1.2-27.7,1.9c0,9,0,18.1,0,29.2c8.3,0.6,17.5,1.3,28,2.1
			c0,30.7,0,60.7,0,92.2c-9.4,0.8-18.6,1.5-28.7,2.4c0,9.5,0,18.2,0,28.8c9,0.6,18.2,1.3,28.7,2.1c0,62.3,0,124.2,0,188.2
			c-9.7,0.5-19.6,1-29.5,1.5l0.5,0.6c0-31.3,0-62.6,0-94.2c-12.7-1-21.8-1.7-31-2.4c0-11.1,0-20.4,0-29.8c9.8-0.4,19.7-0.9,29.1-1.3
			c0-11,0-19.6,0-30.4c-10.5,0.6-19.8,1.1-29.1,1.7c0-32.1,0-64.2,0-96.4c10.8-0.8,19.5-1.4,29.1-2.2c0-10.2,0-19.3,0-29.1
			c-10.3,0-19.4,0-29,0c-0.9,10.5-1.7,19.6-2.7,30.9c-20.8,0-40.2,0-60.3,0c-1,11.3-1.8,20.4-2.5,29.3c-10.8,0-19.8,0-29,0
			c-0.7-10.3-1.2-19.1-1.9-28.4c-10.3-1-19.5-1.8-29.1-2.7c-0.8-10.3-1.5-19.5-2.3-29.2c-10.8-1-19.9-1.8-28.9-2.5
			c0-10.6,0-19.2,0-29.7c51.7,0,102.3,0,155.6,0c0-21.7,0-41.7,0-61.3c11.9-1.1,21.1-2,30.2-2.8c0-10.7,0-19.4,0-28.9
			c-52.1,0-103.1,0-156.1,0c0,20.8,0,40.2,0,60.2c-11,0-20.1,0-31.5,0c0-31.6,0-61.8,0-93.5c-12.5,0-22.6,0-32.7,0
			c0.2-10.3,0.4-20.7,0.6-31L717.7,292.7z"/>
		<path d="M374.8,136.2c9.3,0,18.5,0,30.4,0c0,21.2,0,41.1,0,61l0.5-0.6c-3,0.4-6.1,1.2-9.1,1.3c-24.2,0.9-24.3,0.9-22.9,25
			c0.2,3,1.1,6,1.6,9.1c-10.8-0.6-21.5-1.3-33.9-2c0.6,12.6,1,21.5,1.4,31.8c12.4,0,22.4,0,32.4,0c-0.2,10.3-0.4,20.6-0.6,31
			l0.6-0.5c-10.5,0-20.9,0-31.3,0c-1.9,11.4-3.4,20.5-4.8,29.5c-9,1.2-18.1,2.3-27.4,3.5c0,9.9,0,18.9,0,28.4c10.3,0,19.3,0,31,0
			c-1.4-11.9-2.7-22.1-3.9-32.3c12.1,0.6,24.3,1.2,36.4,1.8l-0.5-0.5c0,20.7,0,41.3,0,62.8c11.2,1,21.1,1.8,31,2.6l-0.6-0.6
			c-0.5,30.6-1.1,61.1-1.6,91.4c-12.6,0-20.5,0-30.3,0c0-20.7,0-40,0-59.4c-21.9,0-41.7,0-62.1,0c0,20.5,0,39.4,0,58.4
			c0,0.1,0.4-0.5,0.4-0.5c-10.7,0.7-21.4,1.4-32.1,2c0-9.7,0-19.4,0-30.5c-12,0-21.2,0-30.5,0c0-9.8,0-19.7,0-30.2
			c11.2-0.7,20.4-1.2,29.1-1.8c0-11,0-20,0-29.3c-10.2-0.7-18.8-1.4-28.6-2.1c0-11.6,0-22.1,0-32.6l-0.6,0.6
			c9.7,0.4,19.5,0.9,29.4,1.3c0-11.9,0-20.9,0-30.6c-10.6-0.6-20-1.2-29.3-1.8l0.5,0.4c0-9.4,0-18.8,0-30.2c19.7,0,39.1,0,60.9,0
			c0-53,0-104.1,0-156.7c11.7,0,21.1,0,30.4,0l-0.4-0.5c1,9.8,2,19.5,3,30.2c9.9,0,19,0,28.9,0c1.1-10.6,2-20.4,3-30.2L374.8,136.2z
			"/>
		<path d="M278.8,40.6c0,74,0,145.7,0,219c-72.4,0-144.3,0-217.6,0c0-72.7,0-145.4,0-219C133.9,40.6,205.4,40.6,278.8,40.6z
			 M246.8,228.7c0-53.3,0-104.9,0-156.3c-52.4,0-103.3,0-154.2,0c0,52.8,0,104,0,156.3C144.1,228.7,194.6,228.7,246.8,228.7z"/>
		<path d="M61,734.5c73.3,0,144.7,0,217.2,0c0,72.5,0,144,0,216.8c-72.3,0-144.2,0-217.2,0C61,879.4,61,808,61,734.5z M246.8,920.4
			c0-53.1,0-103.6,0-154.5c-52,0-102.5,0-153.8,0c0,52.1,0,103.1,0,154.5C144.9,920.4,195.4,920.4,246.8,920.4z"/>
		<path d="M969.2,40.8c0,73.9,0,146,0,219.3c-72.4,0-143.7,0-216.6,0c0-73.1,0-145.6,0-219.3C824.8,40.8,896.2,40.8,969.2,40.8z
			 M938.6,72.1c-52.6,0-103.5,0-154.7,0c0,52.9,0,104.5,0,156.1c52.3,0,103.3,0,154.7,0C938.6,175.8,938.6,125.1,938.6,72.1z"/>
		<path d="M470.5,891.2c-10,0-20.1,0-32.2,0c0,19.9,0,39.2,0,60c-42.9,0-83.8,0-126.3,0c0-8.5,0-17.6,0-28.5
			c8.7-0.6,17.8-1.3,28.9-2c0-19.9,0-39.3,0-60.7c10.9-0.9,20-1.7,30.8-2.6c1.2-10.6,2.4-20.9,3.6-31.3l-0.7,0.7
			c9.7,0,19.5,0,29.1,0c0-11.7,0-20.3,0-31c-10.4,0-19.7,0-29.1,0l0.6,0.6c0-10.3-0.1-20.7-0.1-31l-0.5,0.4c20.5,0,40.9,0,61.4,0
			l-0.6-0.4c0,30.1,0,60.1,0,91.9c14.2,0,24.6,0,35.1,0l-0.5-0.4c0,11.6,0,23.3,0,34.9L470.5,891.2z"/>
		<path d="M716.3,893.3c21.2-1.4,42.5-2.7,64.7-4.1c1.1,12.2,1.9,21.4,2.7,31.5c9.7,0,18.3,0,28.8,0c0.6-9.4,1.2-18.6,1.9-29
			c9.7-0.8,18.9-1.6,28.9-2.5c0.9-9.9,1.7-19.1,2.7-29.4c41.2,0,81.5,0,123,0c0,20.2,0,39.6,0,60.7c-9.3,0.7-18.4,1.4-28.8,2.1
			c-0.6,9.3-1.2,18-1.9,28.4c-9,0-18.1,0-30,0c0-18.9,0-38.8,0-59.6c-11.5,0-20.1,0-30.9,0c-0.8,9.3-1.6,18.4-2.5,29.1
			c-9.5,0.7-18.7,1.4-29.1,2.1c-0.7,9.8-1.4,19-2.2,29.1c-41.2,0-81.5,0-122.5,0c-1.5-20.1-3-39.4-4.5-58.7L716.3,893.3z"/>
		<path d="M153.7,543.9c-9.4,0-18.7,0-30.4,0c0-33,0-64.3,0-95.5l-0.6,0.6c9.9,0,19.8,0,29.7,0c0-11.7,0-20.8,0-31
			c-10.8,0-20.3,0-29.7,0l0.6,0.6c0-9.9,0-19.8,0-30.7c10.3-0.9,19.4-1.6,29.5-2.5c0.7-9.9,1.3-19.1,2.1-32c21.5,0,42.7,0,63.8,0
			l-0.5-0.3c-0.5,6.2-1.2,12.4-1.4,18.7c-0.8,25.7-1.5,51.5-2.2,77.2c-9.2,0-18.3,0-31,0c0,23,0,44,0,65.1l0.6-0.6
			c-9.6-0.4-19.3-0.9-31.1-1.4c0,12.7,0,22.6,0,32.5L153.7,543.9z"/>
		<path d="M500.5,857.2c30.3,0,60.6,0,92.3,0c1-9.6,2-18.8,3.1-29c9.3,0,17.9,0,28.7,0c0.7,8.9,1.5,18.1,2.4,28.9
			c9.2,0.9,18.3,1.7,28.8,2.7c0,9.7,0,18.8,0,30.1c-19.5,0-38.9,0-59.7,0c-1.1,11-2,20.1-3,30.5c-19.9,0-39.2,0-60.4,0
			c-0.6-9.1-1.2-18.3-2-29.1c-10.4,0-20.2,0-30.1,0l0.5,0.5c0-11.7,0-23.4,0-35.1L500.5,857.2z"/>
		<path d="M658.6,736.9c-0.9,8.6-1.8,17.3-2.7,26.9c-9.3,0.6-18.1,1.2-28.9,1.8c-0.6,9.1-1.2,18.2-1.9,28.9c-9.6,0-18.6,0-29.2,0
			c-0.9-9.2-1.8-18.4-2.7-28.5c-9.8-0.8-19-1.6-30.4-2.5c0-17.6-0.6-34.6,0.5-51.5c0.2-3.7,6.3-9.7,9.9-9.9
			c16.9-1.1,33.9-0.5,51.9-0.5c0.6,10.9,1.1,19.6,1.6,28.9c10.8,2.3,21.5,4.5,32.3,6.8C658.9,737.4,658.6,736.9,658.6,736.9z"/>
		<path d="M184.1,669.8c-9.4,0.5-18.7,0.9-29.1,1.4c-0.8,10-1.5,19.2-2.2,29.3c-30.4,0-60,0-91.2,0c0-9,0-18.1,0-29.6
			c19.3,0,39.1,0,60.8,0c0-21.7,0-41,0-63c11.7,0.6,21.5,1,31.3,1.5l-0.5-0.6c0.5,9.8,1.1,19.6,1.6,29.7c11,0.6,20.1,1.1,30.4,1.7
			c-0.6,11.4-1.1,20.8-1.6,30.1L184.1,669.8z"/>
		<path d="M470.5,857.2c0-19.5,0-39.1,0-60c9.5-0.8,18.7-1.5,29-2.3c0.6-9.4,1.1-18.1,1.8-28.4c9,0,18.1,0,29.2,0
			c0.5,8.4,1.1,17.6,1.8,28.3c9.6,0.7,18.8,1.4,29.1,2.2c0,9.9,0,19,0,30.1c-20.2,0-39.6,0-60.9,0c0,11.4,0,20.8,0,30.1l0.5-0.6
			c-10.3,0-20.7,0.1-31,0.1C470,856.8,470.5,857.2,470.5,857.2z"/>
		<path d="M61.2,481.4c11,0,19.6,0,29.4,0c0,42.1,0,83,0,125.2c-9.9,0-19,0-29.4,0C61.2,564.8,61.2,523.8,61.2,481.4z"/>
		<path d="M123.3,448.4c-20.2,0-40.3,0-61.9,0c0-30.7,0-60.7,0-92.1c9.3,0,18.4,0,29.9,0c0,19.7,0,39.6,0,60.6
			c12.2,0.6,22.1,1.1,32,1.7l-0.6-0.6c0,10.3,0,20.7,0,31L123.3,448.4z"/>
		<path d="M153.7,609.4c0-21.8,0-43.6,0-65.5l-0.5,0.6c9.9-0.7,19.9-1.4,31.1-2.1c0-10.3,0-19.6,0-28.9l-0.6,0.6
			c10.4-0.2,20.7-0.3,31.1-0.5c0,19.9,0,39.8,0,60.2c-10.2,0.7-19.4,1.4-28.7,2c-0.9,11.6-1.6,21.4-2.4,31.3
			c-11.6,0.6-21,1.2-30.5,1.7L153.7,609.4z"/>
		<path d="M375.2,765.3c-20.6,0-41.2,0-65,0c0-23,0-44.1,0-65.1l-0.5,0.6c9.9,0.6,19.8,1.2,30.8,1.8c0.8,9.9,1.5,19,2.2,29.1
			c10.4,1.1,19.9,2.1,29.9,3.1c0.7,11.2,1.3,21.1,2,31L375.2,765.3z"/>
		<path d="M656.9,166.6c20,0,40,0,61.2,0c0,11.2,0,20.2,0,30.2c-9.9,0.8-19,1.6-29,2.4c-0.6,11.6-1.2,22.1-1.8,32.6l0.7-0.8
			c-9.8,0.6-19.6,1.2-29.5,1.8l0.4,0.4c-0.5-22.4-0.9-44.8-1.4-67.1L656.9,166.6z"/>
		<path d="M310.2,700.2c-20,0-40,0-60.9,0c0-10.7,0-20.6,0-30.5l-0.6,0.6c9.8,0,19.6,0,30.5,0c0-12.3,0-21.7,0-31
			c10.3,0,20.7,0.1,31,0.1c-0.2,20.5-0.3,40.9-0.5,61.4L310.2,700.2z"/>
		<path d="M939.4,765.2c0,9.4,0,18.8,0,29.6c10.2,0.7,19.4,1.4,29.6,2.1c0,9.9,0,18.9,0,29.1c-20.2,0-39.4,0-59.6,0
			c0-20.8,0-40.8,0-60.7l-0.6,0.5c10.3,0,20.7,0,31,0L939.4,765.2z"/>
		<path d="M375.3,826.1c-20.8,0-41.6,0-63.6,0c0-9.5,0-18.1,0-29.8c21,0,42.3,0,63.6,0l-0.6-0.6c0,10.3,0,20.7,0,31L375.3,826.1z"/>
		<path d="M500.5,891.2c0,19.5,0,39.1,0,60c-10.5,0-19.5,0-30,0c0-20,0-40,0-60l-0.5,0.4c10.3,0,20.7,0,31,0.1L500.5,891.2z"/>
		<path d="M94,321.4c19.3,1.2,38.7,2.3,58.9,3.5c0,9.5,0,18.2,0,28.5c-19.4,0-38.6,0-61.3,0c0.9-10.6,1.8-21.4,2.7-32.3L94,321.4z"
			/>
		<path d="M687.3,231.9c9.7-0.8,19.5-1.5,30.4-2.4c0,22.5,0,42.8,0,63.1l0.7-0.6c-10.4,0.2-20.7,0.4-31.1,0.5
			c0.2-20.5,0.4-41,0.6-61.5C688,231.1,687.3,231.9,687.3,231.9z"/>
		<path d="M220.6,321.3c-11.1,0.8-22.2,1.7-34.5,2.6c0-11.1,0-19.7,0-29.9c9.2,0,18.3,0,28.1,0c1.9,8.7,4,18.2,6,27.6L220.6,321.3z"
			/>
		<path d="M94.2,321.1c-10.5,1-21,2-33,3.2c0-11.4,0-20.5,0-30.8c9.7,0,18.8,0,28.6,0c1.4,9.7,2.7,18.9,4.1,27.9
			C94,321.4,94.2,321.1,94.2,321.1z"/>
		<path d="M340.5,136.2c0.8-9.9,1.6-19.8,2.4-30.7c10,0,19.2,0,29.3,0c0.9,10.9,1.7,20.8,2.6,30.7l0.3-0.5c-11.7,0-23.3,0-35,0
			L340.5,136.2z"/>
		<path d="M716.6,893c-8.5-1.4-17-2.8-27-4.5c0-8.7,0-17.8,0-28.5c8.7,0,17.8,0,30.2,0c-1.2,11.4-2.3,22.3-3.5,33.3
			C716.3,893.3,716.6,893,716.6,893z"/>
		<path d="M214,669.7c1,9.8,2.1,19.5,3.3,30.7c-11.8,0-20.9,0-31.2,0c-0.7-10.6-1.3-20.6-2-30.6l-0.4,0.5c10.3,0,20.7,0,31,0
			L214,669.7z"/>
		<path d="M249.3,669.7c-11.7,0-23.5,0-35.2-0.1l0.7,0.7c1.2-10.1,2.3-20.3,3.6-31c11.2,0,21,0,30.9,0c-0.2,10.3-0.4,20.7-0.6,31
			L249.3,669.7z"/>
		<path d="M220.3,321.5c9.7,0.5,19.3,1,29,1.5l-0.5-0.4c0,10.3,0,20.7-0.1,31l0.6-0.6c-10.3,0.1-20.6,0.1-31,0.2l0.5,0.3
			c0.6-10.7,1.2-21.4,1.9-32.2C220.6,321.3,220.3,321.5,220.3,321.5z"/>
		<path d="M311.5,40.6c10,0,18.7,0,28.8,0c0,9.4,0,18.6,0,29c-9.4,0-18.5,0-28.8,0C311.5,60.2,311.5,51.6,311.5,40.6z"/>
		<path d="M627,951c0-9.3,0-18.3,0-28.3c9.9,0,19,0,29,0c0,9.5,0,18.1,0,28.3C646.9,951,637.5,951,627,951z"/>
		<path d="M596,322.6c9.3,0.6,18.6,1.3,28.9,2c0.6,9.5,1.2,18.2,1.9,28.4c20.3,0,40.7,0,61.1,0c0,20.8,0,41.6,0,63.6
			c10.7,0.8,19.3,1.4,29.7,2.2c0,40.6,0,81.4,0,123.4c-19.7,0-39,0-59.5,0c0-10,0-19.1,0-29.1c10.1-0.8,19.3-1.5,29.2-2.3
			c0-10,0-18.7,0-29.5c-9.6-0.6-18.7-1.2-29.3-1.9c-0.7-9.6-1.3-18.8-2-29.2c-9.9-0.7-19.1-1.4-29.1-2.2c0-9.5,0-18.2,0-28.9
			c8.9-0.7,18-1.4,28.6-2.2c0-9.4,0-18.4,0-29c-19.4,0-38.8,0-59.2,0c-1,5.1-2.1,10.4-4.1,19.9c-9.5-8.3-17.2-15-25-21.8l-0.5,0.4
			c8.1,0,16.3,0,29.1,0C596,364.6,596,343.6,596,322.6z"/>
		<path d="M415.5,599.4c1.4-9.2,1.5-13,2.7-16.6c7.1-21.9,8.7-42.5,1.2-66c-12.7-39.8,8.3-84.9,44-106.8
			c36.9-22.6,85.8-19.2,117.3,8.3c34.6,30.1,45.5,75,28.1,115.6c-17.3,40.4-57.9,67.4-100.2,60.2
			C477.8,588.8,448.3,584.2,415.5,599.4z M447.2,565.9c15.7,3,33.6,5.9,51.3,9.9c35.7,8,72.9-9,90.1-41.5
			c17.2-32.6,10.3-73.2-16.6-97.7c-28.3-25.8-68.8-29.3-100.3-8.6c-31.3,20.5-44.1,58.2-33.4,93.5
			C442.9,536.3,444.6,552.1,447.2,565.9z"/>
		<path d="M309.6,639.9c0-9.9,0-19.8,0-32.1c-10.9,0.6-20.7,1.1-30.4,1.5c0.1-11.6,0.3-23.2,0.4-34.7l-0.5,0.5c30.3,0,60.6,0,92.8,0
			c0,21,0,41.3,0,64.7C350.9,639.9,330.2,639.9,309.6,639.9z"/>
		<path d="M214.1,514c0-21.8,0-43.7,0-65.5c11.7,0,23.4,0,35.1-0.1c0,9.9,0,19.8,0,32c10.8-0.5,20.6-1,30.5-1.5
			c0,10.1,0,20.2,0,31.6C256.8,511.8,235.4,512.9,214.1,514z"/>
		<path d="M567.4,386.2c-3.1,0.2-6.6,1.4-9.3,0.5c-42.4-14.3-81.2-7.6-119.1,21.4c-0.5-7.7-0.9-13.4-1.5-21.8
			c26.2,5.6,37.6-4.2,31.4-30.3c32,0,61.6,0,91.1,0c2.3,10.6,4.6,20.6,6.9,30.7C566.9,386.6,567.4,386.2,567.4,386.2z"/>
		<path d="M375.1,513.6c-21.1-0.9-42.2-1.9-63.9-2.9c0-12,0-22.6,0-33.2c0-0.1-0.4,0.5-0.3,0.4c20,1.2,40,2.5,61.3,3.9
			c0.8,11,1.6,21.6,2.4,32.1L375.1,513.6z"/>
		<path d="M873.2,610.5c-19.2-1.4-38.3-2.7-58.5-4.2c0-10.2,0-19.9,0-30.7c20.2,0,39.4,0,62.1,0c-1.4,12.4-2.7,23.8-4,35.2
			C872.9,610.9,873.2,610.5,873.2,610.5z"/>
		<path d="M814.7,416.8c0-9.7,0-18.3,0-28.5c19.8,0,39.5,0,60.1,0c0,9.7,0,18.7,0,28.5C854.2,416.8,835,416.8,814.7,416.8z"/>
		<path d="M909.3,608.9c0,10.3,0.1,20.7,0.1,31c-9.9,0-19.8,0-30.4,0c-2.1-10.8-3.9-20.1-5.7-29.4c-0.1,0-0.4,0.4-0.4,0.4
			C884.9,610.2,897.1,609.6,909.3,608.9z"/>
		<path d="M687.4,322.5c10.3,0,20.7,0,31,0.1c0,9.8,0,19.6,0,32.3c-10.7-0.5-20.8-0.9-31-1.4C687.4,343.2,687.4,332.9,687.4,322.5z"
			/>
		<path d="M279.6,574.6c-9.5,0-18.9,0-29.9,0c0-10.2,0-19.3,0-29.8c9,0,18.1,0,29.4,0c0,10.4,0,20.4,0,30.3
			C279.1,575.2,279.6,574.6,279.6,574.6z"/>
		<path d="M279.7,639.8c-10.3,0-20.7,0-31,0c0-9.9,0-19.8,0-31c11.3,0,21.1,0,31,0C279.7,619.2,279.7,629.5,279.7,639.8z"/>
		<path d="M374.7,514c28.6-4.7,32.2-1.1,28,28.8c-5.3,0.2-10.8,0.7-16.4,0.6c-3.6,0-7.3-0.8-13.1-1.5c0.6-10,1.2-19.2,1.8-28.4
			C375.1,513.6,374.7,514,374.7,514z"/>
		<path d="M752.3,734.4c10,0,19,0,29.1,0c0,10,0,19,0,29.2c-9.9,0-18.9,0-29.1,0C752.3,753.6,752.3,744.6,752.3,734.4z"/>
		<path d="M560.1,233c10.4-1.3,20.7-2.7,32.9-4.2c0,11.7,0,20.7,0,31.1c-9.4,0-18.5,0-28.5,0c-1.3-9.1-2.7-18.2-4.1-27.2
			C560.4,232.7,560.1,233,560.1,233z"/>
		<path d="M687.9,292.1c0,10.3,0,20.7,0,31c-9.4,0-18.8,0-29.5,0c0-9.9,0-19,0-31C668.2,292.1,678.1,292.1,687.9,292.1z"/>
		<path d="M658.5,232.9c-0.8,8.7-1.7,17.3-2.6,27.1c-9.4,0-18.5,0-28.7,0c0-9.7,0-18.8,0-31.2c11.4,1.6,21.5,3,31.7,4.4L658.5,232.9
			z"/>
		<path d="M374.6,262.1c0-10.3,0-20.7-0.1-31c10.3,0,20.7,0,31,0.1c-0.5,9.2-1,18.3-1.6,29C393.9,260.8,384.3,261.4,374.6,262.1z"/>
		<path d="M215.2,197c-30.6,0-60.2,0-91.2,0c0-30.2,0-59.7,0-91c29.6,0,59.6,0,91.2,0C215.2,136,215.2,166,215.2,197z"/>
		<path d="M215.7,797.6c0,30.8,0,60.4,0,91.3c-31,0-61,0-92,0c0-30.5,0-60.1,0-91.3C153.7,797.6,183.8,797.6,215.7,797.6z"/>
		<path d="M814.2,196.6c0-30.9,0-59.9,0-90.6c30.7,0,61.1,0,92.6,0c0,30.3,0,59.7,0,90.6C876,196.6,846,196.6,814.2,196.6z"/>
		<path d="M546.6,541.9c-32-0.5-74.1-36.4-79.2-62.5c-0.4-1.9-1.2-4.2-0.4-5.6c3.8-7.5,7.6-15.2,12.6-21.9c1-1.4,9.2-0.5,10,1.2
			c3.7,8.3,10.8,20,7.8,25.4c-9.8,17.4,4,23.1,12.3,30.9c8.3,7.7,17.5,14.9,29.1,1.7c2.4-2.7,14.8,1.9,21.5,5.2
			c2.7,1.3,5.1,10.5,3.6,12.1C557.7,534.7,549.9,539.4,546.6,541.9z"/>
		<rect x="11.5" y="11.4" class="st0" width="994.6" height="964.2"/>
	</g>
	<g>
		<path class="st1" d="M1017.7,987H0V0h1017.7L1017.7,987L1017.7,987z M13.5,973.4h990.7v-960H13.5V973.4z"/>
	</g>
</g>
</svg>
