<?xml version="1.0" encoding="utf-8"?>
<!-- Generator: Adobe Illustrator 27.0.0, SVG Export Plug-In . SVG Version: 6.00 Build 0)  -->
<svg version="1.1" id="Layer_1" xmlns="http://www.w3.org/2000/svg" xmlns:xlink="http://www.w3.org/1999/xlink" x="0px" y="0px"
	 viewBox="0 0 8192 2627" style="enable-background:new 0 0 8192 2627;" xml:space="preserve">
<style type="text/css">
	.st0{fill:#32A849;}
	.st1{fill:#231F20;}
	.st2{enable-background:new    ;}
	.st3{clip-path:url(#SVGID_00000168089315254191515550000012366783520793313963_);}
</style>
<g>
	<g>
		<path class="st0" d="M0,2627v-220.5c0,0,1075.5-370.4,2378.3-120.1c0,0,1550.7,310.8,1734.6,340.7H0z"/>
		<path class="st0" d="M8192,2627H4403.9l-1497.3-477.5c0,0,781.1-594.6,2250-198.2c0,0,1768.6,551.1,3035.2,269.8V2627L8192,2627
			L8192,2627z"/>
		<path class="st1" d="M0,2235.3v-220.5c0,0,151.2-52.1,408.9-104.1c834.1-167.9,1697.9-108.4,2503.4,165.6L4531.8,2627h-349.9
			C4181.9,2627,1910.9,1880.2,0,2235.3z"/>
		<g>
			<g>
				<g>
					<g class="st2">
						<path class="st1" d="M881.1,1168.1h-27.7v28.4h-19.3v-28.4h-27.7v-17.9h27.7v-28.4h19.3v28.4h27.7V1168.1z"/>
						<path class="st1" d="M930,1191.2c2.8,2.3,6.5,3.4,11.2,3.4c6.1,0,10.5-2.5,13.2-7.6c2.7-5,4.1-13.5,4.1-25.4
							c-2.3,3.1-5.4,5.6-9.5,7.3c-4.1,1.8-8.4,2.6-13.1,2.6c-6.3,0-11.9-1.3-16.9-3.9c-5-2.6-9-6.4-11.9-11.6s-4.4-11.4-4.4-18.7
							c0-10.9,3.2-19.5,9.7-25.9s15.2-9.6,26.4-9.6c13.9,0,23.7,4.4,29.4,13.3c5.7,8.9,8.6,22.3,8.6,40.2c0,12.7-1.1,23.1-3.3,31.2
							c-2.2,8.1-6,14.3-11.3,18.5c-5.3,4.2-12.6,6.3-21.8,6.3c-7.2,0-13.4-1.4-18.5-4.2c-5.1-2.8-9-6.4-11.6-11
							c-2.7-4.6-4.2-9.6-4.6-15h19.1C925.4,1185.6,927.2,1188.9,930,1191.2z M952.2,1150.2c2.9-3.1,4.4-7.3,4.4-12.6
							c0-5.8-1.5-10.2-4.6-13.4c-3.1-3.2-7.3-4.8-12.5-4.8c-5.3,0-9.5,1.6-12.5,4.9c-3.1,3.3-4.6,7.6-4.6,13c0,5.2,1.5,9.4,4.5,12.7
							c3,3.3,7.4,4.9,13.4,4.9C945.3,1154.9,949.3,1153.4,952.2,1150.2z"/>
						<path class="st1" d="M1060.7,1120l-39,91.3h-20.8l39.3-89H990v-17.6h70.7L1060.7,1120L1060.7,1120z"/>
						<path class="st1" d="M1070.5,1123.4v-18.9h35.3v106.9h-21.1v-87.9H1070.5z"/>
						<path class="st1" d="M1232.8,1122.2h-47.5v25.1c2.1-2.5,5-4.6,8.8-6.2c3.8-1.6,7.9-2.4,12.2-2.4c7.8,0,14.2,1.7,19.2,5.1
							c5,3.4,8.6,7.8,10.8,13.1c2.3,5.3,3.4,11,3.4,17.1c0,11.2-3.2,20.3-9.6,27.1c-6.4,6.8-15.5,10.3-27.3,10.3
							c-11.1,0-20-2.8-26.7-8.4c-6.6-5.6-10.4-12.9-11.3-21.8h19.9c0.9,3.9,2.9,7,5.9,9.4c3.1,2.3,7,3.5,11.8,3.5
							c5.8,0,10.1-1.8,13-5.4c2.9-3.6,4.4-8.4,4.4-14.4c0-6.1-1.5-10.7-4.5-13.9c-3-3.2-7.4-4.8-13.1-4.8c-4.1,0-7.5,1-10.3,3.1
							c-2.7,2.1-4.7,4.8-5.9,8.2h-19.6v-62.7h66.3V1122.2z"/>
						<path class="st1" d="M1261.8,1188.2c9.4-7.8,16.9-14.3,22.4-19.6c5.6-5.2,10.2-10.7,13.9-16.3c3.7-5.7,5.6-11.2,5.6-16.7
							c0-5-1.2-8.9-3.5-11.7c-2.3-2.8-6-4.2-10.8-4.2c-4.9,0-8.7,1.6-11.3,4.9c-2.6,3.3-4,7.7-4.1,13.4H1254
							c0.4-11.7,3.9-20.6,10.5-26.7c6.6-6.1,15-9.1,25.1-9.1c11.1,0,19.7,3,25.6,8.9c6,5.9,8.9,13.7,8.9,23.4
							c0,7.6-2.1,14.9-6.2,21.8c-4.1,6.9-8.8,13-14.1,18.1c-5.3,5.1-12.2,11.3-20.7,18.6h43.2v17h-72.4v-15.3L1261.8,1188.2z"/>
						<path class="st1" d="M1373.5,1190.5v-16.1l47.9-68.6h23.9v66.8h12.9v17.9h-12.9v20.8h-20.5v-20.8L1373.5,1190.5L1373.5,1190.5
							z M1426.1,1127.8l-30.1,44.9h30.1V1127.8z"/>
						<path class="st1" d="M1470.4,1190.5v-16.1l47.9-68.6h23.9v66.8h12.9v17.9h-12.9v20.8h-20.5v-20.8L1470.4,1190.5L1470.4,1190.5
							z M1523,1127.8l-30.1,44.9h30.1V1127.8z"/>
						<path class="st1" d="M1597.2,1191.2c2.8,2.3,6.5,3.4,11.2,3.4c6.1,0,10.5-2.5,13.2-7.6c2.7-5,4.1-13.5,4.1-25.4
							c-2.3,3.1-5.4,5.6-9.5,7.3c-4.1,1.8-8.4,2.6-13.1,2.6c-6.3,0-11.9-1.3-16.9-3.9c-5-2.6-9-6.4-11.9-11.6s-4.4-11.4-4.4-18.7
							c0-10.9,3.2-19.5,9.7-25.9c6.4-6.4,15.2-9.6,26.4-9.6c13.9,0,23.7,4.4,29.4,13.3c5.7,8.9,8.6,22.3,8.6,40.2
							c0,12.7-1.1,23.1-3.3,31.2c-2.2,8.1-6,14.3-11.3,18.5c-5.3,4.2-12.6,6.3-21.8,6.3c-7.2,0-13.4-1.4-18.5-4.2
							c-5.1-2.8-9-6.4-11.6-11c-2.7-4.6-4.2-9.6-4.6-15h19.1C1592.7,1185.6,1594.4,1188.9,1597.2,1191.2z M1619.4,1150.2
							c2.9-3.1,4.4-7.3,4.4-12.6c0-5.8-1.5-10.2-4.6-13.4c-3.1-3.2-7.3-4.8-12.5-4.8c-5.3,0-9.5,1.6-12.5,4.9
							c-3.1,3.3-4.6,7.6-4.6,13c0,5.2,1.5,9.4,4.5,12.7c3,3.3,7.4,4.9,13.4,4.9C1612.5,1154.9,1616.5,1153.4,1619.4,1150.2z"/>
						<path class="st1" d="M1745.1,1121.9c-2.4-2.1-5.8-3.1-10.3-3.1c-6.7,0-11.7,2.7-14.9,8.1c-3.2,5.4-4.8,14.2-4.9,26.5
							c2.3-3.9,5.8-7,10.3-9.2c4.5-2.2,9.4-3.3,14.7-3.3c6.3,0,12,1.4,16.9,4.1c4.9,2.7,8.7,6.7,11.4,11.9s4.1,11.5,4.1,18.8
							c0,6.9-1.4,13.1-4.2,18.5c-2.8,5.4-6.9,9.7-12.2,12.7c-5.4,3-11.8,4.5-19.2,4.5c-10.2,0-18.2-2.2-24-6.7
							c-5.8-4.5-9.9-10.8-12.2-18.8c-2.3-8.1-3.4-18-3.4-29.8c0-17.9,3.1-31.4,9.2-40.5c6.2-9.1,15.9-13.7,29.2-13.7
							c10.3,0,18.2,2.8,23.9,8.4c5.7,5.6,8.9,12.5,9.8,20.8h-19.1C1749.2,1127.1,1747.5,1124,1745.1,1121.9z M1722.2,1162.4
							c-3.5,3-5.3,7.4-5.3,13.2c0,5.8,1.6,10.3,4.9,13.6c3.3,3.3,7.9,5,13.9,5c5.3,0,9.5-1.6,12.5-4.8c3.1-3.2,4.6-7.6,4.6-13
							c0-5.7-1.5-10.2-4.5-13.5c-3-3.3-7.4-5-13.1-5C1730.1,1157.8,1725.7,1159.4,1722.2,1162.4z"/>
						<path class="st1" d="M1786.1,1123.4v-18.9h35.3v106.9h-21.1v-87.9H1786.1z"/>
						<path class="st1" d="M1909.7,1120l-39,91.3h-20.8l39.3-89H1839v-17.6h70.7L1909.7,1120L1909.7,1120z"/>
						<path class="st1" d="M1932.6,1110c6.4-5.3,14.8-8,25.3-8c7.1,0,13.2,1.3,18.3,3.7c5.1,2.5,8.9,5.9,11.5,10.1
							c2.6,4.2,3.9,9.1,3.9,14.4c0,6.2-1.6,11.4-4.8,15.6c-3.2,4.3-7,7.1-11.4,8.6v0.6c5.7,1.8,10.1,4.9,13.3,9.4
							c3.2,4.5,4.8,10.3,4.8,17.3c0,5.9-1.3,11.1-4,15.7c-2.7,4.6-6.6,8.2-11.9,10.8c-5.2,2.6-11.5,3.9-18.8,3.9
							c-11,0-20-2.8-27-8.4c-6.9-5.6-10.6-13.8-11-24.6h19.9c0.2,4.8,1.8,8.6,4.9,11.5c3.1,2.9,7.3,4.3,12.7,4.3
							c5,0,8.8-1.4,11.5-4.2c2.7-2.8,4-6.4,4-10.8c0-5.9-1.9-10.1-5.6-12.6c-3.7-2.5-9.5-3.8-17.3-3.8h-4.3v-16.9h4.3
							c13.9,0,20.8-4.6,20.8-13.9c0-4.2-1.3-7.5-3.7-9.8c-2.5-2.3-6.1-3.5-10.8-3.5c-4.6,0-8.1,1.3-10.6,3.7
							c-2.5,2.5-3.9,5.6-4.3,9.5h-20.1C1922.8,1122.9,1926.2,1115.3,1932.6,1110z"/>
					</g>
					<g>
						<path class="st1" d="M2428.7,1116.8c6.1-9.6,16.2-14.4,30.4-14.4c14.2,0,24.3,4.8,30.4,14.4c6.1,9.6,9.2,22.8,9.2,39.7
							c0,17-3.1,30.3-9.2,40c-6.1,9.7-16.2,14.5-30.4,14.5s-24.3-4.8-30.4-14.5c-6.1-9.7-9.2-23-9.2-40
							C2419.5,1139.6,2422.6,1126.4,2428.7,1116.8z M2477.1,1138.3c-0.9-4.9-2.8-9-5.6-12.1c-2.8-3.1-6.9-4.7-12.4-4.7
							s-9.6,1.6-12.4,4.7c-2.8,3.1-4.6,7.2-5.6,12.1c-0.9,4.9-1.4,11-1.4,18.3c0,7.4,0.4,13.7,1.3,18.7c0.9,5,2.7,9.1,5.6,12.2
							c2.8,3.1,7,4.6,12.5,4.6s9.6-1.5,12.5-4.6c2.8-3.1,4.7-7.1,5.6-12.2c0.9-5,1.3-11.3,1.3-18.7
							C2478.5,1149.3,2478,1143.2,2477.1,1138.3z"/>
						<path class="st1" d="M2513.3,1190.5v-16.1l47.9-68.6h23.9v66.8h12.9v17.9h-12.9v20.8h-20.5v-20.8L2513.3,1190.5L2513.3,1190.5
							z M2566,1127.8l-30.1,44.9h30.1V1127.8z"/>
						<path class="st1" d="M2621.7,1110c6.4-5.3,14.8-8,25.3-8c7.1,0,13.2,1.3,18.3,3.7c5.1,2.5,8.9,5.9,11.5,10.1
							c2.6,4.2,3.9,9.1,3.9,14.4c0,6.2-1.6,11.4-4.8,15.6c-3.2,4.3-7,7.1-11.4,8.6v0.6c5.7,1.8,10.1,4.9,13.3,9.4
							c3.2,4.5,4.8,10.3,4.8,17.3c0,5.9-1.3,11.1-4,15.7c-2.7,4.6-6.6,8.2-11.9,10.8c-5.2,2.6-11.5,3.9-18.8,3.9
							c-11,0-20-2.8-27-8.4c-6.9-5.6-10.6-13.8-11-24.6h19.9c0.2,4.8,1.8,8.6,4.9,11.5c3.1,2.9,7.3,4.3,12.7,4.3
							c5,0,8.8-1.4,11.5-4.2c2.7-2.8,4-6.4,4-10.8c0-5.9-1.9-10.1-5.6-12.6c-3.7-2.5-9.5-3.8-17.3-3.8h-4.3v-16.9h4.3
							c13.9,0,20.8-4.6,20.8-13.9c0-4.2-1.3-7.5-3.7-9.8c-2.5-2.3-6.1-3.5-10.8-3.5c-4.6,0-8.1,1.3-10.6,3.7
							c-2.5,2.5-3.9,5.6-4.3,9.5h-20.1C2611.9,1122.9,2615.3,1115.3,2621.7,1110z"/>
						<path class="st1" d="M2766.9,1120l-39,91.3h-20.8l39.3-89h-50.1v-17.6h70.7L2766.9,1120L2766.9,1120z"/>
						<path class="st1" d="M2851.1,1122.2h-47.5v25.1c2.1-2.5,5-4.6,8.8-6.2c3.8-1.6,7.9-2.4,12.2-2.4c7.8,0,14.2,1.7,19.2,5.1
							c5,3.4,8.6,7.8,10.8,13.1c2.3,5.3,3.4,11,3.4,17.1c0,11.2-3.2,20.3-9.6,27.1c-6.4,6.8-15.5,10.3-27.3,10.3
							c-11.1,0-20-2.8-26.7-8.4c-6.6-5.6-10.4-12.9-11.3-21.8h19.9c0.9,3.9,2.9,7,5.9,9.4c3.1,2.3,7,3.5,11.8,3.5
							c5.8,0,10.1-1.8,13-5.4c2.9-3.6,4.4-8.4,4.4-14.4c0-6.1-1.5-10.7-4.5-13.9c-3-3.2-7.4-4.8-13.1-4.8c-4.1,0-7.5,1-10.3,3.1
							c-2.7,2.1-4.7,4.8-5.9,8.2h-19.6v-62.7h66.3L2851.1,1122.2L2851.1,1122.2z"/>
						<path class="st1" d="M2924,1121.9c-2.4-2.1-5.8-3.1-10.3-3.1c-6.7,0-11.7,2.7-14.9,8.1c-3.2,5.4-4.8,14.2-4.9,26.5
							c2.3-3.9,5.8-7,10.3-9.2c4.5-2.2,9.4-3.3,14.7-3.3c6.3,0,12,1.4,16.9,4.1c4.9,2.7,8.7,6.7,11.4,11.9s4.1,11.5,4.1,18.8
							c0,6.9-1.4,13.1-4.2,18.5c-2.8,5.4-6.9,9.7-12.2,12.7c-5.4,3-11.8,4.5-19.2,4.5c-10.2,0-18.2-2.2-24-6.7
							c-5.8-4.5-9.9-10.8-12.2-18.8c-2.3-8.1-3.4-18-3.4-29.8c0-17.9,3.1-31.4,9.2-40.5c6.2-9.1,15.9-13.7,29.2-13.7
							c10.3,0,18.2,2.8,23.9,8.4c5.7,5.6,8.9,12.5,9.8,20.8h-19.1C2928.1,1127.1,2926.4,1124,2924,1121.9z M2901.1,1162.4
							c-3.5,3-5.3,7.4-5.3,13.2c0,5.8,1.6,10.3,4.9,13.6c3.3,3.3,7.9,5,13.9,5c5.3,0,9.5-1.6,12.5-4.8c3.1-3.2,4.6-7.6,4.6-13
							c0-5.7-1.5-10.2-4.5-13.5c-3-3.3-7.4-5-13.1-5C2908.9,1157.8,2904.6,1159.4,2901.1,1162.4z"/>
						<path class="st1" d="M2966.6,1190.5v-16.1l47.9-68.6h23.9v66.8h12.9v17.9h-12.9v20.8h-20.5v-20.8L2966.6,1190.5L2966.6,1190.5
							z M3019.2,1127.8l-30.1,44.9h30.1V1127.8z"/>
						<path class="st1" d="M3075,1110c6.4-5.3,14.8-8,25.3-8c7.1,0,13.2,1.3,18.3,3.7c5.1,2.5,8.9,5.9,11.5,10.1
							c2.6,4.2,3.9,9.1,3.9,14.4c0,6.2-1.6,11.4-4.8,15.6c-3.2,4.3-7,7.1-11.4,8.6v0.6c5.7,1.8,10.1,4.9,13.3,9.4
							c3.2,4.5,4.8,10.3,4.8,17.3c0,5.9-1.3,11.1-4,15.7c-2.7,4.6-6.6,8.2-11.9,10.8c-5.2,2.6-11.5,3.9-18.8,3.9
							c-11,0-20-2.8-27-8.4c-6.9-5.6-10.6-13.8-11-24.6h19.9c0.2,4.8,1.8,8.6,4.9,11.5c3.1,2.9,7.3,4.3,12.7,4.3
							c5,0,8.8-1.4,11.5-4.2c2.7-2.8,4-6.4,4-10.8c0-5.9-1.9-10.1-5.6-12.6c-3.7-2.5-9.5-3.8-17.3-3.8h-4.3v-16.9h4.3
							c13.9,0,20.8-4.6,20.8-13.9c0-4.2-1.3-7.5-3.7-9.8c-2.5-2.3-6.1-3.5-10.8-3.5c-4.6,0-8.1,1.3-10.6,3.7
							c-2.5,2.5-3.9,5.6-4.3,9.5h-20.1C3065.1,1122.9,3068.6,1115.3,3075,1110z"/>
						<path class="st1" d="M3224,1122.2h-47.5v25.1c2.1-2.5,5-4.6,8.8-6.2c3.8-1.6,7.9-2.4,12.2-2.4c7.8,0,14.2,1.7,19.2,5.1
							c5,3.4,8.6,7.8,10.8,13.1c2.3,5.3,3.4,11,3.4,17.1c0,11.2-3.2,20.3-9.6,27.1c-6.4,6.8-15.5,10.3-27.3,10.3
							c-11.1,0-20-2.8-26.7-8.4c-6.6-5.6-10.4-12.9-11.3-21.8h19.9c0.9,3.9,2.9,7,5.9,9.4c3.1,2.3,7,3.5,11.8,3.5
							c5.8,0,10.1-1.8,13-5.4c2.9-3.6,4.4-8.4,4.4-14.4c0-6.1-1.5-10.7-4.5-13.9c-3-3.2-7.4-4.8-13.1-4.8c-4.1,0-7.5,1-10.3,3.1
							c-2.7,2.1-4.7,4.8-5.9,8.2h-19.6v-62.7h66.3L3224,1122.2L3224,1122.2z"/>
					</g>
					<path class="st0" d="M566.5,1058.8V1257h198.1v-198.2H566.5z M728.5,1201l-18.3,18.2c-0.8,0.9-2,1.7-3.3,2.3
						c-1.3,0.7-2.6,1-3.9,1.2c-0.1,0-0.4,0-0.8,0.1c-0.5,0-1,0.1-1.8,0.1c-1.7,0-4.6-0.3-8.5-0.9s-8.6-2.1-14.4-4.4
						c-5.6-2.3-12-5.9-19.2-10.6s-14.8-11.1-22.9-19.3c-6.4-6.3-11.7-12.4-15.9-18.2c-4.2-5.7-7.6-11.1-10.2-16.1s-4.4-9.4-5.7-13.3
						c-1.3-4-2.2-7.4-2.6-10.3c-0.5-2.9-0.7-5.2-0.5-6.8c0.1-1.7,0.1-2.6,0.1-2.7c0.1-1.3,0.7-2.6,1.2-3.9c0.7-1.3,1.4-2.3,2.3-3.3
						l18.3-18.3c1.3-1.3,2.7-2,4.4-2c1.2,0,2.2,0.4,3.1,1c0.9,0.7,1.7,1.6,2.3,2.6l14.8,27.9c0.8,1.4,1,3.1,0.7,4.8
						c-0.4,1.7-1.2,3.3-2.3,4.4l-6.8,6.8c-0.1,0.1-0.4,0.5-0.5,0.9c-0.1,0.4-0.3,0.8-0.3,1c0.4,2,1.2,4.2,2.5,6.7
						c1,2.2,2.7,4.8,5.1,8.1c2.3,3.1,5.6,6.8,9.8,11c4.2,4.2,7.8,7.4,11,9.8c3.3,2.3,5.9,4,8.1,5.2c2.2,1,3.8,1.8,5,2l1.7,0.4
						c0.1,0,0.5-0.1,0.9-0.3c0.4-0.1,0.7-0.3,0.9-0.5l7.8-8c1.7-1.4,3.5-2.2,5.7-2.2c1.6,0,2.7,0.3,3.7,0.8h0.1l26.5,15.7
						c2,1.2,3.1,2.7,3.4,4.6C730.8,1197.6,730.1,1199.4,728.5,1201z"/>
					<g>
						<path class="st0" d="M2265.3,1152.7c-11.6,0-21.2,9.4-21.2,21c0,11.7,9.4,21.3,21.2,21.3c11.5,0,21-9.4,21.2-20.9
							C2286.4,1162.2,2277,1152.7,2265.3,1152.7z M2265.3,1189.5c-8.7,0-15.7-7-15.7-15.9c0-8.5,7.2-15.4,15.7-15.4
							c8.7,0,15.7,7,15.5,15.8C2280.9,1182.6,2273.8,1189.5,2265.3,1189.5z"/>
						<path class="st0" d="M2166.3,1056.3v198.1h198.1v-198.1H2166.3z M2302.4,1206.5c-12.3,0-24.7,0-37,0s-24.5,0-36.8,0
							c-6.1,0-11.2-4.2-12.4-10.2c-0.4-1.8-0.3-3.8,0.1-5.6c1.7-8.4,3.4-16.8,5-25.2c0.9-4.6,4.4-8.1,9-9c2.2-0.4,4.4-0.9,6.7-1.4
							c5.4-1.2,9.3-6.1,9-11.6c-0.1-2.9-0.4-5.7-0.7-8.6c0-0.5,0.1-0.7,0.5-0.9c6.1-2.6,12.7-4,19.3-4.2c4.4-0.1,8.7,0.5,12.9,1.8
							c2.3,0.7,4.7,1.6,7,2.3c0.4,0.1,0.4,0.3,0.4,0.7c-0.3,2.9-0.5,5.9-0.7,8.7c-0.3,5.5,3.7,10.4,9,11.5c2.2,0.5,4.6,0.9,6.8,1.4
							c4.6,0.9,8,4.6,8.9,9c1.7,8.6,3.4,17.2,5.1,26C2316.2,1199.3,2310.3,1206.5,2302.4,1206.5z M2329.1,1144.6
							c-1.3,4.6-3.7,8.6-7,11.9c-1.7,1.7-3.9,2.1-6.3,1.7c-1.7-0.3-3.3-0.9-4.8-1.7c-6.1-3.1-12.4-6.3-18.3-9.9
							c-1.3-0.8-2-2-2.1-3.5c-0.1-2.1,0.5-4,1-6c0.5-1.6,0.9-3.1,1.2-4.7c0.3-1-0.3-2-1.2-2.6c-2.2-1.4-4.8-2.2-7.4-2.9
							c-6.1-1.7-12.4-2.5-18.7-2.6c-6,0-12,0.8-17.8,2.3c-1.6,0.4-3.1,0.8-4.6,1.2c-1.3,0.4-2.6,0.9-3.8,1.7
							c-0.9,0.7-1.3,1.4-1.3,2.6s0.3,2.3,0.7,3.4c0.7,1.7,1.3,3.5,1.4,5.4c0,0.8,0,1.7,0,2.5c-0.1,1.2-0.7,2.1-1.7,2.7
							c-2.2,1.4-4.6,2.9-7,4.2c-2.7,1.3-5.4,2.9-8.1,4.2c-2.7,1.3-5.5,2.6-8.4,3.5c-0.7,0.3-1.3,0.4-2,0.4c-1.2,0.1-2.2-0.3-3.1-0.9
							c-2.3-1.8-4.2-4-5.6-6.7c-2.5-4.4-3.7-9.3-3.4-14.4c0.3-4.8,2-9,4.8-12.8c3.7-4.8,8.1-8.6,13.4-11.4c3-1.4,6.1-2.5,9.3-3.4
							c7.4-2.3,15.1-3.7,22.9-4.2c8.7-0.7,17.4-0.8,26.1-0.1c7.7,0.5,15.3,1.6,22.7,3.7c5.6,1.6,11,3.5,15.9,6.7
							c5.4,3.4,9.4,8,11.9,13.7C2330,1133.7,2330.7,1139.1,2329.1,1144.6z"/>
					</g>
				</g>
				<g>
					<g class="st2">
						<path class="st1" d="M991.7,1426.4l-28.6,102.3h-24.2l-19.2-72.8l-20.1,72.8l-24,0.1L848,1426.4h22l18,79.5l20.8-79.5h22.9
							l19.6,79l18.2-79H991.7L991.7,1426.4z"/>
						<path class="st1" d="M1004.6,1466c3.3-6.3,7.7-11.2,13.3-14.7c5.6-3.4,11.9-5.1,18.8-5.1c6.1,0,11.4,1.2,15.9,3.7
							c4.5,2.4,8.2,5.5,10.9,9.2v-11.6h20.7v81.2h-20.7v-11.9c-2.6,3.8-6.3,7-10.9,9.4c-4.6,2.5-10,3.7-16,3.7
							c-6.8,0-13.1-1.7-18.7-5.3c-5.6-3.5-10.1-8.5-13.3-14.9c-3.3-6.4-4.9-13.8-4.9-22.1C999.7,1479.7,1001.4,1472.4,1004.6,1466z
							 M1060.7,1475.3c-2-3.6-4.6-6.3-7.9-8.2c-3.3-1.9-6.9-2.9-10.7-2.9s-7.3,0.9-10.6,2.8c-3.2,1.9-5.8,4.6-7.8,8.1
							c-2,3.6-3,7.8-3,12.7s1,9.2,3,12.8c2,3.7,4.6,6.5,7.9,8.4c3.3,2,6.8,2.9,10.5,2.9c3.8,0,7.4-0.9,10.7-2.9
							c3.3-1.9,6-4.6,7.9-8.2c2-3.6,2.9-7.8,2.9-12.8C1063.6,1483.2,1062.7,1478.9,1060.7,1475.3z"/>
						<path class="st1" d="M1135.2,1450c4.3-2.4,9.1-3.7,14.6-3.7v21.6h-5.4c-6.4,0-11.3,1.5-14.6,4.6c-3.3,3-4.9,8.3-4.9,15.8v40.5
							h-20.5v-81.2h20.5v12.6C1127.5,1455.9,1131,1452.5,1135.2,1450z"/>
						<path class="st1" d="M1238.5,1494.3h-59.4c0.5,5.9,2.5,10.5,6.2,13.8c3.6,3.3,8.1,5,13.3,5c7.6,0,13-3.3,16.3-9.8h22.1
							c-2.3,7.8-6.8,14.2-13.5,19.3c-6.6,5-14.8,7.6-24.5,7.6c-7.8,0-14.8-1.7-21-5.2c-6.2-3.5-11-8.4-14.5-14.7
							c-3.5-6.3-5.2-13.7-5.2-22c0-8.4,1.7-15.8,5.1-22.1c3.4-6.3,8.2-11.2,14.4-14.7c6.2-3.4,13.2-5.1,21.3-5.1
							c7.7,0,14.6,1.7,20.7,5c6.1,3.3,10.8,8,14.2,14.1c3.4,6.1,5.1,13.1,5.1,21C1239.1,1489.3,1238.9,1492,1238.5,1494.3z
							 M1217.8,1480.5c-0.1-5.3-2-9.5-5.7-12.7c-3.7-3.2-8.3-4.8-13.6-4.8c-5.1,0-9.4,1.5-12.8,4.6c-3.5,3.1-5.6,7.4-6.4,12.8
							H1217.8z"/>
						<path class="st1" d="M1316.2,1450.4c4.8,2.7,8.5,6.6,11.2,11.9c2.7,5.2,4,11.5,4,18.8v47.6h-20.5v-44.9
							c0-6.4-1.6-11.4-4.8-14.9c-3.2-3.5-7.6-5.2-13.2-5.2c-5.7,0-10.1,1.7-13.4,5.2c-3.3,3.5-4.9,8.4-4.9,14.9v44.9H1254v-108.5
							h20.5v37.4c2.6-3.5,6.2-6.3,10.6-8.3c4.4-2,9.3-3,14.7-3C1305.9,1446.4,1311.4,1447.7,1316.2,1450.4z"/>
						<path class="st1" d="M1365.9,1524.9c-6.3-3.5-11.2-8.4-14.7-14.7c-3.6-6.3-5.3-13.7-5.3-22c0-8.3,1.8-15.6,5.5-22
							c3.7-6.3,8.7-11.3,15-14.7c6.3-3.5,13.4-5.2,21.3-5.2c7.8,0,14.9,1.7,21.3,5.2s11.4,8.4,15,14.7c3.7,6.4,5.5,13.7,5.5,22
							c0,8.3-1.9,15.6-5.6,22c-3.8,6.3-8.9,11.3-15.2,14.7c-6.4,3.5-13.6,5.2-21.5,5.2C1379.2,1530.1,1372.1,1528.3,1365.9,1524.9z
							 M1397.5,1509.5c3.3-1.8,5.9-4.5,7.8-8.1c2-3.6,2.9-8,2.9-13.2c0-7.7-2-13.7-6.1-17.8s-9-6.2-14.9-6.2
							c-5.9,0-10.8,2.1-14.7,6.2c-4,4.2-5.9,10.1-5.9,17.8c0,7.7,1.9,13.7,5.8,17.8c3.9,4.2,8.7,6.2,14.6,6.2
							C1390.7,1512.2,1394.2,1511.3,1397.5,1509.5z"/>
						<path class="st1" d="M1521.1,1447.5v81.2h-20.7v-10.3c-2.6,3.5-6.1,6.3-10.3,8.3c-4.3,2-8.9,3-13.8,3c-6.4,0-12-1.3-16.9-4
							c-4.9-2.7-8.7-6.6-11.5-11.9s-4.2-11.4-4.2-18.7v-47.6h20.5v44.7c0,6.4,1.6,11.4,4.8,14.9c3.2,3.5,7.6,5.2,13.2,5.2
							c5.7,0,10.1-1.7,13.3-5.2c3.2-3.5,4.8-8.4,4.8-14.9v-44.7H1521.1L1521.1,1447.5z"/>
						<path class="st1" d="M1554.5,1526.5c-5.3-2.4-9.5-5.6-12.5-9.8c-3.1-4.1-4.8-8.6-5.1-13.6h20.7c0.4,3.1,1.9,5.7,4.6,7.8
							c2.7,2,6,3.1,10,3.1c3.9,0,7-0.8,9.2-2.3c2.2-1.6,3.3-3.6,3.3-6c0-2.6-1.3-4.6-4-5.9c-2.7-1.3-7-2.8-12.8-4.3
							c-6.1-1.5-11-3-14.9-4.5c-3.9-1.6-7.2-4-10-7.2c-2.8-3.2-4.2-7.6-4.2-13c0-4.5,1.3-8.6,3.9-12.3c2.6-3.7,6.3-6.7,11.1-8.8
							c4.8-2.2,10.5-3.2,17.1-3.2c9.7,0,17.4,2.4,23.2,7.3c5.8,4.8,8.9,11.4,9.5,19.6H1584c-0.3-3.2-1.6-5.8-4-7.7
							c-2.4-1.9-5.6-2.9-9.6-2.9c-3.7,0-6.6,0.7-8.6,2.1c-2,1.4-3,3.3-3,5.7c0,2.7,1.4,4.8,4.1,6.2c2.7,1.4,7,2.9,12.7,4.3
							c5.9,1.5,10.7,3,14.5,4.5c3.8,1.6,7.1,4,9.9,7.3c2.8,3.3,4.2,7.6,4.3,13c0,4.7-1.3,8.9-3.9,12.6c-2.6,3.7-6.3,6.6-11.1,8.7
							c-4.8,2.1-10.5,3.1-16.9,3.1C1565.8,1530.1,1559.8,1528.9,1554.5,1526.5z"/>
						<path class="st1" d="M1696.1,1494.3h-59.4c0.5,5.9,2.5,10.5,6.2,13.8c3.6,3.3,8.1,5,13.3,5c7.6,0,13-3.3,16.3-9.8h22.1
							c-2.3,7.8-6.8,14.2-13.5,19.3c-6.6,5-14.8,7.6-24.5,7.6c-7.8,0-14.8-1.7-21-5.2c-6.2-3.5-11-8.4-14.5-14.7
							c-3.5-6.3-5.2-13.7-5.2-22c0-8.4,1.7-15.8,5.1-22.1c3.4-6.3,8.2-11.2,14.4-14.7c6.2-3.4,13.2-5.1,21.3-5.1
							c7.7,0,14.6,1.7,20.7,5c6.1,3.3,10.8,8,14.2,14.1c3.4,6.1,5.1,13.1,5.1,21C1696.7,1489.3,1696.5,1492,1696.1,1494.3z
							 M1675.5,1480.5c-0.1-5.3-2-9.5-5.7-12.7c-3.7-3.2-8.3-4.8-13.6-4.8c-5.1,0-9.4,1.5-12.8,4.6c-3.5,3.1-5.6,7.4-6.4,12.8
							H1675.5z"/>
						<path class="st1" d="M1834.1,1528.8h-20.5l-46.5-70.2v70.2h-20.5v-102.5h20.5l46.5,70.4v-70.4h20.5V1528.8z"/>
						<path class="st1" d="M1869.2,1524.9c-6.3-3.5-11.2-8.4-14.7-14.7c-3.6-6.3-5.3-13.7-5.3-22c0-8.3,1.8-15.6,5.5-22
							c3.7-6.3,8.7-11.3,15-14.7c6.3-3.5,13.4-5.2,21.3-5.2c7.8,0,14.9,1.7,21.3,5.2s11.4,8.4,15,14.7c3.7,6.4,5.5,13.7,5.5,22
							c0,8.3-1.9,15.6-5.6,22c-3.8,6.3-8.9,11.3-15.2,14.7c-6.4,3.5-13.6,5.2-21.5,5.2C1882.5,1530.1,1875.5,1528.3,1869.2,1524.9z
							 M1900.8,1509.5c3.3-1.8,5.9-4.5,7.8-8.1c2-3.6,2.9-8,2.9-13.2c0-7.7-2-13.7-6.1-17.8s-9-6.2-14.9-6.2
							c-5.9,0-10.8,2.1-14.7,6.2c-4,4.2-5.9,10.1-5.9,17.8c0,7.7,1.9,13.7,5.8,17.8c3.9,4.2,8.7,6.2,14.6,6.2
							C1894.1,1512.2,1897.5,1511.3,1900.8,1509.5z"/>
						<path class="st1" d="M1947.7,1526.3c-2.4-2.3-3.6-5.1-3.6-8.6c0-3.4,1.2-6.3,3.6-8.6c2.4-2.3,5.4-3.4,9.2-3.4
							c3.6,0,6.6,1.1,8.9,3.4c2.3,2.3,3.5,5.2,3.5,8.6s-1.2,6.3-3.5,8.6c-2.3,2.3-5.3,3.4-8.9,3.4
							C1953.2,1529.8,1950.1,1528.6,1947.7,1526.3z"/>
						<path class="st1" d="M1981.1,1440.8v-18.9h35.3v106.9h-21.1v-87.9H1981.1z"/>
						<path class="st1" d="M2061.4,1507.2l-17.2,41.2h-13.2l9.5-41.2H2061.4z"/>
						<path class="st1" d="M2181.8,1473.5c-2.6,4.8-6.6,8.6-12.2,11.6c-5.5,2.9-12.5,4.4-20.9,4.4h-17.2v39.3h-20.5v-102.3h37.7
							c7.9,0,14.7,1.4,20.2,4.1c5.6,2.7,9.7,6.5,12.5,11.3c2.8,4.8,4.2,10.2,4.2,16.3C2185.7,1463.6,2184.4,1468.7,2181.8,1473.5z
							 M2160.5,1469c2.7-2.6,4.1-6.2,4.1-10.9c0-10-5.6-15-16.7-15h-16.3v29.8h16.3C2153.5,1472.9,2157.8,1471.6,2160.5,1469z"/>
						<path class="st1" d="M2220.7,1420.3v108.5h-20.5v-108.5H2220.7z"/>
						<path class="st1" d="M2255.9,1524.9c-6.3-3.5-11.2-8.4-14.7-14.7c-3.6-6.3-5.3-13.7-5.3-22c0-8.3,1.8-15.6,5.5-22
							c3.7-6.3,8.7-11.3,15-14.7c6.3-3.5,13.4-5.2,21.3-5.2c7.8,0,14.9,1.7,21.3,5.2c6.4,3.5,11.4,8.4,15,14.7
							c3.7,6.4,5.5,13.7,5.5,22c0,8.3-1.9,15.6-5.6,22c-3.8,6.3-8.9,11.3-15.2,14.7c-6.4,3.5-13.6,5.2-21.5,5.2
							C2269.2,1530.1,2262.2,1528.3,2255.9,1524.9z M2287.5,1509.5c3.3-1.8,5.9-4.5,7.8-8.1c2-3.6,2.9-8,2.9-13.2
							c0-7.7-2-13.7-6.1-17.8c-4.1-4.2-9-6.2-14.9-6.2c-5.9,0-10.8,2.1-14.7,6.2c-4,4.2-5.9,10.1-5.9,17.8c0,7.7,1.9,13.7,5.8,17.8
							c3.9,4.2,8.7,6.2,14.6,6.2C2280.7,1512.2,2284.2,1511.3,2287.5,1509.5z"/>
						<path class="st1" d="M2358.4,1464.4v39.3c0,2.7,0.7,4.7,2,5.9c1.3,1.2,3.5,1.8,6.7,1.8h9.5v17.3h-12.9
							c-17.3,0-25.9-8.4-25.9-25.2v-39.1h-9.7v-16.9h9.7v-20.1h20.7v20.1h18.2v16.9H2358.4z"/>
						<path class="st1" d="M2513.7,1528.8h-20.5l-46.5-70.2v70.2h-20.5v-102.5h20.5l46.5,70.4v-70.4h20.5V1528.8z"/>
						<path class="st1" d="M2548.9,1524.9c-6.3-3.5-11.2-8.4-14.7-14.7c-3.6-6.3-5.3-13.7-5.3-22c0-8.3,1.8-15.6,5.5-22
							c3.7-6.3,8.7-11.3,15-14.7c6.3-3.5,13.4-5.2,21.2-5.2c7.8,0,14.9,1.7,21.3,5.2c6.4,3.5,11.4,8.4,15,14.7
							c3.7,6.4,5.5,13.7,5.5,22c0,8.3-1.9,15.6-5.6,22c-3.8,6.3-8.9,11.3-15.2,14.7c-6.4,3.5-13.6,5.2-21.5,5.2
							C2562.2,1530.1,2555.2,1528.3,2548.9,1524.9z M2580.5,1509.5c3.3-1.8,5.9-4.5,7.8-8.1c2-3.6,2.9-8,2.9-13.2
							c0-7.7-2-13.7-6.1-17.8s-9-6.2-14.9-6.2c-5.9,0-10.8,2.1-14.7,6.2c-4,4.2-5.9,10.1-5.9,17.8c0,7.7,1.9,13.7,5.8,17.8
							c3.9,4.2,8.7,6.2,14.6,6.2C2573.7,1512.2,2577.2,1511.3,2580.5,1509.5z"/>
						<path class="st1" d="M2627.4,1526.3c-2.4-2.3-3.6-5.1-3.6-8.6c0-3.4,1.2-6.3,3.6-8.6c2.4-2.3,5.4-3.4,9.2-3.4
							c3.6,0,6.6,1.1,8.9,3.4c2.3,2.3,3.5,5.2,3.5,8.6s-1.2,6.3-3.5,8.6c-2.3,2.3-5.3,3.4-8.9,3.4
							C2632.9,1529.8,2629.8,1528.6,2627.4,1526.3z"/>
						<path class="st1" d="M2704.6,1505.6c9.4-7.8,16.9-14.3,22.4-19.6s10.2-10.7,13.9-16.3c3.7-5.7,5.6-11.2,5.6-16.7
							c0-5-1.2-8.9-3.5-11.7c-2.3-2.8-6-4.2-10.8-4.2c-4.9,0-8.7,1.6-11.3,4.9c-2.6,3.3-4,7.7-4.1,13.4h-19.9
							c0.4-11.7,3.9-20.6,10.5-26.7c6.6-6.1,15-9.1,25.1-9.1c11.1,0,19.7,3,25.6,8.9c6,5.9,8.9,13.7,8.9,23.4
							c0,7.6-2.1,14.9-6.2,21.8c-4.1,6.9-8.8,13-14.1,18.1c-5.3,5.1-12.2,11.3-20.7,18.6h43.2v17H2697V1512L2704.6,1505.6z"/>
						<path class="st1" d="M2781.4,1507.9v-16.1l47.9-68.6h23.9v66.8h12.9v17.9h-12.9v20.8h-20.5v-20.8L2781.4,1507.9L2781.4,1507.9
							z M2834,1445.2l-30.1,44.9h30.1V1445.2z"/>
						<path class="st1" d="M2947.2,1437.4l-39,91.3h-20.8l39.3-89h-50.1v-17.6h70.7L2947.2,1437.4L2947.2,1437.4z"/>
						<path class="st1" d="M3024.3,1467.8v17.3h-62.2v-17.3H3024.3z"/>
						<path class="st1" d="M3051.4,1505.6c9.4-7.8,16.9-14.3,22.4-19.6s10.2-10.7,13.9-16.3c3.7-5.7,5.6-11.2,5.6-16.7
							c0-5-1.2-8.9-3.5-11.7c-2.3-2.8-6-4.2-10.8-4.2c-4.9,0-8.7,1.6-11.3,4.9c-2.6,3.3-4,7.7-4.1,13.4h-19.9
							c0.4-11.7,3.9-20.6,10.5-26.7c6.6-6.1,15-9.1,25.1-9.1c11.1,0,19.7,3,25.6,8.9c6,5.9,8.9,13.7,8.9,23.4
							c0,7.6-2.1,14.9-6.2,21.8c-4.1,6.9-8.8,13-14.1,18.1c-5.3,5.1-12.2,11.3-20.7,18.6h43.2v17h-72.4V1512L3051.4,1505.6z"/>
						<path class="st1" d="M3132.3,1448.6c0-5.3,1.3-10.1,4-14.4c2.7-4.3,6.7-7.8,12.2-10.4c5.4-2.6,12-3.9,19.9-3.9
							s14.4,1.3,19.9,3.9c5.4,2.6,9.5,6.1,12.2,10.4c2.7,4.3,4,9.2,4,14.4c0,5.4-1.3,10.1-4,14.1c-2.6,4.1-6.2,7.2-10.6,9.5
							c5.4,2.3,9.6,5.8,12.6,10.3c3,4.5,4.5,9.8,4.5,16c0,6.7-1.7,12.4-5.1,17.4c-3.4,4.9-8,8.7-13.9,11.4c-5.9,2.6-12.5,4-19.8,4
							c-7.3,0-13.9-1.3-19.7-4c-5.8-2.6-10.4-6.4-13.8-11.4c-3.4-4.9-5.1-10.7-5.1-17.4c0-6.1,1.5-11.5,4.5-16
							c3-4.6,7.2-7.9,12.6-10.2C3137.2,1467.1,3132.3,1459.2,3132.3,1448.6z M3154.8,1485.4c-3.5,2.8-5.2,6.9-5.2,12.2
							c0,4.9,1.7,8.9,5.1,11.9c3.4,3.1,7.9,4.6,13.7,4.6c5.8,0,10.3-1.6,13.6-4.7c3.3-3.1,5-7.1,5-11.9c0-5.2-1.7-9.2-5.1-12.1
							c-3.4-2.9-7.9-4.3-13.5-4.3C3162.8,1481.1,3158.3,1482.5,3154.8,1485.4z M3180.2,1440.4c-2.9-2.6-6.8-4-11.8-4
							c-4.9,0-8.8,1.3-11.7,4c-2.9,2.6-4.3,6.4-4.3,11.3c0,4.4,1.5,7.9,4.5,10.6c3,2.6,6.8,4,11.5,4c4.7,0,8.6-1.3,11.6-4
							c3-2.7,4.5-6.2,4.5-10.6C3184.5,1446.7,3183.1,1443,3180.2,1440.4z"/>
						<path class="st1" d="M3252.4,1508.6c2.8,2.3,6.5,3.4,11.2,3.4c6.1,0,10.5-2.5,13.2-7.6c2.7-5,4.1-13.5,4.1-25.4
							c-2.3,3.1-5.4,5.6-9.5,7.3c-4.1,1.8-8.4,2.6-13.1,2.6c-6.3,0-11.9-1.3-16.9-3.9c-5-2.6-9-6.4-11.9-11.6
							c-2.9-5.1-4.4-11.4-4.4-18.7c0-10.9,3.2-19.5,9.7-25.9s15.2-9.6,26.4-9.6c13.9,0,23.7,4.4,29.4,13.3
							c5.7,8.9,8.6,22.3,8.6,40.2c0,12.7-1.1,23.1-3.3,31.2c-2.2,8.1-6,14.3-11.3,18.5c-5.3,4.2-12.6,6.3-21.8,6.3
							c-7.2,0-13.4-1.4-18.5-4.2c-5.1-2.8-9-6.4-11.6-11c-2.7-4.6-4.2-9.6-4.6-15h19.1C3247.9,1503,3249.6,1506.3,3252.4,1508.6z
							 M3274.6,1467.6c2.9-3.1,4.4-7.3,4.4-12.6c0-5.8-1.5-10.2-4.6-13.4s-7.3-4.8-12.5-4.8c-5.3,0-9.5,1.6-12.5,4.9
							c-3.1,3.3-4.6,7.6-4.6,13c0,5.2,1.5,9.4,4.5,12.7c3,3.3,7.4,4.9,13.4,4.9C3267.7,1472.3,3271.7,1470.8,3274.6,1467.6z"/>
						<path class="st1" d="M3339.9,1507.2l-17.2,41.2h-13.2l9.5-41.2H3339.9z"/>
						<path class="st1" d="M3452.3,1509.3h-40.8l-6.7,19.5h-21.6l36.8-102.5h23.9l36.8,102.5H3459L3452.3,1509.3z M3446.7,1492.8
							l-14.8-42.8l-14.8,42.8H3446.7z"/>
						<path class="st1" d="M3515,1420.3v108.5h-20.5v-108.5H3515z"/>
						<path class="st1" d="M3646.4,1546.8l-15.5-18.6c-4.3,1.1-8.7,1.6-13.2,1.6c-9.6,0-18.4-2.2-26.4-6.7
							c-8-4.5-14.4-10.7-19.1-18.7c-4.7-8-7-17-7-27c0-10,2.3-18.9,7-26.9c4.7-8,11-14.2,19.1-18.7c8-4.5,16.8-6.7,26.4-6.7
							c9.7,0,18.5,2.2,26.5,6.7c8,4.5,14.3,10.7,18.9,18.7c4.6,8,7,16.9,7,26.9c0,9.1-1.9,17.4-5.8,24.9
							c-3.9,7.5-9.1,13.6-15.8,18.2l23.5,26.4L3646.4,1546.8L3646.4,1546.8z M3590.2,1495.3c2.6,5.2,6.3,9.2,11.1,11.9
							c4.7,2.8,10.2,4.2,16.3,4.2c6.1,0,11.6-1.4,16.3-4.2c4.7-2.8,8.4-6.8,11-11.9c2.6-5.2,4-11.2,4-18c0-6.8-1.3-12.8-4-18
							c-2.6-5.1-6.3-9.1-11-11.8c-4.7-2.7-10.1-4.1-16.3-4.1c-6.2,0-11.6,1.4-16.3,4.1c-4.7,2.7-8.4,6.7-11.1,11.8
							c-2.6,5.1-4,11.1-4,18C3586.3,1484.1,3587.6,1490.2,3590.2,1495.3z"/>
						<path class="st1" d="M3762.2,1447.5v81.2h-20.7v-10.3c-2.6,3.5-6.1,6.3-10.3,8.3c-4.3,2-8.9,3-13.8,3c-6.4,0-12-1.3-16.9-4
							c-4.9-2.7-8.7-6.6-11.5-11.9c-2.8-5.2-4.2-11.4-4.2-18.7v-47.6h20.5v44.7c0,6.4,1.6,11.4,4.8,14.9c3.2,3.5,7.6,5.2,13.2,5.2
							c5.7,0,10.1-1.7,13.3-5.2c3.2-3.5,4.8-8.4,4.8-14.9v-44.7H3762.2L3762.2,1447.5z"/>
						<path class="st1" d="M3795.6,1526.5c-5.3-2.4-9.5-5.6-12.5-9.8c-3.1-4.1-4.8-8.6-5.1-13.6h20.7c0.4,3.1,1.9,5.7,4.6,7.8
							c2.7,2,6,3.1,10,3.1c3.9,0,7-0.8,9.2-2.3c2.2-1.6,3.3-3.6,3.3-6c0-2.6-1.3-4.6-4-5.9c-2.7-1.3-7-2.8-12.8-4.3
							c-6.1-1.5-11-3-14.9-4.5c-3.9-1.6-7.2-4-10-7.2c-2.8-3.2-4.2-7.6-4.2-13c0-4.5,1.3-8.6,3.9-12.3c2.6-3.7,6.3-6.7,11.1-8.8
							c4.8-2.2,10.5-3.2,17.1-3.2c9.7,0,17.4,2.4,23.2,7.3c5.8,4.8,8.9,11.4,9.5,19.6h-19.6c-0.3-3.2-1.6-5.8-4-7.7
							c-2.4-1.9-5.6-2.9-9.6-2.9c-3.7,0-6.6,0.7-8.6,2.1c-2,1.4-3,3.3-3,5.7c0,2.7,1.4,4.8,4.1,6.2c2.7,1.4,7,2.9,12.7,4.3
							c5.9,1.5,10.7,3,14.5,4.5c3.8,1.6,7.1,4,9.9,7.3c2.8,3.3,4.2,7.6,4.3,13c0,4.7-1.3,8.9-3.9,12.6c-2.6,3.7-6.3,6.6-11.1,8.7
							c-4.8,2.1-10.5,3.1-16.9,3.1C3806.8,1530.1,3800.9,1528.9,3795.6,1526.5z"/>
						<path class="st1" d="M3861.9,1466c3.3-6.3,7.7-11.2,13.3-14.7c5.6-3.4,11.9-5.1,18.8-5.1c6.1,0,11.4,1.2,15.9,3.7
							c4.5,2.4,8.2,5.5,10.9,9.2v-11.6h20.7v81.2h-20.7v-11.9c-2.6,3.8-6.3,7-10.9,9.4c-4.6,2.5-10,3.7-16,3.7
							c-6.8,0-13.1-1.7-18.7-5.3c-5.6-3.5-10.1-8.5-13.3-14.9c-3.3-6.4-4.9-13.8-4.9-22.1C3857,1479.7,3858.6,1472.4,3861.9,1466z
							 M3918,1475.3c-2-3.6-4.6-6.3-7.9-8.2c-3.3-1.9-6.9-2.9-10.7-2.9c-3.8,0-7.3,0.9-10.6,2.8c-3.2,1.9-5.8,4.6-7.8,8.1
							c-2,3.6-3,7.8-3,12.7s1,9.2,3,12.8c2,3.7,4.6,6.5,7.9,8.4c3.3,2,6.8,2.9,10.5,2.9c3.8,0,7.4-0.9,10.7-2.9
							c3.3-1.9,6-4.6,7.9-8.2c2-3.6,2.9-7.8,2.9-12.8C3920.9,1483.2,3919.9,1478.9,3918,1475.3z"/>
						<path class="st1" d="M3963.1,1434.4c-2.4-2.3-3.6-5.2-3.6-8.6s1.2-6.3,3.6-8.6c2.4-2.3,5.4-3.4,9-3.4s6.6,1.2,9,3.4
							c2.4,2.3,3.6,5.2,3.6,8.6s-1.2,6.3-3.6,8.6c-2.4,2.3-5.4,3.5-9,3.5S3965.4,1436.7,3963.1,1434.4z M3982.2,1447.5v81.2h-20.5
							v-81.2H3982.2z"/>
						<path class="st1" d="M4015.6,1526.5c-5.3-2.4-9.5-5.6-12.5-9.8c-3.1-4.1-4.8-8.6-5.1-13.6h20.7c0.4,3.1,1.9,5.7,4.6,7.8
							c2.7,2,6,3.1,10,3.1c3.9,0,7-0.8,9.2-2.3c2.2-1.6,3.3-3.6,3.3-6c0-2.6-1.3-4.6-4-5.9c-2.7-1.3-7-2.8-12.8-4.3
							c-6.1-1.5-11-3-14.9-4.5c-3.9-1.6-7.2-4-10-7.2c-2.8-3.2-4.2-7.6-4.2-13c0-4.5,1.3-8.6,3.9-12.3c2.6-3.7,6.3-6.7,11.1-8.8
							c4.8-2.2,10.5-3.2,17.1-3.2c9.7,0,17.4,2.4,23.2,7.3c5.8,4.8,8.9,11.4,9.5,19.6h-19.6c-0.3-3.2-1.6-5.8-4-7.7
							c-2.4-1.9-5.6-2.9-9.6-2.9c-3.7,0-6.6,0.7-8.6,2.1c-2,1.4-3,3.3-3,5.7c0,2.7,1.4,4.8,4.1,6.2c2.7,1.4,7,2.9,12.7,4.3
							c5.9,1.5,10.7,3,14.5,4.5c3.8,1.6,7.1,4,9.9,7.3c2.8,3.3,4.2,7.6,4.3,13c0,4.7-1.3,8.9-3.9,12.6c-2.6,3.7-6.3,6.6-11.1,8.7
							c-4.8,2.1-10.5,3.1-16.9,3.1C4026.8,1530.1,4020.9,1528.9,4015.6,1526.5z"/>
						<path class="st1" d="M4137.7,1426.4v102.3h-20.5v-102.3H4137.7z"/>
						<path class="st1" d="M4226.4,1455.5c6,6.1,8.9,14.6,8.9,25.6v47.6h-20.5v-44.9c0-6.4-1.6-11.4-4.8-14.9
							c-3.2-3.5-7.6-5.2-13.2-5.2c-5.7,0-10.1,1.7-13.4,5.2c-3.3,3.5-4.9,8.4-4.9,14.9v44.9h-20.5v-81.2h20.5v10.1
							c2.7-3.5,6.2-6.3,10.5-8.3c4.2-2,8.9-3,14-3C4212.6,1446.4,4220.4,1449.4,4226.4,1455.5z"/>
						<path class="st1" d="M4254.4,1466c3.3-6.3,7.8-11.2,13.4-14.7c5.7-3.4,12-5.1,18.9-5.1c5.3,0,10.3,1.1,15.1,3.4
							c4.8,2.3,8.6,5.4,11.4,9.2v-38.6h20.8v108.5h-20.8v-12c-2.6,4-6.1,7.2-10.7,9.7c-4.6,2.4-9.9,3.7-16,3.7
							c-6.8,0-13.1-1.7-18.8-5.3c-5.7-3.5-10.1-8.5-13.4-14.9s-4.9-13.8-4.9-22.1C4249.5,1479.7,4251.2,1472.4,4254.4,1466z
							 M4310.5,1475.3c-2-3.6-4.6-6.3-7.9-8.2c-3.3-1.9-6.9-2.9-10.7-2.9s-7.3,0.9-10.5,2.8c-3.2,1.9-5.8,4.6-7.8,8.1
							c-2,3.6-3,7.8-3,12.7s1,9.2,3,12.8c2,3.7,4.6,6.5,7.9,8.4c3.3,2,6.8,2.9,10.5,2.9c3.8,0,7.4-0.9,10.7-2.9
							c3.3-1.9,6-4.6,7.9-8.2c2-3.6,2.9-7.8,2.9-12.8C4313.5,1483.2,4312.5,1478.9,4310.5,1475.3z"/>
						<path class="st1" d="M4430.9,1447.5v81.2h-20.7v-10.3c-2.6,3.5-6.1,6.3-10.3,8.3c-4.3,2-8.9,3-13.8,3c-6.4,0-12-1.3-16.9-4
							c-4.9-2.7-8.7-6.6-11.5-11.9c-2.8-5.2-4.2-11.4-4.2-18.7v-47.6h20.5v44.7c0,6.4,1.6,11.4,4.8,14.9c3.2,3.5,7.6,5.2,13.2,5.2
							c5.7,0,10.1-1.7,13.3-5.2c3.2-3.5,4.8-8.4,4.8-14.9v-44.7H4430.9L4430.9,1447.5z"/>
						<path class="st1" d="M4464.3,1526.5c-5.3-2.4-9.4-5.6-12.5-9.8c-3.1-4.1-4.8-8.6-5-13.6h20.7c0.4,3.1,1.9,5.7,4.6,7.8
							c2.7,2,6,3.1,10,3.1c3.9,0,7-0.8,9.2-2.3c2.2-1.6,3.3-3.6,3.3-6c0-2.6-1.3-4.6-4-5.9c-2.7-1.3-7-2.8-12.8-4.3
							c-6.1-1.5-11-3-14.9-4.5c-3.9-1.6-7.2-4-10-7.2c-2.8-3.2-4.2-7.6-4.2-13c0-4.5,1.3-8.6,3.9-12.3c2.6-3.7,6.3-6.7,11.1-8.8
							c4.8-2.2,10.5-3.2,17.1-3.2c9.7,0,17.4,2.4,23.2,7.3s8.9,11.4,9.5,19.6h-19.6c-0.3-3.2-1.6-5.8-4-7.7
							c-2.4-1.9-5.6-2.9-9.6-2.9c-3.7,0-6.6,0.7-8.6,2.1s-3,3.3-3,5.7c0,2.7,1.4,4.8,4.1,6.2c2.7,1.4,7,2.9,12.7,4.3
							c5.9,1.5,10.7,3,14.5,4.5c3.8,1.6,7.1,4,9.9,7.3c2.8,3.3,4.2,7.6,4.3,13c0,4.7-1.3,8.9-3.9,12.6c-2.6,3.7-6.3,6.6-11.1,8.7
							c-4.8,2.1-10.5,3.1-16.9,3.1C4475.5,1530.1,4469.6,1528.9,4464.3,1526.5z"/>
						<path class="st1" d="M4554.9,1464.4v39.3c0,2.7,0.7,4.7,2,5.9c1.3,1.2,3.5,1.8,6.7,1.8h9.5v17.3h-12.9
							c-17.3,0-25.9-8.4-25.9-25.2v-39.1h-9.7v-16.9h9.7v-20.1h20.7v20.1h18.2v16.9H4554.9z"/>
						<path class="st1" d="M4618.7,1450c4.2-2.4,9.1-3.7,14.6-3.7v21.6h-5.4c-6.4,0-11.3,1.5-14.6,4.6c-3.3,3-4.9,8.3-4.9,15.8v40.5
							h-20.5v-81.2h20.5v12.6C4611,1455.9,4614.4,1452.5,4618.7,1450z"/>
						<path class="st1" d="M4648.5,1434.4c-2.4-2.3-3.6-5.2-3.6-8.6s1.2-6.3,3.6-8.6c2.4-2.3,5.4-3.4,9-3.4c3.6,0,6.6,1.2,9,3.4
							c2.4,2.3,3.6,5.2,3.6,8.6s-1.2,6.3-3.6,8.6c-2.4,2.3-5.4,3.5-9,3.5C4653.9,1437.9,4650.9,1436.7,4648.5,1434.4z
							 M4667.6,1447.5v81.2h-20.5v-81.2H4667.6z"/>
						<path class="st1" d="M4687.5,1466c3.3-6.3,7.7-11.2,13.3-14.7c5.6-3.4,11.9-5.1,18.8-5.1c6.1,0,11.3,1.2,15.9,3.7
							c4.5,2.4,8.2,5.5,10.9,9.2v-11.6h20.7v81.2h-20.7v-11.9c-2.6,3.8-6.3,7-10.9,9.4c-4.6,2.5-10,3.7-16.1,3.7
							c-6.8,0-13.1-1.7-18.7-5.3c-5.6-3.5-10.1-8.5-13.3-14.9c-3.3-6.4-4.9-13.8-4.9-22.1C4682.5,1479.7,4684.2,1472.4,4687.5,1466z
							 M4743.5,1475.3c-2-3.6-4.6-6.3-7.9-8.2c-3.3-1.9-6.9-2.9-10.7-2.9s-7.3,0.9-10.5,2.8c-3.2,1.9-5.8,4.6-7.8,8.1
							c-2,3.6-3,7.8-3,12.7s1,9.2,3,12.8c2,3.7,4.6,6.5,7.9,8.4c3.3,2,6.8,2.9,10.5,2.9c3.8,0,7.4-0.9,10.7-2.9
							c3.3-1.9,6-4.6,7.9-8.2c2-3.6,2.9-7.8,2.9-12.8C4746.4,1483.2,4745.5,1478.9,4743.5,1475.3z"/>
						<path class="st1" d="M4807.7,1420.3v108.5h-20.5v-108.5H4807.7z"/>
						<path class="st1" d="M4925.6,1509.3h-40.8l-6.7,19.5h-21.6l36.8-102.5h23.9l36.8,102.5h-21.7L4925.6,1509.3z M4920,1492.8
							l-14.8-42.8l-14.8,42.8H4920z"/>
						<path class="st1" d="M4998.6,1450c4.3-2.4,9.1-3.7,14.6-3.7v21.6h-5.4c-6.4,0-11.3,1.5-14.6,4.6c-3.3,3-4.9,8.3-4.9,15.8v40.5
							h-20.5v-81.2h20.5v12.6C4991,1455.9,4994.4,1452.5,4998.6,1450z"/>
						<path class="st1" d="M5101.9,1494.3h-59.4c0.5,5.9,2.5,10.5,6.1,13.8c3.6,3.3,8.1,5,13.3,5c7.6,0,13.1-3.3,16.3-9.8h22.1
							c-2.3,7.8-6.8,14.2-13.5,19.3c-6.7,5-14.8,7.6-24.5,7.6c-7.8,0-14.8-1.7-21-5.2c-6.2-3.5-11-8.4-14.5-14.7
							c-3.5-6.3-5.2-13.7-5.2-22c0-8.4,1.7-15.8,5.1-22.1c3.4-6.3,8.2-11.2,14.4-14.7c6.2-3.4,13.2-5.1,21.3-5.1
							c7.7,0,14.6,1.7,20.7,5c6.1,3.3,10.8,8,14.2,14.1c3.4,6.1,5,13.1,5,21C5102.5,1489.3,5102.3,1492,5101.9,1494.3z
							 M5081.2,1480.5c-0.1-5.3-2-9.5-5.7-12.7c-3.7-3.2-8.3-4.8-13.6-4.8c-5.1,0-9.4,1.5-12.8,4.6s-5.6,7.4-6.4,12.8H5081.2z"/>
						<path class="st1" d="M5117.1,1466c3.3-6.3,7.7-11.2,13.3-14.7c5.6-3.4,11.9-5.1,18.8-5.1c6.1,0,11.4,1.2,15.9,3.7
							c4.6,2.4,8.2,5.5,10.9,9.2v-11.6h20.7v81.2h-20.7v-11.9c-2.6,3.8-6.3,7-10.9,9.4c-4.6,2.5-10,3.7-16,3.7
							c-6.8,0-13.1-1.7-18.7-5.3c-5.6-3.5-10.1-8.5-13.3-14.9c-3.3-6.4-4.9-13.8-4.9-22.1C5112.2,1479.7,5113.8,1472.4,5117.1,1466z
							 M5173.2,1475.3c-2-3.6-4.6-6.3-7.9-8.2c-3.3-1.9-6.9-2.9-10.7-2.9c-3.8,0-7.3,0.9-10.6,2.8c-3.2,1.9-5.8,4.6-7.8,8.1
							c-2,3.6-3,7.8-3,12.7s1,9.2,3,12.8c2,3.7,4.6,6.5,7.9,8.4c3.3,2,6.8,2.9,10.5,2.9c3.8,0,7.4-0.9,10.7-2.9
							c3.3-1.9,6-4.6,7.9-8.2c2-3.6,2.9-7.8,2.9-12.8C5176.1,1483.2,5175.1,1478.9,5173.2,1475.3z"/>
						<path class="st1" d="M5248.5,1507.9v-16.1l47.9-68.6h23.9v66.8h12.9v17.9h-12.9v20.8h-20.5v-20.8L5248.5,1507.9L5248.5,1507.9
							z M5301.1,1445.2l-30.1,44.9h30.1V1445.2z"/>
						<path class="st1" d="M5371,1507.2l-17.1,41.2h-13.2l9.5-41.2H5371z"/>
						<path class="st1" d="M5484.8,1432.7c8.2,4.2,14.5,10.2,18.9,18c4.4,7.8,6.7,16.8,6.7,27c0,10.3-2.2,19.2-6.7,26.9
							s-10.7,13.6-18.9,17.8c-8.2,4.2-17.6,6.3-28.4,6.3h-35.8v-102.3h35.8C5467.2,1426.4,5476.7,1428.5,5484.8,1432.7z
							 M5480.7,1502.5c5.9-5.9,8.8-14.1,8.8-24.8c0-10.6-2.9-19-8.8-25c-5.9-6-14.2-9-24.9-9h-14.5v67.6h14.5
							C5466.5,1511.3,5474.8,1508.4,5480.7,1502.5z"/>
						<path class="st1" d="M5602.5,1447.5v81.2h-20.7v-10.3c-2.6,3.5-6.1,6.3-10.3,8.3c-4.2,2-8.9,3-13.8,3c-6.4,0-12-1.3-16.9-4
							c-4.9-2.7-8.7-6.6-11.5-11.9c-2.8-5.2-4.2-11.4-4.2-18.7v-47.6h20.5v44.7c0,6.4,1.6,11.4,4.8,14.9c3.2,3.5,7.6,5.2,13.2,5.2
							c5.7,0,10.1-1.7,13.3-5.2c3.2-3.5,4.8-8.4,4.8-14.9v-44.7H5602.5L5602.5,1447.5z"/>
						<path class="st1" d="M5654.2,1449.9c4.6-2.4,9.9-3.7,15.9-3.7c6.9,0,13.2,1.7,18.8,5.1c5.6,3.4,10.1,8.3,13.3,14.6
							c3.3,6.3,4.9,13.6,4.9,21.9c0,8.3-1.6,15.7-4.9,22.1c-3.3,6.4-7.7,11.4-13.3,14.9c-5.6,3.5-11.9,5.3-18.8,5.3
							c-6.1,0-11.4-1.2-15.9-3.6c-4.5-2.4-8.2-5.5-10.9-9.3v11.6h-20.5v-108.5h20.5v39.1C5645.9,1455.5,5649.5,1452.3,5654.2,1449.9
							z M5683.2,1475.2c-2-3.6-4.6-6.3-7.9-8.1c-3.3-1.9-6.8-2.8-10.6-2.8c-3.7,0-7.2,1-10.5,2.9s-5.9,4.7-7.9,8.3
							c-2,3.6-3,7.9-3,12.7c0,4.9,1,9.1,3,12.7c2,3.6,4.6,6.4,7.9,8.3c3.3,1.9,6.8,2.9,10.5,2.9c3.8,0,7.4-1,10.6-2.9
							c3.3-2,5.9-4.7,7.9-8.4c2-3.6,3-7.9,3-12.9C5686.2,1483,5685.2,1478.7,5683.2,1475.2z"/>
						<path class="st1" d="M5721.7,1466c3.3-6.3,7.7-11.2,13.3-14.7c5.6-3.4,11.9-5.1,18.8-5.1c6.1,0,11.4,1.2,15.9,3.7
							c4.5,2.4,8.2,5.5,10.9,9.2v-11.6h20.7v81.2h-20.7v-11.9c-2.6,3.8-6.3,7-10.9,9.4c-4.6,2.5-10,3.7-16.1,3.7
							c-6.8,0-13.1-1.7-18.7-5.3c-5.6-3.5-10.1-8.5-13.3-14.9c-3.3-6.4-4.9-13.8-4.9-22.1C5716.8,1479.7,5718.5,1472.4,5721.7,1466z
							 M5777.8,1475.3c-2-3.6-4.6-6.3-7.9-8.2c-3.3-1.9-6.9-2.9-10.7-2.9c-3.8,0-7.3,0.9-10.6,2.8c-3.2,1.9-5.8,4.6-7.8,8.1
							c-2,3.6-3,7.8-3,12.7s1,9.2,3,12.8c2,3.7,4.6,6.5,7.9,8.4c3.3,2,6.8,2.9,10.5,2.9c3.8,0,7.4-0.9,10.7-2.9
							c3.3-1.9,6-4.6,7.9-8.2c2-3.6,2.9-7.8,2.9-12.8C5780.7,1483.2,5779.8,1478.9,5777.8,1475.3z"/>
						<path class="st1" d="M5822.9,1434.4c-2.4-2.3-3.6-5.2-3.6-8.6s1.2-6.3,3.6-8.6c2.4-2.3,5.4-3.4,9-3.4c3.6,0,6.6,1.2,9,3.4
							c2.4,2.3,3.6,5.2,3.6,8.6s-1.2,6.3-3.6,8.6c-2.4,2.3-5.4,3.5-9,3.5C5828.3,1437.9,5825.3,1436.7,5822.9,1434.4z M5842,1447.5
							v81.2h-20.5v-81.2H5842z"/>
						<path class="st1" d="M5959.6,1467.8v17.3h-62.2v-17.3H5959.6z"/>
						<path class="st1" d="M6037.7,1426.4v63.3c0,6.9,1.8,12.2,5.4,15.9c3.6,3.7,8.7,5.5,15.3,5.5c6.6,0,11.8-1.8,15.4-5.5
							c3.6-3.7,5.4-9,5.4-15.9v-63.3h20.7v63.2c0,8.7-1.9,16-5.6,22.1c-3.8,6-8.8,10.5-15.1,13.6c-6.3,3-13.3,4.5-21,4.5
							c-7.6,0-14.6-1.5-20.7-4.5c-6.2-3-11.1-7.6-14.7-13.6c-3.6-6-5.4-13.4-5.4-22.1v-63.2H6037.7z"/>
						<path class="st1" d="M6182.4,1509.3h-40.7l-6.7,19.5h-21.6l36.8-102.5h23.9l36.8,102.5h-21.7L6182.4,1509.3z M6176.8,1492.8
							L6162,1450l-14.8,42.8H6176.8z"/>
						<path class="st1" d="M6245.1,1443v25.7h34.4v16.3h-34.4v27.1h38.8v16.7h-59.4v-102.5h59.4v16.7H6245.1z"/>
					</g>
					<g>
						<path class="st1" d="M666.3,1450.2c-14.9-0.4-27.4,11.5-27.8,26.4c-0.4,15.3,11.4,27.7,26.6,28.1c15,0.4,27.4-11.6,27.8-27
							C693.3,1463.1,681.1,1450.6,666.3,1450.2z"/>
						<path class="st1" d="M566.5,1399.2v198.1h198.1v-198.1H566.5z M708.8,1509.4c-5.6,10.3-12.9,19.6-20,28.9
							c-7.6,9.9-14.9,20-20.8,31.1c-1.2,2.2-3.5,2.3-4.6,0.3c-8.6-16.4-20.4-30.7-31.1-45.7c-6.1-8.6-11.6-17.6-15.4-27.7
							c-7.6-20.2-2-43.5,14.4-57.7c10.4-9.1,22.6-13.4,36.3-12.9c14.4,0.5,26.4,6.4,36,17c7.2,7.8,11.5,17.1,13.3,27.7
							c0.5,2.7,0.8,5.5,0.5,7.7C717.6,1489.5,714.1,1499.7,708.8,1509.4z"/>
					</g>
				</g>
			</g>
			<g>
				<g>
					<g>
						<g>
							<defs>
								<rect id="SVGID_1_" x="6628.1" y="1063.6" width="986.7" height="986.7"/>
							</defs>
							<clipPath id="SVGID_00000098917902199395376850000000169292738659291543_">
								<use xlink:href="#SVGID_1_"  style="overflow:visible;"/>
							</clipPath>
							<g style="clip-path:url(#SVGID_00000098917902199395376850000000169292738659291543_);">
								
									<image style="overflow:visible;enable-background:new    ;" width="743" height="699" xlink:href="8357FB12.jpg"  transform="matrix(1.6622 0 0 1.6622 6512.9531 966.5555)">
								</image>
							</g>
						</g>
					</g>
				</g>
				<g>
					<g>
						<path class="st0" d="M6617.5,1053v1007.9h1008V1053H6617.5z M6638.7,2039.8v-965.7h965.7v965.7H6638.7z"/>
					</g>
				</g>
			</g>
		</g>
	</g>
</g>
</svg>
