<?xml version="1.0" encoding="UTF-8"?>
<svg version="1.1" xmlns="http://www.w3.org/2000/svg" width="279" height="148">
<path d="M0 0 C0.66 0.33 1.32 0.66 2 1 C2.33 0.67 2.66 0.34 3 0 C4.73836291 -0.10410433 6.48094777 -0.13853527 8.22241211 -0.14526367 C9.3370433 -0.15164352 10.4516745 -0.15802338 11.6000824 -0.16459656 C13.42032677 -0.16626579 13.42032677 -0.16626579 15.27734375 -0.16796875 C17.13257408 -0.17296135 17.13257408 -0.17296135 19.02528381 -0.17805481 C21.64730455 -0.1831293 24.26933178 -0.18546298 26.89135742 -0.18530273 C29.58706342 -0.18522129 32.28260019 -0.19218657 34.97827148 -0.20581055 C38.84884898 -0.22405346 42.71922767 -0.22903586 46.58984375 -0.23046875 C47.80131577 -0.23765427 49.01278778 -0.24483978 50.26097107 -0.25224304 C51.37875443 -0.24916641 52.49653778 -0.24608978 53.64819336 -0.24291992 C54.63556992 -0.24434494 55.62294647 -0.24576996 56.64024353 -0.24723816 C59 -0 59 -0 61 2 C62.32 2 63.64 2 65 2 C65 2.66 65 3.32 65 4 C66.01707031 4.03867188 66.01707031 4.03867188 67.0546875 4.078125 C73.24635127 4.45545631 78.17407931 5.55175665 83.80859375 8.16015625 C86.23137805 9.23857563 86.23137805 9.23857563 90 9 C90.33 9.66 90.66 10.32 91 11 C92.66128463 11.35919668 94.32900023 11.68911632 96 12 C98.25 12.8125 98.25 12.8125 100 14 C103.73347424 24.73979927 100.62408767 39.82214398 100 51 C100.61415771 51.12842285 101.22831543 51.2568457 101.86108398 51.38916016 C102.66876221 51.56237793 103.47644043 51.7355957 104.30859375 51.9140625 C105.10837646 52.08373535 105.90815918 52.2534082 106.73217773 52.42822266 C109.61009561 53.15382107 111.72024639 54.08794859 114 56 C114 57.32 114 58.64 114 60 C114.99 60.33 115.98 60.66 117 61 C117 61.66 117 62.32 117 63 C113.98554002 63.60420549 111.07989592 64.06232504 108 64 C105.25 62 105.25 62 103 60 C100.24875747 60.13149826 100.24875747 60.13149826 98 61 C97.67 62.32 97.34 63.64 97 65 C96.34 65 95.68 65 95 65 C95.495 65.598125 95.99 66.19625 96.5 66.8125 C98 69 98 69 98 72 C100.31 72 102.62 72 105 72 C105.33 71.34 105.66 70.68 106 70 C108.06640625 69.5859375 108.06640625 69.5859375 110.5625 69.375 C111.80193359 69.26285156 111.80193359 69.26285156 113.06640625 69.1484375 C113.70449219 69.09945312 114.34257812 69.05046875 115 69 C115.66 70.32 116.32 71.64 117 73 C115.92130607 73.96355244 114.83681257 74.92061417 113.75 75.875 C113.14671875 76.40867187 112.5434375 76.94234375 111.921875 77.4921875 C110 79 110 79 107.828125 80.0703125 C105.82067823 80.86319792 105.82067823 80.86319792 105 83 C106.546875 82.690625 106.546875 82.690625 108.125 82.375 C112.14213028 81.98624546 114.33389942 82.42881404 118 84 C118.33 84.33 118.66 84.66 119 85 C119.66 84.34 120.32 83.68 121 83 C123.0234375 82.83984375 123.0234375 82.83984375 125.375 82.9375 C128.47710865 83.05681187 131.01455122 82.87927601 134 82 C135.61949011 84.57213134 136.04408751 85.67669159 135.625 88.75 C135.41875 89.4925 135.2125 90.235 135 91 C136.32 91.66 137.64 92.32 139 93 C137 95 137 95 134.90625 95.16015625 C133.71515625 95.11181641 133.71515625 95.11181641 132.5 95.0625 C129.11792042 94.8800954 129.11792042 94.8800954 126 96 C122.9375 95.6875 122.9375 95.6875 120 95 C119.67 94.34 119.34 93.68 119 93 C118.67 93.66 118.34 94.32 118 95 C115.35139573 95.59355614 112.70802678 95.74209269 110 96 C109.34 95.01 108.68 94.02 108 93 C107.67 93.66 107.34 94.32 107 95 C105.35 94.67 103.7 94.34 102 94 C102 92.68 102 91.36 102 90 C101.34 91.65 100.68 93.3 100 95 C99.278125 94.814375 98.55625 94.62875 97.8125 94.4375 C94.79670877 93.96837692 92.94378801 94.28200292 90 95 C88.00102872 95.33944795 86.00124361 95.67421616 84 96 C83.82597656 96.85464844 83.82597656 96.85464844 83.6484375 97.7265625 C79.6864327 111.61744681 66.18673325 124.73689717 55 133 C53.93744848 133.81203393 52.87628792 134.62589064 51.81640625 135.44140625 C47.33580104 138.86575743 42.88391701 142.1647059 38 145 C37.05125 145.5775 36.1025 146.155 35.125 146.75 C31.14135869 148.34345652 29.14090124 148.07092273 25 147 C22.89800973 146.07737068 20.8831635 145.0669067 18.86328125 143.9765625 C16.86858003 142.87757455 16.86858003 142.87757455 14.0625 141.9375 C13.381875 141.628125 12.70125 141.31875 12 141 C11.67 140.01 11.34 139.02 11 138 C8.88593822 136.32135365 8.88593822 136.32135365 6.25 134.625 C-0.97647862 129.54565574 -6.89065523 123.34365202 -13 117 C-13.55171875 116.50798096 -14.1034375 116.01596191 -14.671875 115.5090332 C-16 114 -16 114 -16 111 C-16.9590625 110.62875 -16.9590625 110.62875 -17.9375 110.25 C-20 109 -20 109 -20.625 106.9375 C-20.74875 106.298125 -20.8725 105.65875 -21 105 C-21.66 104.67 -22.32 104.34 -23 104 C-23 103.01 -23 102.02 -23 101 C-23.66 100.67 -24.32 100.34 -25 100 C-27.0095568 97.06295544 -28 95.60777515 -28 92 C-28.66 91.67 -29.32 91.34 -30 91 C-31.10546875 89.29296875 -31.10546875 89.29296875 -32.1875 87.1875 C-32.73470703 86.15689453 -32.73470703 86.15689453 -33.29296875 85.10546875 C-34.12087895 82.64003451 -33.85276722 81.41707906 -33 79 C-33.66 78.67 -34.32 78.34 -35 78 C-35.74822059 75.66181065 -36.3878635 73.37202892 -37 71 C-37.3189624 69.95175049 -37.6379248 68.90350098 -37.96655273 67.82348633 C-41.02829815 56.49582392 -41.39504866 44.53837078 -41.42553711 32.85864258 C-41.4377487 30.64236275 -41.48746208 28.428613 -41.53710938 26.21289062 C-41.54654491 24.79167994 -41.55379358 23.37045265 -41.55859375 21.94921875 C-41.57204834 20.68424561 -41.58550293 19.41927246 -41.59936523 18.1159668 C-41 15 -41 15 -38.65258789 13.06567383 C-36 12 -36 12 -33 12 C-32.67 11.34 -32.34 10.68 -32 10 C-27.21838486 8.19361206 -23.1053558 7 -18 7 C-17.67 6.34 -17.34 5.68 -17 5 C-14.453125 4.21875 -14.453125 4.21875 -11.25 3.5 C-8.10399374 2.78711188 -5.21313172 2.08910592 -2.234375 0.84375 C-1.12835938 0.42609375 -1.12835938 0.42609375 0 0 Z M-1 10 C-1.93070313 10.17917969 -2.86140625 10.35835937 -3.8203125 10.54296875 C-11.01159974 11.94552477 -17.86884412 13.8014447 -24.8125 16.125 C-26.00480225 16.52368286 -26.00480225 16.52368286 -27.22119141 16.93041992 C-30.89379927 17.9622169 -30.89379927 17.9622169 -34 20 C-35.26209293 36.75141524 -33.76336379 52.91685533 -29 69 C-28.67902344 70.11117187 -28.35804687 71.22234375 -28.02734375 72.3671875 C-22.38948972 90.51339867 -12.99648397 106.0865901 0.3125 119.6875 C0.81628174 120.20546143 1.32006348 120.72342285 1.83911133 121.25708008 C4.53055117 123.91255613 6.37808268 125.14449194 10 126 C10.66666667 127.33333333 11.33333333 128.66666667 12 130 C14.4412652 131.92792709 14.4412652 131.92792709 17.3125 133.625 C18.72982422 134.51058594 18.72982422 134.51058594 20.17578125 135.4140625 C22.74441551 136.85647676 25.24717484 137.96709831 28 139 C28.66 139.33 29.32 139.66 30 140 C32.22083786 139.07961079 32.22083786 139.07961079 34.5625 137.6875 C35.77099609 137.01267578 35.77099609 137.01267578 37.00390625 136.32421875 C39.13201089 135.15106249 39.13201089 135.15106249 40 133 C40.66 132.67 41.32 132.34 42 132 C44.96820305 130.3509983 47.60195701 128.56228086 50.1875 126.375 C53 124 53 124 55 123 C55 122.34 55 121.68 55 121 C55.5775 120.7525 56.155 120.505 56.75 120.25 C59.32939979 118.81700012 61.06121592 117.21575324 63 115 C63 114.34 63 113.68 63 113 C63.66 113 64.32 113 65 113 C66.03435556 111.35443434 67.02763513 109.6829392 68 108 C68.721875 107.113125 69.44375 106.22625 70.1875 105.3125 C72.20562722 103.22734216 72.20562722 103.22734216 72 101 C72.66 100.67 73.32 100.34 74 100 C74.495 98.515 74.495 98.515 75 97 C77.31 97 79.62 97 82 97 C81.34 95.68 80.68 94.36 80 93 C79.01 93 78.02 93 77 93 C76.34 93.66 75.68 94.32 75 95 C72.69 94.34 70.38 93.68 68 93 C67.25 90.3125 67.25 90.3125 67 87 C68.9375 84.125 68.9375 84.125 71 82 C70.19134935 79.80230256 70.19134935 79.80230256 67.96875 79.2890625 C66.32421594 78.84670366 64.67837026 78.40919219 63.03125 77.9765625 C61 77 61 77 60.34375 75.1484375 C60.2303125 74.43945312 60.116875 73.73046875 60 73 C59.63777344 72.35933594 59.27554688 71.71867187 58.90234375 71.05859375 C57.16347592 67.09156628 58.63336443 62.94663917 60 59 C62.98354332 55.25144557 65.20715738 53.32450171 70.05078125 52.76171875 C75.60650998 52.57940641 78.59300334 53.3104214 83 57 C84.36886951 58.29682374 85.7169291 59.61823134 87 61 C89.64752004 58.42215154 91.94432065 56.08351902 94 53 C93.34 52.67 92.68 52.34 92 52 C92.01160156 51.37351563 92.02320313 50.74703125 92.03515625 50.1015625 C92.04417969 49.28429688 92.05320312 48.46703125 92.0625 47.625 C92.07410156 46.81289063 92.08570313 46.00078125 92.09765625 45.1640625 C92.14466334 42.95062858 92.14466334 42.95062858 91 41 C91.66 41 92.32 41 93 41 C93 34.07 93 27.14 93 20 C82.73284883 15.94089372 72.79425649 12.45925243 62 10.125 C61.07050537 9.92237549 60.14101074 9.71975098 59.18334961 9.51098633 C49.05689743 7.42483094 39.01005276 6.80461417 28.6875 6.8125 C27.69000732 6.81258057 26.69251465 6.81266113 25.66479492 6.81274414 C16.56070111 6.88274729 7.84799423 7.77516586 -1 10 Z M67.6875 60.5 C65.52512456 63.70351917 65.70223493 65.50985009 66.38671875 69.22265625 C66.89274974 71.17241658 66.89274974 71.17241658 68.8125 72.5625 C71.27135851 73.0542717 72.64305238 72.78564921 75 72 C75.66 72 76.32 72 77 72 C77 71.34 77 70.68 77 70 C80.66666667 70 84.33333333 70 88 70 C88 67.69 88 65.38 88 63 C85.44787237 62.14929079 84.19892138 61.94389397 81.5625 62.6875 C79 63 79 63 76.4375 61.0625 C75.633125 60.381875 74.82875 59.70125 74 59 C70.09991009 58.63720593 70.09991009 58.63720593 67.6875 60.5 Z M85 71 C84.690625 71.9075 84.38125 72.815 84.0625 73.75 C81.23805045 78.20064778 77.83786383 79.27581373 73 81 C73.33 81.99 73.66 82.98 74 84 C76.50447516 85.21869929 76.50447516 85.21869929 79 86 C79 85.34 79 84.68 79 84 C79.65597168 84.01571045 80.31194336 84.0314209 80.98779297 84.04760742 C83.95010816 84.10983652 86.9122861 84.14895168 89.875 84.1875 C90.90753906 84.21263672 91.94007813 84.23777344 93.00390625 84.26367188 C93.99003906 84.27333984 94.97617188 84.28300781 95.9921875 84.29296875 C97.35899658 84.31653442 97.35899658 84.31653442 98.75341797 84.34057617 C99.86547607 84.17199097 99.86547607 84.17199097 101 84 C101.66 83.01 102.32 82.02 103 81 C99.7 80.34 96.4 79.68 93 79 C93 78.34 93 77.68 93 77 C91.68799596 75.64567325 90.35368596 74.31266518 89 73 C88.67 72.34 88.34 71.68 88 71 C87.01 71 86.02 71 85 71 Z M-32 84 C-31 86 -31 86 -31 86 Z M83 87 C83.33 88.32 83.66 89.64 84 91 C84.33 90.01 84.66 89.02 85 88 C84.34 87.67 83.68 87.34 83 87 Z " fill="#030403" transform="translate(41,0)"/>
<path d="M0 0 C1.31137939 0.00088623 2.62275879 0.00177246 3.97387695 0.00268555 C4.63553864 0.00295746 5.29720032 0.00322937 5.97891235 0.00350952 C18.78980657 0.02787187 31.03454947 0.42275857 43.2824707 4.52612305 C46.30796452 5.46985506 49.26608791 5.8483063 52.41137695 6.19018555 C52.41137695 6.85018555 52.41137695 7.51018555 52.41137695 8.19018555 C54.29939779 8.32039388 56.18741862 8.45060221 58.07543945 8.58081055 C61.8252983 9.55903459 63.62566849 10.39649511 66.41137695 13.19018555 C67.08317268 17.39422493 66.74109691 21.46116867 66.41137695 25.69018555 C66.35336914 26.83100586 66.29536133 27.97182617 66.2355957 29.1472168 C65.6870591 38.3002492 65.6870591 38.3002492 63.41137695 42.19018555 C61.43137695 41.69518555 61.43137695 41.69518555 59.41137695 41.19018555 C58.03657089 37.24018306 58.48793243 33.34510609 58.78637695 29.25268555 C58.83020508 28.54950195 58.8740332 27.84631836 58.91918945 27.12182617 C59.16997131 23.40537831 59.57296226 19.82094748 60.41137695 16.19018555 C59.86755371 16.07481445 59.32373047 15.95944336 58.76342773 15.84057617 C54.00690405 14.81048801 49.31644208 13.64399573 44.62890625 12.33740234 C18.04694555 4.99307949 -14.56111106 3.30594814 -40.3659668 14.8190918 C-43.58862305 16.19018555 -43.58862305 16.19018555 -46.58862305 16.19018555 C-45.96898676 36.08051037 -43.55436545 68.22444315 -28.58862305 83.19018555 C-28.58862305 84.18018555 -28.58862305 85.17018555 -28.58862305 86.19018555 C-27.92862305 86.19018555 -27.26862305 86.19018555 -26.58862305 86.19018555 C-25.92862305 87.51018555 -25.26862305 88.83018555 -24.58862305 90.19018555 C-24.36948242 89.59850586 -24.1503418 89.00682617 -23.92456055 88.3972168 C-22.26646167 84.26545009 -20.92323173 81.07584389 -17.33862305 78.31518555 C-16.43112305 77.61393555 -15.52362305 76.91268555 -14.58862305 76.19018555 C-14.58862305 75.20018555 -14.58862305 74.21018555 -14.58862305 73.19018555 C-15.90862305 72.86018555 -17.22862305 72.53018555 -18.58862305 72.19018555 C-18.91862305 74.17018555 -19.24862305 76.15018555 -19.58862305 78.19018555 C-23.05362305 78.68518555 -23.05362305 78.68518555 -26.58862305 79.19018555 C-26.91862305 77.87018555 -27.24862305 76.55018555 -27.58862305 75.19018555 C-26.92862305 75.19018555 -26.26862305 75.19018555 -25.58862305 75.19018555 C-25.40299805 73.55049805 -25.40299805 73.55049805 -25.21362305 71.87768555 C-24.58862305 68.19018555 -24.58862305 68.19018555 -22.58862305 65.19018555 C-20.64331055 64.6784668 -20.64331055 64.6784668 -18.46362305 64.50268555 C-17.18487305 64.39956055 -15.90612305 64.29643555 -14.58862305 64.19018555 C-15.51674805 63.90143555 -16.44487305 63.61268555 -17.40112305 63.31518555 C-21.53575384 60.55876502 -21.9364517 58.22615766 -23.14331055 53.56518555 C-23.58862305 51.19018555 -23.58862305 51.19018555 -23.58862305 48.19018555 C-20.58862305 47.19018555 -20.58862305 47.19018555 -18.52612305 47.75268555 C-15.7985457 49.77637196 -15.42647885 51.97840496 -14.58862305 55.19018555 C-12.93862305 55.19018555 -11.28862305 55.19018555 -9.58862305 55.19018555 C-7.35383959 51.83801037 -7.59956304 49.09165911 -7.7097168 45.1628418 C-7.53023222 42.23898008 -6.40766247 40.4290033 -4.58862305 38.19018555 C-3.92862305 38.19018555 -3.26862305 38.19018555 -2.58862305 38.19018555 C-3.95279104 33.72563574 -5.93212375 31.98067185 -9.58862305 29.19018555 C-9.58862305 28.53018555 -9.58862305 27.87018555 -9.58862305 27.19018555 C-7.60862305 26.53018555 -5.62862305 25.87018555 -3.58862305 25.19018555 C-1.17795459 27.5357008 1.11332274 29.78174088 3.09887695 32.50268555 C3.53200195 33.05956055 3.96512695 33.61643555 4.41137695 34.19018555 C5.07137695 34.19018555 5.73137695 34.19018555 6.41137695 34.19018555 C6.72075195 33.57143555 7.03012695 32.95268555 7.34887695 32.31518555 C8.03637695 30.94018555 8.72387695 29.56518555 9.41137695 28.19018555 C10.40137695 28.19018555 11.39137695 28.19018555 12.41137695 28.19018555 C12.41137695 27.53018555 12.41137695 26.87018555 12.41137695 26.19018555 C14.06137695 25.86018555 15.71137695 25.53018555 17.41137695 25.19018555 C18.40137695 26.67518555 18.40137695 26.67518555 19.41137695 28.19018555 C18.12172519 29.56581409 16.78448403 30.89784948 15.41137695 32.19018555 C14.75137695 32.19018555 14.09137695 32.19018555 13.41137695 32.19018555 C13.41137695 35.16018555 13.41137695 38.13018555 13.41137695 41.19018555 C9.94637695 41.68518555 9.94637695 41.68518555 6.41137695 42.19018555 C6.74137695 48.79018555 7.07137695 55.39018555 7.41137695 62.19018555 C8.40137695 62.68518555 8.40137695 62.68518555 9.41137695 63.19018555 C9.74137695 60.22018555 10.07137695 57.25018555 10.41137695 54.19018555 C11.07137695 54.19018555 11.73137695 54.19018555 12.41137695 54.19018555 C12.51450195 53.55081055 12.61762695 52.91143555 12.72387695 52.25268555 C13.65290526 48.11428671 15.03422019 44.20190308 16.41137695 40.19018555 C19.38137695 40.52018555 22.35137695 40.85018555 25.41137695 41.19018555 C25.70012695 41.97393555 25.98887695 42.75768555 26.28637695 43.56518555 C27.26049949 46.28690187 27.26049949 46.28690187 29.41137695 48.19018555 C29.41137695 49.51018555 29.41137695 50.83018555 29.41137695 52.19018555 C30.19750094 54.63841262 30.19750094 54.63841262 31.28637695 57.12768555 C31.63442383 57.96170898 31.9824707 58.79573242 32.34106445 59.6550293 C33.06151432 61.36149633 33.7962024 63.06201423 34.54418945 64.7565918 C35.41137695 67.19018555 35.41137695 67.19018555 35.41137695 71.19018555 C37.39137695 71.85018555 39.37137695 72.51018555 41.41137695 73.19018555 C40.75137695 76.49018555 40.09137695 79.79018555 39.41137695 83.19018555 C38.09137695 83.52018555 36.77137695 83.85018555 35.41137695 84.19018555 C34.75137695 82.54018555 34.09137695 80.89018555 33.41137695 79.19018555 C32.91637695 81.17018555 32.91637695 81.17018555 32.41137695 83.19018555 C25.78637695 85.31518555 25.78637695 85.31518555 22.41137695 84.19018555 C21.23575195 84.23143555 20.06012695 84.27268555 18.84887695 84.31518555 C17.71450195 84.27393555 16.58012695 84.23268555 15.41137695 84.19018555 C14.75137695 83.20018555 14.09137695 82.21018555 13.41137695 81.19018555 C12.75137695 82.18018555 12.09137695 83.17018555 11.41137695 84.19018555 C9.28637695 84.87768555 9.28637695 84.87768555 7.41137695 85.19018555 C7.44618164 86.09381836 7.48098633 86.99745117 7.5168457 87.9284668 C7.54391602 89.10795898 7.57098633 90.28745117 7.59887695 91.50268555 C7.63368164 92.67444336 7.66848633 93.84620117 7.7043457 95.0534668 C7.41137695 98.19018555 7.41137695 98.19018555 5.8996582 100.1081543 C5.40852539 100.46522461 4.91739258 100.82229492 4.41137695 101.19018555 C-2.58474806 99.68121741 -5.60591991 96.9439399 -9.83862305 91.06518555 C-11.58862305 88.19018555 -11.58862305 88.19018555 -12.58862305 85.19018555 C-13.57862305 85.52018555 -14.56862305 85.85018555 -15.58862305 86.19018555 C-15.69174805 86.93268555 -15.79487305 87.67518555 -15.90112305 88.44018555 C-16.63115809 91.36032573 -17.65651702 92.92206108 -19.58862305 95.19018555 C-16.0136577 99.7720882 -12.26376253 103.29984782 -7.65112305 106.81518555 C-7.0562207 107.27924805 -6.46131836 107.74331055 -5.84838867 108.22143555 C0.2884585 113.63340878 0.2884585 113.63340878 7.47387695 116.12768555 C12.31974631 113.78291005 16.42466185 110.71129435 20.6418457 107.3972168 C22.41137695 106.19018555 22.41137695 106.19018555 24.41137695 106.19018555 C24.41137695 105.53018555 24.41137695 104.87018555 24.41137695 104.19018555 C25.38669665 103.16609986 26.39336339 102.17184148 27.41137695 101.19018555 C28.09200195 100.30331055 28.77262695 99.41643555 29.47387695 98.50268555 C30.11325195 97.73956055 30.75262695 96.97643555 31.41137695 96.19018555 C32.07137695 96.19018555 32.73137695 96.19018555 33.41137695 96.19018555 C33.41137695 95.53018555 33.41137695 94.87018555 33.41137695 94.19018555 C34.72111693 92.83366914 36.05939837 91.50460917 37.41137695 90.19018555 C38.37043945 88.82893555 38.37043945 88.82893555 39.34887695 87.44018555 C41.41137695 85.19018555 41.41137695 85.19018555 44.16137695 84.87768555 C44.90387695 84.98081055 45.64637695 85.08393555 46.41137695 85.19018555 C46.11372024 91.14331988 43.27835242 94.89240644 39.41137695 99.19018555 C38.42137695 99.68518555 38.42137695 99.68518555 37.41137695 100.19018555 C37.18450195 100.95331055 36.95762695 101.71643555 36.72387695 102.50268555 C35.14979766 105.7258003 33.35529735 106.55150518 30.22387695 108.14331055 C27.51980865 109.7051431 25.57484362 111.96490554 23.41137695 114.19018555 C22.75137695 114.19018555 22.09137695 114.19018555 21.41137695 114.19018555 C21.41137695 114.85018555 21.41137695 115.51018555 21.41137695 116.19018555 C19.14575195 117.8815918 19.14575195 117.8815918 16.16137695 119.75268555 C14.69958008 120.68274414 14.69958008 120.68274414 13.20825195 121.6315918 C9.67916361 123.59822063 7.8933891 124.59288079 3.9387207 123.51831055 C3.08407227 123.1625293 2.22942383 122.80674805 1.34887695 122.44018555 C0.49165039 122.0947168 -0.36557617 121.74924805 -1.2487793 121.39331055 C-3.54011882 120.21512595 -4.98211746 119.19173349 -6.58862305 117.19018555 C-6.58862305 116.53018555 -6.58862305 115.87018555 -6.58862305 115.19018555 C-7.39299805 114.81893555 -7.39299805 114.81893555 -8.21362305 114.44018555 C-17.22432917 109.69770864 -24.16429358 102.79429436 -29.58862305 94.19018555 C-30.51859182 93.18317794 -31.4569022 92.18384204 -32.40112305 91.19018555 C-36.9976124 85.94204201 -39.69784109 79.47357225 -42.58862305 73.19018555 C-42.98178711 72.34327148 -43.37495117 71.49635742 -43.7800293 70.6237793 C-47.86858699 61.14794558 -50.60245907 50.4422829 -51.36987305 40.15893555 C-51.60060914 38.08231074 -52.12799617 36.2561459 -52.71362305 34.25268555 C-54.52604965 26.81640582 -53.19091848 18.73515674 -52.58862305 11.19018555 C-50.21362305 10.12768555 -50.21362305 10.12768555 -47.58862305 9.19018555 C-46.92862305 9.52018555 -46.26862305 9.85018555 -45.58862305 10.19018555 C-45.25862305 9.53018555 -44.92862305 8.87018555 -44.58862305 8.19018555 C-38.62369812 5.73548393 -32.17534419 4.64598982 -25.83862305 3.61987305 C-23.56403219 3.29101362 -23.56403219 3.29101362 -21.58862305 2.19018555 C-18.73654526 1.87762908 -15.88365451 1.67981073 -13.0222168 1.47143555 C-0.30607264 0.00183301 -0.30607264 0.00183301 0 0 Z M20.41137695 52.19018555 C20.08137695 53.51018555 19.75137695 54.83018555 19.41137695 56.19018555 C20.40137695 55.86018555 21.39137695 55.53018555 22.41137695 55.19018555 C21.75137695 54.20018555 21.09137695 53.21018555 20.41137695 52.19018555 Z M7.41137695 64.19018555 C8.41137695 66.19018555 8.41137695 66.19018555 8.41137695 66.19018555 Z M16.41137695 65.19018555 C16.12262695 65.97393555 15.83387695 66.75768555 15.53637695 67.56518555 C14.41137695 70.19018555 14.41137695 70.19018555 12.41137695 72.19018555 C19.43212059 74.53043343 26.48020887 72.98715505 33.41137695 71.19018555 C33.08137695 70.53018555 32.75137695 69.87018555 32.41137695 69.19018555 C30.43137695 69.19018555 28.45137695 69.19018555 26.41137695 69.19018555 C26.08137695 67.87018555 25.75137695 66.55018555 25.41137695 65.19018555 C22.44137695 65.19018555 19.47137695 65.19018555 16.41137695 65.19018555 Z M6.41137695 69.19018555 C7.40137695 70.67518555 7.40137695 70.67518555 8.41137695 72.19018555 C8.41137695 71.20018555 8.41137695 70.21018555 8.41137695 69.19018555 C7.75137695 69.19018555 7.09137695 69.19018555 6.41137695 69.19018555 Z M11.41137695 69.19018555 C12.41137695 71.19018555 12.41137695 71.19018555 12.41137695 71.19018555 Z " fill="#42933F" transform="translate(63.588623046875,10.809814453125)"/>
<path d="M0 0 C1.12894876 0.93274109 2.25300876 1.87140122 3.375 2.8125 C4.00148438 3.33457031 4.62796875 3.85664062 5.2734375 4.39453125 C7 6 7 6 9 9 C9.66 9 10.32 9 11 9 C11.309375 8.38125 11.61875 7.7625 11.9375 7.125 C12.625 5.75 13.3125 4.375 14 3 C14.99 3 15.98 3 17 3 C17 2.34 17 1.68 17 1 C18.65 0.67 20.3 0.34 22 0 C22.66 0.99 23.32 1.98 24 3 C22.71034824 4.37562854 21.37310707 5.70766393 20 7 C19.34 7 18.68 7 18 7 C18 9.97 18 12.94 18 16 C15.69 16.33 13.38 16.66 11 17 C11.33 23.6 11.66 30.2 12 37 C12.66 37.33 13.32 37.66 14 38 C14.33 35.03 14.66 32.06 15 29 C15.66 29 16.32 29 17 29 C17.103125 28.360625 17.20625 27.72125 17.3125 27.0625 C18.24152831 22.92410116 19.62284324 19.01171753 21 15 C23.97 15.33 26.94 15.66 30 16 C30.433125 17.175625 30.433125 17.175625 30.875 18.375 C31.84912254 21.09671632 31.84912254 21.09671632 34 23 C34 24.32 34 25.64 34 27 C34.78612399 29.44822707 34.78612399 29.44822707 35.875 31.9375 C36.22304687 32.77152344 36.57109375 33.60554688 36.9296875 34.46484375 C37.65013737 36.17131078 38.38482545 37.87182869 39.1328125 39.56640625 C40 42 40 42 40 46 C41.98 46.66 43.96 47.32 46 48 C45.34 51.3 44.68 54.6 44 58 C42.02 58.495 42.02 58.495 40 59 C39.34 57.35 38.68 55.7 38 54 C37.67 55.32 37.34 56.64 37 58 C30.375 60.125 30.375 60.125 27 59 C25.824375 59.04125 24.64875 59.0825 23.4375 59.125 C22.303125 59.08375 21.16875 59.0425 20 59 C19.34 58.01 18.68 57.02 18 56 C17.34 56.99 16.68 57.98 16 59 C13.875 59.6875 13.875 59.6875 12 60 C12.05220703 61.35544922 12.05220703 61.35544922 12.10546875 62.73828125 C12.13253906 63.91777344 12.15960938 65.09726563 12.1875 66.3125 C12.22230469 67.48425781 12.25710937 68.65601562 12.29296875 69.86328125 C12 73 12 73 10.48828125 74.91796875 C9.99714844 75.27503906 9.50601563 75.63210937 9 76 C2.06097644 74.50334786 -1.31947522 71.59326742 -5.3125 65.6875 C-5.869375 64.800625 -6.42625 63.91375 -7 63 C-6.34 62.34 -5.68 61.68 -5 61 C-5.28983269 57.69316534 -5.28983269 57.69316534 -7 55 C-7.07239745 52.76925356 -6.99649793 50.55507809 -6.9375 48.32421875 C-6.90203577 46.01802877 -6.90203577 46.01802877 -7.58984375 43.95703125 C-8.11038376 41.4733118 -7.57362094 40.30086187 -6.5625 38 C-5.20564021 34.88469859 -5 33.60799258 -5 30 C-4.67 29.4225 -4.34 28.845 -4 28.25 C-2.74380159 25.42355358 -3.03580476 23.01463014 -3.12109375 19.97265625 C-2.94160917 17.04879453 -1.81903943 15.23881775 0 13 C0.66 13 1.32 13 2 13 C0.635832 8.53545019 -1.34350071 6.7904863 -5 4 C-5 3.34 -5 2.68 -5 2 C-3.35 1.34 -1.7 0.68 0 0 Z M25 27 C24.67 28.32 24.34 29.64 24 31 C24.99 30.67 25.98 30.34 27 30 C26.34 29.01 25.68 28.02 25 27 Z M12 39 C13 41 13 41 13 41 Z M21 40 C20.71125 40.78375 20.4225 41.5675 20.125 42.375 C19 45 19 45 17 47 C24.02074364 49.34024788 31.06883191 47.7969695 38 46 C37.67 45.34 37.34 44.68 37 44 C35.02 44 33.04 44 31 44 C30.67 42.68 30.34 41.36 30 40 C27.03 40 24.06 40 21 40 Z M11 44 C11.99 45.485 11.99 45.485 13 47 C13 46.01 13 45.02 13 44 C12.34 44 11.68 44 11 44 Z M16 44 C17 46 17 46 17 46 Z " fill="#34A82F" transform="translate(59,36)"/>
<path d="M0 0 C3.526875 -0.061875 3.526875 -0.061875 7.125 -0.125 C7.85348145 -0.14320801 8.58196289 -0.16141602 9.33251953 -0.18017578 C13.62036412 -0.21622763 17.02263619 0.42640124 21 2 C21.39012425 3.76756294 21.7616098 5.53924783 22.125 7.3125 C22.33382812 8.29863281 22.54265625 9.28476562 22.7578125 10.30078125 C23 13 23 13 21 16 C20.34 16.66 19.68 17.32 19 18 C19.32041397 20.60280568 19.32041397 20.60280568 20 23 C21.65 23.33 23.3 23.66 25 24 C24.773125 23.443125 24.54625 22.88625 24.3125 22.3125 C23.87129524 19.04758478 25.21795328 17.70607095 27 15 C28.26847685 12.41501488 28.26847685 12.41501488 29 10 C28.505 9.01 28.505 9.01 28 8 C28.99 8 29.98 8 31 8 C31 5.69 31 3.38 31 1 C34.44964383 -0.72482191 38.22758462 -0.49055218 42 0 C44.0625 1.625 44.0625 1.625 45 4 C45.1875 7.25 45.1875 7.25 45 10 C45.66 10.33 46.32 10.66 47 11 C47.69258229 12.99117408 48.35747635 14.9921136 49 17 C49.66 17.99 50.32 18.98 51 20 C51.125 23.1875 51.125 23.1875 51 26 C51.66 26 52.32 26 53 26 C53 27.32 53 28.64 53 30 C56.45907651 30.86476913 58.59235658 30.90870491 62 30 C63.485 30.495 63.485 30.495 65 31 C65.98387679 35.05849177 66.03924323 38.83531255 66 43 C61.47934572 43.049377 56.95884783 43.08570823 52.43798828 43.10986328 C50.89954902 43.11993118 49.36112893 43.13358646 47.82275391 43.15087891 C45.61355867 43.17509317 43.40461605 43.18647491 41.1953125 43.1953125 C40.50567413 43.20563507 39.81603577 43.21595764 39.10549927 43.22659302 C37.40199094 43.22699478 35.69914057 43.12191026 34 43 C33.34 42.34 32.68 41.68 32 41 C31.34 41.66 30.68 42.32 30 43 C27.1015625 43.16015625 27.1015625 43.16015625 23.625 43.0625 C19.82794374 42.96393082 16.6588283 43.02026636 13 44 C12.505 43.505 12.505 43.505 12 43 C6.82264323 42.62947661 6.82264323 42.62947661 2 44 C-0.3494053 43.39239518 -2.68529088 42.72870472 -5 42 C-5 38.7 -5 35.4 -5 32 C2.625 31 2.625 31 6 31 C5.67 30.34 5.34 29.68 5 29 C3.35 29 1.7 29 0 29 C0 19.43 0 9.86 0 0 Z M9.375 8.5 C8.92125 8.995 8.4675 9.49 8 10 C8.66 10.66 9.32 11.32 10 12 C12.10820797 11.6814823 12.10820797 11.6814823 14 11 C13.67 9.68 13.34 8.36 13 7 C10.87635519 6.77390663 10.87635519 6.77390663 9.375 8.5 Z M37 11 C38 14 38 14 38 14 Z M38 15 C39 17 39 17 39 17 Z M8 18 C9 20 9 20 9 20 Z M49 20 C50 22 50 22 50 22 Z M9 24 C8.34 25.98 7.68 27.96 7 30 C8.98 30.66 10.96 31.32 13 32 C13.99 31.01 14.98 30.02 16 29 C14.37660195 27.29115995 12.70680947 25.62553283 11 24 C10.34 24 9.68 24 9 24 Z M32 24 C30.98459888 28.10223585 30.98459888 28.10223585 32 32 C37.38192852 32.12855611 37.38192852 32.12855611 42.6875 31.4375 C45.39298503 30.92565148 47.35397305 31.31959307 50 32 C50.33 31.01 50.66 30.02 51 29 C48.29120665 27.64560332 45.99066732 27.93498549 43 28 C42.67 26.68 42.34 25.36 42 24 C38.7 24 35.4 24 32 24 Z M16 28 C16.99 28.495 16.99 28.495 18 29 C18 29.66 18 30.32 18 31 C19.6396875 31.2165625 19.6396875 31.2165625 21.3125 31.4375 C25 32 25 32 28 33 C28.99 32.01 29.98 31.02 31 30 C29.11153817 27.67133771 29.11153817 27.67133771 25.9609375 27.8046875 C24.18589844 27.83949219 24.18589844 27.83949219 22.375 27.875 C20.59222656 27.90207031 20.59222656 27.90207031 18.7734375 27.9296875 C17.40058594 27.96449219 17.40058594 27.96449219 16 28 Z M21 38 C21 38.66 21 39.32 21 40 C21.66 40 22.32 40 23 40 C23 39.34 23 38.68 23 38 C22.34 38 21.68 38 21 38 Z " fill="#020202" transform="translate(186,52)"/>
<path d="M0 0 C2.45862401 -0.05383848 4.9160755 -0.09359038 7.375 -0.125 C8.42300781 -0.15013672 8.42300781 -0.15013672 9.4921875 -0.17578125 C11.32897486 -0.19344267 13.16601963 -0.10303261 15 0 C15.66 0.66 16.32 1.32 17 2 C18.32 2 19.64 2 21 2 C21 2.66 21 3.32 21 4 C22.01707031 4.03867188 22.01707031 4.03867188 23.0546875 4.078125 C29.24635127 4.45545631 34.17407931 5.55175665 39.80859375 8.16015625 C42.23137805 9.23857563 42.23137805 9.23857563 46 9 C46.495 9.99 46.495 9.99 47 11 C48.66128463 11.35919668 50.32900023 11.68911632 52 12 C54.25 12.8125 54.25 12.8125 56 14 C59.73347424 24.73979927 56.62408767 39.82214398 56 51 C56.61415771 51.12842285 57.22831543 51.2568457 57.86108398 51.38916016 C58.66876221 51.56237793 59.47644043 51.7355957 60.30859375 51.9140625 C61.10837646 52.08373535 61.90815918 52.2534082 62.73217773 52.42822266 C65.61009561 53.15382107 67.72024639 54.08794859 70 56 C70 57.32 70 58.64 70 60 C71.485 60.495 71.485 60.495 73 61 C73 61.66 73 62.32 73 63 C69.98554002 63.60420549 67.07989592 64.06232504 64 64 C61.25 62 61.25 62 59 60 C56.24875747 60.13149826 56.24875747 60.13149826 54 61 C53.67 62.32 53.34 63.64 53 65 C52.34 65 51.68 65 51 65 C51.495 65.598125 51.99 66.19625 52.5 66.8125 C54 69 54 69 54 72 C56.31 72 58.62 72 61 72 C61.33 71.34 61.66 70.68 62 70 C64.06640625 69.5859375 64.06640625 69.5859375 66.5625 69.375 C67.80193359 69.26285156 67.80193359 69.26285156 69.06640625 69.1484375 C69.70449219 69.09945312 70.34257812 69.05046875 71 69 C71.66 70.32 72.32 71.64 73 73 C71.92130607 73.96355244 70.83681257 74.92061417 69.75 75.875 C68.84507812 76.67550781 68.84507812 76.67550781 67.921875 77.4921875 C66 79 66 79 63.828125 80.0703125 C61.82067823 80.86319792 61.82067823 80.86319792 61 83 C59.35 82.67 57.7 82.34 56 82 C56 81.34 56 80.68 56 80 C53.69 79.67 51.38 79.34 49 79 C49 78.34 49 77.68 49 77 C48.01 76.67 47.02 76.34 46 76 C44.8125 73.4375 44.8125 73.4375 44 71 C43.01 71 42.02 71 41 71 C40.95875 71.7425 40.9175 72.485 40.875 73.25 C39.63498112 77.1472022 37.51756632 78.10051419 34 80 C33.01 80 32.02 80 31 80 C30.67 80.66 30.34 81.32 30 82 C29.01 82.33 28.02 82.66 27 83 C24.625 81.75 24.625 81.75 22 80 C21.113125 79.525625 20.22625 79.05125 19.3125 78.5625 C16.84136495 76.89281416 16.04277022 75.74912149 15 73 C14.34 73 13.68 73 13 73 C13.42651453 59.8207009 13.42651453 59.8207009 18 55 C22.72001551 51.70696593 27.40257053 51.0855187 33 52 C37.02577846 54.12682635 39.80994184 56.80994184 43 60 C43.66 60 44.32 60 45 60 C45.433125 59.071875 45.433125 59.071875 45.875 58.125 C47 56 47 56 49 54 C48.67257813 53.43796875 48.34515625 52.8759375 48.0078125 52.296875 C46.88214506 49.73140036 46.7931889 48.03157723 46.875 45.25 C46.89304688 44.45078125 46.91109375 43.6515625 46.9296875 42.828125 C46.95289063 42.22484375 46.97609375 41.6215625 47 41 C47.66 41 48.32 41 49 41 C49 34.07 49 27.14 49 20 C45.7 19.01 42.4 18.02 39 17 C37.38222656 16.505 35.76445313 16.01 34.09765625 15.5 C24.43655825 12.5993889 14.98702693 10.21498449 4.95336914 9.02539062 C-0.59751523 8.31468404 -0.59751523 8.31468404 -3.0234375 6.41796875 C-3.34570312 5.95003906 -3.66796875 5.48210938 -4 5 C-3.67 4.34 -3.34 3.68 -3 3 C-2.34 3 -1.68 3 -1 3 C-0.67 2.01 -0.34 1.02 0 0 Z M23.6875 60.5 C21.52512456 63.70351917 21.70223493 65.50985009 22.38671875 69.22265625 C22.89274974 71.17241658 22.89274974 71.17241658 24.8125 72.5625 C27.27135851 73.0542717 28.64305238 72.78564921 31 72 C31.66 72 32.32 72 33 72 C33 71.34 33 70.68 33 70 C36.66666667 70 40.33333333 70 44 70 C44 67.69 44 65.38 44 63 C41.44787237 62.14929079 40.19892138 61.94389397 37.5625 62.6875 C35 63 35 63 32.4375 61.0625 C31.633125 60.381875 30.82875 59.70125 30 59 C26.09991009 58.63720593 26.09991009 58.63720593 23.6875 60.5 Z " fill="#020202" transform="translate(85,0)"/>
<path d="M0 0 C0 0.66 0 1.32 0 2 C1.0828125 1.690625 1.0828125 1.690625 2.1875 1.375 C5 1 5 1 7.5625 2.0625 C9.97752226 3.30196543 9.97752226 3.30196543 12.3125 2.125 C12.869375 1.75375 13.42625 1.3825 14 1 C14 1.66 14 2.32 14 3 C14.680625 2.855625 15.36125 2.71125 16.0625 2.5625 C18.25914232 2.14186636 20.47122768 1.8005115 22.6875 1.5 C25.86911167 1.1940728 25.86911167 1.1940728 28 0 C28 0.99 28 1.98 28 3 C32.31050152 2.54060415 36.59396067 2.06549021 40.875 1.375 C44 1 44 1 47 2 C47.98387679 6.05849177 48.03924323 9.83531255 48 14 C43.47934572 14.049377 38.95884783 14.08570823 34.43798828 14.10986328 C32.89954902 14.11993118 31.36112893 14.13358646 29.82275391 14.15087891 C27.61355867 14.17509317 25.40461605 14.18647491 23.1953125 14.1953125 C22.50567413 14.20563507 21.81603577 14.21595764 21.10549927 14.22659302 C19.40199094 14.22699478 17.69914057 14.12191026 16 14 C15.34 13.34 14.68 12.68 14 12 C13.34 12.66 12.68 13.32 12 14 C9.1015625 14.16015625 9.1015625 14.16015625 5.625 14.0625 C1.82794374 13.96393082 -1.3411717 14.02026636 -5 15 C-5.33 14.67 -5.66 14.34 -6 14 C-11.17735677 13.62947661 -11.17735677 13.62947661 -16 15 C-18.3494053 14.39239518 -20.68529088 13.72870472 -23 13 C-23 9.7 -23 6.4 -23 3 C-15.375 2 -15.375 2 -12 2 C-11.34 1.67 -10.68 1.34 -10 1 C-9.195625 1.185625 -8.39125 1.37125 -7.5625 1.5625 C-4.09800025 2.15399996 -3.3060601 0 0 0 Z M3 9 C3 9.66 3 10.32 3 11 C3.66 11 4.32 11 5 11 C5 10.34 5 9.68 5 9 C4.34 9 3.68 9 3 9 Z " fill="#499445" transform="translate(204,81)"/>
<path d="M0 0 C0.66 0.66 1.32 1.32 2 2 C2.66 1.34 3.32 0.68 4 0 C6.0234375 -0.16015625 6.0234375 -0.16015625 8.375 -0.0625 C11.47710865 0.05681187 14.01455122 -0.12072399 17 -1 C18.61949011 1.57213134 19.04408751 2.67669159 18.625 5.75 C18.41875 6.4925 18.2125 7.235 18 8 C19.32 8.66 20.64 9.32 22 10 C20 12 20 12 17.90625 12.16015625 C17.1121875 12.12792969 16.318125 12.09570312 15.5 12.0625 C12.11792042 11.8800954 12.11792042 11.8800954 9 13 C5.9375 12.6875 5.9375 12.6875 3 12 C2.505 11.01 2.505 11.01 2 10 C1.67 10.66 1.34 11.32 1 12 C-1.64860427 12.59355614 -4.29197322 12.74209269 -7 13 C-7.66 12.01 -8.32 11.02 -9 10 C-9.33 10.66 -9.66 11.32 -10 12 C-12.475 11.505 -12.475 11.505 -15 11 C-15 9.68 -15 8.36 -15 7 C-15.66 8.65 -16.32 10.3 -17 12 C-17.721875 11.814375 -18.44375 11.62875 -19.1875 11.4375 C-22.21487737 10.96657463 -24.03948291 11.29511498 -27 12 C-33.28941685 13.34773218 -33.28941685 13.34773218 -36.9375 11.5625 C-37.618125 11.046875 -38.29875 10.53125 -39 10 C-39.99 10.99 -40.98 11.98 -42 13 C-48.56756757 11.54054054 -48.56756757 11.54054054 -50.5 9.125 C-51.0937726 6.60146644 -51.00130478 5.38772679 -50 3 C-48.875 1.1875 -48.875 1.1875 -47 0 C-43.4375 0.3125 -43.4375 0.3125 -40 1 C-37.9254644 1.1490712 -37.9254644 1.1490712 -36 0 C-33.990815 -0.07338148 -31.97916439 -0.08355146 -29.96875 -0.0625 C-28.16470703 -0.05089844 -28.16470703 -0.05089844 -26.32421875 -0.0390625 C-22.5 0 -22.5 0 -18.67578125 0.0390625 C-16.87173828 0.05066406 -16.87173828 0.05066406 -15.03125 0.0625 C-13.92330078 0.07410156 -12.81535156 0.08570312 -11.67382812 0.09765625 C-1.41105325 -0.27717117 -1.41105325 -0.27717117 0 0 Z M-34 4 C-33.67 5.32 -33.34 6.64 -33 8 C-32.67 7.01 -32.34 6.02 -32 5 C-32.66 4.67 -33.32 4.34 -34 4 Z " fill="#479143" transform="translate(158,83)"/>
<path d="M0 0 C2.97 0.33 5.94 0.66 9 1 C9.28875 1.78375 9.5775 2.5675 9.875 3.375 C10.84912254 6.09671632 10.84912254 6.09671632 13 8 C13 9.32 13 10.64 13 12 C13.78612399 14.44822707 13.78612399 14.44822707 14.875 16.9375 C15.22304687 17.77152344 15.57109375 18.60554688 15.9296875 19.46484375 C16.65645661 21.18627862 17.39925305 22.90101702 18.15625 24.609375 C19.24907957 27.70572546 18.73315694 29.84742515 18 33 C17.01 32.34 16.02 31.68 15 31 C15.33 30.67 15.66 30.34 16 30 C15.05125 29.855625 14.1025 29.71125 13.125 29.5625 C10 29 10 29 8 28 C8 27.34 8 26.68 8 26 C5.36 26 2.72 26 0 26 C-0.33 27.32 -0.66 28.64 -1 30 C-3.91482778 30.80967438 -5.46113217 31.21845993 -8.3125 30.0625 C-9.1478125 29.5365625 -9.1478125 29.5365625 -10 29 C-10 26.69 -10 24.38 -10 22 C-9.01 22.33 -8.02 22.66 -7 23 C-6.505 18.545 -6.505 18.545 -6 14 C-5.34 14 -4.68 14 -4 14 C-3.896875 13.360625 -3.79375 12.72125 -3.6875 12.0625 C-2.75847169 7.92410116 -1.37715676 4.01171753 0 0 Z M4 12 C3.67 13.32 3.34 14.64 3 16 C3.99 15.67 4.98 15.34 6 15 C5.34 14.01 4.68 13.02 4 12 Z M-9 24 C-8 26 -8 26 -8 26 Z " fill="#020403" transform="translate(80,51)"/>
<path d="M0 0 C0.33 0 0.66 0 1 0 C1.33 9.24 1.66 18.48 2 28 C3.65 28.33 5.3 28.66 7 29 C7.598125 29.185625 8.19625 29.37125 8.8125 29.5625 C13.12519232 30.42503846 17.46446375 30.31408696 21.75 29.4375 C24.21509379 28.95817621 25.61740218 29.34273163 28 30 C28.66 29.67 29.32 29.34 30 29 C32.01927511 29.60578253 34.02253397 30.26919734 36 31 C35.34 34.3 34.68 37.6 34 41 C32.02 41.495 32.02 41.495 30 42 C29.34 40.35 28.68 38.7 28 37 C27.67 38.32 27.34 39.64 27 41 C20.375 43.125 20.375 43.125 17 42 C15.824375 42.04125 14.64875 42.0825 13.4375 42.125 C12.303125 42.08375 11.16875 42.0425 10 42 C9.34 41.01 8.68 40.02 8 39 C7.34 39.99 6.68 40.98 6 42 C4.02 42.495 4.02 42.495 2 43 C2 46.96 2 50.92 2 55 C1.01 54.34 0.02 53.68 -1 53 C-1.20041246 50.33998013 -1.22916008 47.90103268 -1.125 45.25 C-1.00694469 39.86125536 -1.03929898 34.62411421 -1.5625 29.25 C-2.07948697 23.02431184 -1.91785467 16.91760332 -1.625 10.6875 C-1.58189697 9.74874023 -1.53879395 8.80998047 -1.49438477 7.84277344 C-1.13181449 1.13181449 -1.13181449 1.13181449 0 0 Z " fill="#4E9E49" transform="translate(69,53)"/>
<path d="M0 0 C2.31 0.66 4.62 1.32 7 2 C7 7.94 7 13.88 7 20 C8.98 20.33 10.96 20.66 13 21 C14.54950268 19.45049732 14.21655193 17.90009406 14.31640625 15.74609375 C14.35830078 14.89208984 14.40019531 14.03808594 14.44335938 13.15820312 C14.48267578 12.26037109 14.52199219 11.36253906 14.5625 10.4375 C14.60568359 9.53580078 14.64886719 8.63410156 14.69335938 7.70507812 C14.79978142 5.47021515 14.90179988 3.23523692 15 1 C17 0 17 0 20.125 0.9375 C21.07375 1.288125 22.0225 1.63875 23 2 C23.05787784 5.62493334 23.0935542 9.24974857 23.125 12.875 C23.14175781 13.90753906 23.15851563 14.94007812 23.17578125 16.00390625 C23.18222656 16.99003906 23.18867188 17.97617188 23.1953125 18.9921875 C23.20578613 19.90339355 23.21625977 20.81459961 23.22705078 21.75341797 C23 24 23 24 21 26 C16.85244375 28.7650375 12.83762803 30.62497387 7.9375 31.625 C4.02487623 30.79252686 2.66593068 28.95185186 0.19921875 25.921875 C-2.67125798 21.32163217 -2.18336211 16.11356322 -2.1875 10.875 C-2.19974609 10.05128906 -2.21199219 9.22757813 -2.22460938 8.37890625 C-2.22983265 6.25129286 -2.1226232 4.12408323 -2 2 C-1.34 1.34 -0.68 0.68 0 0 Z " fill="#020202" transform="translate(160,51)"/>
<path d="M0 0 C5.61 0 11.22 0 17 0 C17 2.31 17 4.62 17 7 C15.35 7.33 13.7 7.66 12 8 C12 8.66 12 9.32 12 10 C13.65 10.33 15.3 10.66 17 11 C17 12.98 17 14.96 17 17 C14.53721199 18.231394 12.7204945 18.07159196 10 18 C10 18.66 10 19.32 10 20 C11.98 20 13.96 20 16 20 C16 20.33 16 20.66 16 21 C14.865625 20.979375 13.73125 20.95875 12.5625 20.9375 C9.18424326 20.58422523 9.18424326 20.58422523 8 22 C10.97 22 13.94 22 17 22 C17 23.98 17 25.96 17 28 C16.34 28.33 15.68 28.66 15 29 C14.34 28.67 13.68 28.34 13 28 C12.67 28.66 12.34 29.32 12 30 C11.4225 29.814375 10.845 29.62875 10.25 29.4375 C7.79307475 28.95976454 6.35602466 29.24270636 4 30 C4 29.34 4 28.68 4 28 C2.68 28.33 1.36 28.66 0 29 C-0.93854981 25.82086058 -1.12879879 22.95745608 -1.1328125 19.6484375 C-1.13410156 18.63265625 -1.13539063 17.616875 -1.13671875 16.5703125 C-1.13285156 15.51585938 -1.12898438 14.46140625 -1.125 13.375 C-1.12886719 12.3128125 -1.13273437 11.250625 -1.13671875 10.15625 C-1.13542969 9.14304687 -1.13414062 8.12984375 -1.1328125 7.0859375 C-1.13168457 6.1582959 -1.13055664 5.2306543 -1.12939453 4.27490234 C-1 2 -1 2 0 0 Z " fill="#020202" transform="translate(262,52)"/>
<path d="M0 0 C3.10850811 0.92891979 6.11925082 1.3491543 9.33984375 1.69921875 C9.33984375 2.35921875 9.33984375 3.01921875 9.33984375 3.69921875 C11.22786458 3.82942708 13.11588542 3.95963542 15.00390625 4.08984375 C18.7537651 5.0680678 20.55413529 5.90552832 23.33984375 8.69921875 C24.01163948 12.90325813 23.66956371 16.97020187 23.33984375 21.19921875 C23.25283203 22.91044922 23.25283203 22.91044922 23.1640625 24.65625 C22.61552589 33.8092824 22.61552589 33.8092824 20.33984375 37.69921875 C19.01984375 37.36921875 17.69984375 37.03921875 16.33984375 36.69921875 C14.96503769 32.74921626 15.41639923 28.85413929 15.71484375 24.76171875 C15.75867188 24.05853516 15.8025 23.35535156 15.84765625 22.63085938 C16.09843811 18.91441151 16.50142906 15.32998069 17.33984375 11.69921875 C16.0559375 11.42207031 14.77203125 11.14492188 13.44921875 10.859375 C8.45877458 9.75049596 3.52615184 8.46330234 -1.41015625 7.13671875 C-8.4885416 5.21950159 -8.4885416 5.21950159 -15.66015625 3.69921875 C-15.66015625 3.36921875 -15.66015625 3.03921875 -15.66015625 2.69921875 C-12.36015625 2.36921875 -9.06015625 2.03921875 -5.66015625 1.69921875 C-7.26865915 0.09071585 -9.12803272 0.36378074 -11.3515625 0.1640625 C-12.29580078 0.07705078 -13.24003906 -0.00996094 -14.21289062 -0.09960938 C-15.20611328 -0.18662109 -16.19933594 -0.27363281 -17.22265625 -0.36328125 C-18.21974609 -0.45416016 -19.21683594 -0.54503906 -20.24414062 -0.63867188 C-22.71581327 -0.86336939 -25.18778881 -1.08388476 -27.66015625 -1.30078125 C-27.66015625 -1.63078125 -27.66015625 -1.96078125 -27.66015625 -2.30078125 C-17.79220714 -3.66549762 -9.47763413 -3.06937598 0 0 Z " fill="#4A8648" transform="translate(106.66015625,15.30078125)"/>
<path d="M0 0 C0.9583374 0.00523682 1.9166748 0.01047363 2.90405273 0.01586914 C4.45576172 0.02070312 4.45576172 0.02070312 6.03881836 0.02563477 C7.12743164 0.03401367 8.21604492 0.04239258 9.33764648 0.05102539 C10.97636719 0.05779297 10.97636719 0.05779297 12.64819336 0.06469727 C15.35723144 0.07652713 18.06616248 0.09300996 20.77514648 0.11352539 C20.77514648 2.42352539 20.77514648 4.73352539 20.77514648 7.11352539 C19.80577148 7.42290039 18.83639648 7.73227539 17.83764648 8.05102539 C14.93448857 8.80875881 14.93448857 8.80875881 13.77514648 10.11352539 C13.68863038 11.52922662 13.66809744 12.94912039 13.67749023 14.36743164 C13.68232422 15.6484375 13.68232422 15.6484375 13.68725586 16.95532227 C13.69563477 17.8531543 13.70401367 18.75098633 13.71264648 19.67602539 C13.7171582 20.57772461 13.72166992 21.47942383 13.72631836 22.40844727 C13.73814424 24.64353853 13.75462428 26.87849976 13.77514648 29.11352539 C10.50239622 29.11352539 7.92851448 28.81427383 4.77514648 28.11352539 C3.52081191 24.35052165 3.66819226 20.8414163 3.71264648 16.92602539 C3.7171582 16.17643555 3.72166992 15.4268457 3.72631836 14.65454102 C3.73808294 12.80750156 3.75601783 10.96050326 3.77514648 9.11352539 C1.46514648 8.12352539 -0.84485352 7.13352539 -3.22485352 6.11352539 C-3.26757452 4.44740634 -3.26549184 2.77969654 -3.22485352 1.11352539 C-2.22485352 0.11352539 -2.22485352 0.11352539 0 0 Z " fill="#010201" transform="translate(240.224853515625,51.886474609375)"/>
<path d="M0 0 C1.12894876 0.93274109 2.25300876 1.87140122 3.375 2.8125 C4.00148438 3.33457031 4.62796875 3.85664062 5.2734375 4.39453125 C7 6 7 6 9 9 C9.66 9 10.32 9 11 9 C11.309375 8.38125 11.61875 7.7625 11.9375 7.125 C12.625 5.75 13.3125 4.375 14 3 C14.99 3 15.98 3 17 3 C17 2.34 17 1.68 17 1 C18.65 0.67 20.3 0.34 22 0 C22.66 0.99 23.32 1.98 24 3 C22.71034824 4.37562854 21.37310707 5.70766393 20 7 C19.34 7 18.68 7 18 7 C18 9.97 18 12.94 18 16 C15.36 16.66 12.72 17.32 10 18 C9.67 24.27 9.34 30.54 9 37 C8.67 37 8.34 37 8 37 C7.97104775 33.70835171 7.9532177 30.41673601 7.9375 27.125 C7.92493164 25.71927734 7.92493164 25.71927734 7.91210938 24.28515625 C7.90888672 23.38925781 7.90566406 22.49335937 7.90234375 21.5703125 C7.89710693 20.74289551 7.89187012 19.91547852 7.88647461 19.06298828 C8 17 8 17 9 15 C8.34 15 7.68 15 7 15 C7 14.34 7 13.68 7 13 C6.38125 13.495 5.7625 13.99 5.125 14.5 C3 16 3 16 1 16 C1.33 16.99 1.66 17.98 2 19 C2.66 19.33 3.32 19.66 4 20 C3.05150753 24.74246236 1.44621549 29.55378451 -2 33 C-2 31.68 -2 30.36 -2 29 C-2.66 29 -3.32 29 -4 29 C-3.67 28.01 -3.34 27.02 -3 26 C-3.04125 24.72125 -3.0825 23.4425 -3.125 22.125 C-3.18131927 18.30936914 -2.46357762 16.03209553 0 13 C0.66 13 1.32 13 2 13 C0.635832 8.53545019 -1.34350071 6.7904863 -5 4 C-5 3.34 -5 2.68 -5 2 C-3.35 1.34 -1.7 0.68 0 0 Z " fill="#3AA138" transform="translate(59,36)"/>
<path d="M0 0 C0 0.66 0 1.32 0 2 C1.0828125 1.690625 1.0828125 1.690625 2.1875 1.375 C5 1 5 1 7.5625 2.0625 C9.97752226 3.30196543 9.97752226 3.30196543 12.3125 2.125 C12.869375 1.75375 13.42625 1.3825 14 1 C14 1.66 14 2.32 14 3 C15.65 2.67 17.3 2.34 19 2 C16.64551908 4.35448092 15.844948 4.33616746 12.625 4.625 C11.85414063 4.69976562 11.08328125 4.77453125 10.2890625 4.8515625 C8.19651952 4.98725641 6.096938 5 4 5 C4 5.99 4 6.98 4 8 C3.34 8 2.68 8 2 8 C1.67 7.01 1.34 6.02 1 5 C0.01 5 -0.98 5 -2 5 C-2 5.99 -2 6.98 -2 8 C-0.68 8.66 0.64 9.32 2 10 C1.01 10 0.02 10 -1 10 C-1 11.32 -1 12.64 -1 14 C-2.9375 14.5625 -2.9375 14.5625 -5 15 C-5.33 14.67 -5.66 14.34 -6 14 C-11.17735677 13.62947661 -11.17735677 13.62947661 -16 15 C-18.3494053 14.39239518 -20.68529088 13.72870472 -23 13 C-23 9.7 -23 6.4 -23 3 C-15.375 2 -15.375 2 -12 2 C-11.34 1.67 -10.68 1.34 -10 1 C-9.195625 1.185625 -8.39125 1.37125 -7.5625 1.5625 C-4.09800025 2.15399996 -3.3060601 0 0 0 Z " fill="#4F9D4B" transform="translate(204,81)"/>
<path d="M0 0 C0.99 0.33 1.98 0.66 3 1 C4.1875 4.0625 4.1875 4.0625 5 7 C5.556875 6.21625 6.11375 5.4325 6.6875 4.625 C9.07668565 1.91295142 10.60073413 1.03866457 14 0 C16.28062828 3.42094242 16.21925007 4.68187222 16.125 8.6875 C16.10695313 9.68136719 16.08890625 10.67523438 16.0703125 11.69921875 C16.04710937 12.45847656 16.02390625 13.21773437 16 14 C12.66666667 14 9.33333333 14 6 14 C3.48860015 14.31025641 0.98015607 14.63617791 -1.52734375 14.9765625 C-4 15 -4 15 -8 13 C-8 9.37 -8 5.74 -8 2 C-6.68 2 -5.36 2 -4 2 C-3.67 3.32 -3.34 4.64 -3 6 C-2.34 6 -1.68 6 -1 6 C-0.67 4.02 -0.34 2.04 0 0 Z " fill="#4F994C" transform="translate(263,81)"/>
<path d="M0 0 C2.02708057 0.12379689 2.02708057 0.12379689 3.875 -0.75 C6 -1 6 -1 8.3125 0.625 C10 3 10 3 9.8125 5.625 C9 8 9 8 8 10 C5.66666667 10 3.33333333 10 1 10 C0.01 10.66 -0.98 11.32 -2 12 C-8.28163265 10.89795918 -8.28163265 10.89795918 -10.5 8.125 C-11.0937726 5.60146644 -11.00130478 4.38772679 -10 2 C-7.40832977 -2.17546871 -4.34853598 -0.8697072 0 0 Z M6 3 C6.33 4.32 6.66 5.64 7 7 C7.33 6.01 7.66 5.02 8 4 C7.34 3.67 6.68 3.34 6 3 Z " fill="#50A34E" transform="translate(118,84)"/>
<path d="M0 0 C6.46153846 0.46153846 6.46153846 0.46153846 9 3 C9.66 2.34 10.32 1.68 11 1 C13.0234375 0.83984375 13.0234375 0.83984375 15.375 0.9375 C18.47710865 1.05681187 21.01455122 0.87927601 24 0 C25.61949011 2.57213134 26.04408751 3.67669159 25.625 6.75 C25.315625 7.86375 25.315625 7.86375 25 9 C26.32 9.66 27.64 10.32 29 11 C27 13 27 13 23.375 13.125 C22.26125 13.08375 21.1475 13.0425 20 13 C19.34 11.68 18.68 10.36 18 9 C18 9.66 18 10.32 18 11 C16.1875 11.625 16.1875 11.625 14 12 C13.01 11.34 12.02 10.68 11 10 C11.66 9.67 12.32 9.34 13 9 C12.67 8.34 12.34 7.68 12 7 C12.66 6.01 13.32 5.02 14 4 C13.34 3.67 12.68 3.34 12 3 C12 3.99 12 4.98 12 6 C7.16371695 5.00956295 2.52381127 4.04301154 -2 2 C-1.34 1.34 -0.68 0.68 0 0 Z " fill="#41953F" transform="translate(151,82)"/>
<path d="M0 0 C8.02985591 0.53532373 15.75806598 2.37903299 23 6 C23.07674657 10.52804747 23.0749787 14.58064313 22 19 C21.855625 19.78375 21.71125 20.5675 21.5625 21.375 C20.86447305 24.6324591 19.9397337 27.80490542 19 31 C18.34 30.67 17.68 30.34 17 30 C17.14154136 27.43719792 17.28808562 24.87484515 17.4375 22.3125 C17.47681641 21.59126953 17.51613281 20.87003906 17.55664062 20.12695312 C17.78185678 16.33292718 18.12839305 12.71348508 19 9 C17.72125 8.731875 16.4425 8.46375 15.125 8.1875 C9.99937583 7.0548104 5.00710512 5.56798699 0 4 C0 2.68 0 1.36 0 0 Z " fill="#449D40" transform="translate(105,18)"/>
<path d="M0 0 C0.33 0 0.66 0 1 0 C1.33 10.23 1.66 20.46 2 31 C3.32 31.33 4.64 31.66 6 32 C6.33 33.32 6.66 34.64 7 36 C5.68 35.67 4.36 35.34 3 35 C3.33 34.34 3.66 33.68 4 33 C3.34 33 2.68 33 2 33 C2.26676204 34.98491642 2.26676204 34.98491642 3 37 C3.99 37.33 4.98 37.66 6 38 C6 39.32 6 40.64 6 42 C4.02 42.495 4.02 42.495 2 43 C2 46.96 2 50.92 2 55 C1.01 54.34 0.02 53.68 -1 53 C-1.20041246 50.33998013 -1.22916008 47.90103268 -1.125 45.25 C-1.00694469 39.86125536 -1.03929898 34.62411421 -1.5625 29.25 C-2.07948697 23.02431184 -1.91785467 16.91760332 -1.625 10.6875 C-1.58189697 9.74874023 -1.53879395 8.80998047 -1.49438477 7.84277344 C-1.13181449 1.13181449 -1.13181449 1.13181449 0 0 Z " fill="#569C53" transform="translate(69,53)"/>
<path d="M0 0 C0 0.66 0 1.32 0 2 C0.721875 1.79375 1.44375 1.5875 2.1875 1.375 C5 1 5 1 7.5625 2.0625 C9.97752226 3.30196543 9.97752226 3.30196543 12.3125 2.125 C12.869375 1.75375 13.42625 1.3825 14 1 C14 1.66 14 2.32 14 3 C15.65 2.67 17.3 2.34 19 2 C16.64551908 4.35448092 15.844948 4.33616746 12.625 4.625 C11.85414063 4.69976562 11.08328125 4.77453125 10.2890625 4.8515625 C8.19651952 4.98725641 6.096938 5 4 5 C4 5.99 4 6.98 4 8 C3.34 8 2.68 8 2 8 C1.67 7.01 1.34 6.02 1 5 C0.01 5 -0.98 5 -2 5 C-2 5.99 -2 6.98 -2 8 C-0.68 8.66 0.64 9.32 2 10 C1.01 10 0.02 10 -1 10 C-1 11.32 -1 12.64 -1 14 C-2.32 14.33 -3.64 14.66 -5 15 C-4.67 11.7 -4.34 8.4 -4 5 C-5.32 5.33 -6.64 5.66 -8 6 C-8.66 5.67 -9.32 5.34 -10 5 C-10 5.66 -10 6.32 -10 7 C-9.01 7 -8.02 7 -7 7 C-7 7.66 -7 8.32 -7 9 C-7.99 9 -8.98 9 -10 9 C-10 9.66 -10 10.32 -10 11 C-8.68 10.67 -7.36 10.34 -6 10 C-6.99 11.485 -6.99 11.485 -8 13 C-9.32 13 -10.64 13 -12 13 C-12.33 9.7 -12.66 6.4 -13 3 C-9.375419 0.58361267 -8.99572608 1.20085478 -5 2 C-2 0 -2 0 0 0 Z " fill="#43973E" transform="translate(204,81)"/>
<path d="M0 0 C0.91716797 0.07001221 1.83433594 0.14002441 2.77929688 0.2121582 C4.0719043 0.33337036 4.0719043 0.33337036 5.390625 0.45703125 C6.15922852 0.52510986 6.92783203 0.59318848 7.71972656 0.66333008 C9.75 1.1875 9.75 1.1875 12.75 4.1875 C4.335 4.6825 4.335 4.6825 -4.25 5.1875 C-4.58 4.5275 -4.91 3.8675 -5.25 3.1875 C-5.93102783 3.16768066 -6.61205566 3.14786133 -7.3137207 3.12744141 C-10.39703917 3.03223017 -13.47967649 2.92253534 -16.5625 2.8125 C-18.1702832 2.76609375 -18.1702832 2.76609375 -19.81054688 2.71875 C-20.83857422 2.68007813 -21.86660156 2.64140625 -22.92578125 2.6015625 C-23.87364502 2.5701416 -24.82150879 2.5387207 -25.7980957 2.50634766 C-28.25 2.1875 -28.25 2.1875 -31.25 0.1875 C-21.14128209 -2.16994354 -10.25285022 -0.87113994 0 0 Z " fill="#409A3E" transform="translate(90.25,13.8125)"/>
<path d="M0 0 C0.33 0 0.66 0 1 0 C1.17045621 2.93732582 1.33724871 5.87474317 1.5 8.8125 C1.54842041 9.67875 1.59684082 10.545 1.64672852 11.4375 C1.93940275 16.96269402 2.05868313 22.43649059 1.83984375 27.96875 C1.85886211 30.31650808 1.85886211 30.31650808 4 33 C3.01 33.99 2.02 34.98 1 36 C-4.51672336 34.81011849 -7.26409244 33.46233403 -11 29 C-12.05287814 27.36622358 -13.0727001 25.70818403 -14 24 C-13.34 23.67 -12.68 23.34 -12 23 C-11.773125 23.61875 -11.54625 24.2375 -11.3125 24.875 C-10.1129825 27.17810896 -10.1129825 27.17810896 -7.625 28.4375 C-5.00799967 29.25524239 -5.00799967 29.25524239 -2.6875 28.0625 C-0.22291724 25.05023218 -0.66226214 22.78266398 -1 19 C-1.33 18.01 -1.66 17.02 -2 16 C-1.67 15.01 -1.34 14.02 -1 13 C-0.77548542 10.77425665 -0.59217122 8.54418481 -0.4375 6.3125 C-0.35371094 5.13300781 -0.26992187 3.95351562 -0.18359375 2.73828125 C-0.12300781 1.83464844 -0.06242187 0.93101563 0 0 Z " fill="#44A03E" transform="translate(67,76)"/>
<path d="M0 0 C1.11375 0.1546875 1.11375 0.1546875 2.25 0.3125 C1.95473818 6.21773649 -0.68702561 10.20057411 -4.75 14.3125 C-8.18160577 15.66918135 -9.23817124 15.48310959 -12.75 14.3125 C-13.08 15.3025 -13.41 16.2925 -13.75 17.3125 C-14.41 16.9825 -15.07 16.6525 -15.75 16.3125 C-14.9375 14.375 -14.9375 14.375 -13.75 12.3125 C-12.76 11.9825 -11.77 11.6525 -10.75 11.3125 C-10.75 10.6525 -10.75 9.9925 -10.75 9.3125 C-9.44026002 7.9559836 -8.10197858 6.62692362 -6.75 5.3125 C-6.110625 4.405 -5.47125 3.4975 -4.8125 2.5625 C-2.75 0.3125 -2.75 0.3125 0 0 Z " fill="#539450" transform="translate(107.75,95.6875)"/>
<path d="M0 0 C0.99 0.33 1.98 0.66 3 1 C2.67 4.3 2.34 7.6 2 11 C2.99 11.33 3.98 11.66 5 12 C2.03078942 13.64956143 -0.60527583 14.66052758 -4 15 C-5.32 14.34 -6.64 13.68 -8 13 C-8 9.37 -8 5.74 -8 2 C-6.68 2 -5.36 2 -4 2 C-3.67 3.32 -3.34 4.64 -3 6 C-2.34 6 -1.68 6 -1 6 C-0.67 4.02 -0.34 2.04 0 0 Z " fill="#46943D" transform="translate(263,81)"/>
<path d="M0 0 C2.87639682 3.30785635 4.37862426 6.97161368 6.03515625 10.9765625 C6.93870883 13.1613192 6.93870883 13.1613192 9 15 C9 15.99 9 16.98 9 18 C9.66 18 10.32 18 11 18 C11 18.66 11 19.32 11 20 C10.34 20.66 9.68 21.32 9 22 C9.639375 22.9075 10.27875 23.815 10.9375 24.75 C12.61428953 27.39221381 13.53689998 28.9898499 14 32 C13.34 32 12.68 32 12 32 C11.04805865 30.60608588 10.10494707 29.20519719 9.2109375 27.7734375 C7.90783047 25.86501623 6.44556633 24.25564711 4.875 22.5625 C1.89617042 19.19251098 0.89372636 16.37925916 0 12 C0.99 11.34 1.98 10.68 3 10 C2.67 8.35 2.34 6.7 2 5 C1.34 5 0.68 5 0 5 C0 3.35 0 1.7 0 0 Z " fill="#4A9047" transform="translate(26,79)"/>
<path d="M0 0 C0.43570313 0.37511719 0.87140625 0.75023438 1.3203125 1.13671875 C5.18607599 4.45859777 9.07657648 7.74642927 13 11 C12.01 11.33 11.02 11.66 10 12 C9.01 11.34 8.02 10.68 7 10 C7.66 11.98 8.32 13.96 9 16 C3.56427499 12.88204606 -0.72794603 9.59245802 -5 5 C-4.67 4.01 -4.34 3.02 -4 2 C-2.02 2.495 -2.02 2.495 0 3 C0 2.01 0 1.02 0 0 Z " fill="#499144" transform="translate(46,109)"/>
<path d="M0 0 C0.33 1.32 0.66 2.64 1 4 C1.66 2.68 2.32 1.36 3 0 C10.875 0.875 10.875 0.875 12 2 C12.04063832 3.66617115 12.042721 5.33388095 12 7 C10.42085985 7.53341184 8.83645613 8.05125763 7.25 8.5625 C6.36828125 8.85253906 5.4865625 9.14257812 4.578125 9.44140625 C1.92165684 10.01697435 0.52968894 9.89248371 -2 9 C-2.33 7.68 -2.66 6.36 -3 5 C-2.34 5 -1.68 5 -1 5 C-1.66 4.67 -2.32 4.34 -3 4 C-3 3.01 -3 2.02 -3 1 C-2.01 0.67 -1.02 0.34 0 0 Z M2 5 C2 5.66 2 6.32 2 7 C2.66 7 3.32 7 4 7 C4 6.34 4 5.68 4 5 C3.34 5 2.68 5 2 5 Z " fill="#419A3C" transform="translate(205,85)"/>
<path d="M0 0 C1.75 1.4375 1.75 1.4375 3 3 C1.71034824 4.37562854 0.37310707 5.70766393 -1 7 C-1.66 7 -2.32 7 -3 7 C-3 9.97 -3 12.94 -3 16 C-5.31 16.33 -7.62 16.66 -10 17 C-9.67 15.68 -9.34 14.36 -9 13 C-8.34 13 -7.68 13 -7 13 C-6.67 11.35 -6.34 9.7 -6 8 C-6.33 8.33 -6.66 8.66 -7 9 C-7.99 9 -8.98 9 -10 9 C-9 7 -8 5 -7 3 C-6.01 3 -5.02 3 -4 3 C-4 2.34 -4 1.68 -4 1 C-2.1875 0.3125 -2.1875 0.3125 0 0 Z " fill="#398F33" transform="translate(80,36)"/>
<path d="M0 0 C7.92 0 15.84 0 24 0 C24 0.33 24 0.66 24 1 C22.35 1 20.7 1 19 1 C17.98888907 4.04913228 17.98888907 4.04913228 19 7 C16.69 7.33 14.38 7.66 12 8 C11.67 6.35 11.34 4.7 11 3 C10.01 3 9.02 3 8 3 C7.67 3.66 7.34 4.32 7 5 C4.69 4.34 2.38 3.68 0 3 C0 2.01 0 1.02 0 0 Z " fill="#428B3F" transform="translate(124,83)"/>
<path d="M0 0 C0.33 0.66 0.66 1.32 1 2 C3.97 2 6.94 2 10 2 C12 6 12 6 11.625 8.25 C11.315625 9.11625 11.315625 9.11625 11 10 C10.67 8.35 10.34 6.7 10 5 C7.69 5.33 5.38 5.66 3 6 C2.773125 6.94875 2.54625 7.8975 2.3125 8.875 C1 12 1 12 -1.625 13.375 C-2.40875 13.58125 -3.1925 13.7875 -4 14 C-4.33 12.68 -4.66 11.36 -5 10 C-4.34 10 -3.68 10 -3 10 C-2.87625 8.906875 -2.7525 7.81375 -2.625 6.6875 C-2 3 -2 3 0 0 Z " fill="#3AA237" transform="translate(41,76)"/>
<path d="M0 0 C0.66 1.32 1.32 2.64 2 4 C1.34 4.66 0.68 5.32 0 6 C0 7.32 0 8.64 0 10 C0.66 10.33 1.32 10.66 2 11 C1.05150753 15.74246236 -0.55378451 20.55378451 -4 24 C-4 22.68 -4 21.36 -4 20 C-4.66 20 -5.32 20 -6 20 C-5.505 18.515 -5.505 18.515 -5 17 C-5.04125 15.72125 -5.0825 14.4425 -5.125 13.125 C-5.18131927 9.30936914 -4.46357762 7.03209553 -2 4 C-1.34 4 -0.68 4 0 4 C0 2.68 0 1.36 0 0 Z " fill="#41A042" transform="translate(61,45)"/>
<path d="M0 0 C0.33 5.28 0.66 10.56 1 16 C0.01 16 -0.98 16 -2 16 C-2 14.35 -2 12.7 -2 11 C-3.35439668 13.70879335 -3.06501451 16.00933268 -3 19 C-6.31658613 14.0251208 -7.38479461 7.96431647 -7 2 C-6.01 2.495 -6.01 2.495 -5 3 C-4.360625 2.505 -3.72125 2.01 -3.0625 1.5 C-1 0 -1 0 0 0 Z " fill="#399037" transform="translate(17,33)"/>
<path d="M0 0 C1.32 0.33 2.64 0.66 4 1 C3.67 1.66 3.34 2.32 3 3 C-0.0625 3.625 -0.0625 3.625 -3 4 C-2.67 4.99 -2.34 5.98 -2 7 C-1.125 10.4375 -1.125 10.4375 -1 14 C-3.375 16.4375 -3.375 16.4375 -6 18 C-6.33 18 -6.66 18 -7 18 C-7 13.05 -7 8.1 -7 3 C-5.35 2.34 -3.7 1.68 -2 1 C-1.34 1.33 -0.68 1.66 0 2 C0 1.34 0 0.68 0 0 Z " fill="#4B9048" transform="translate(18,19)"/>
<path d="M0 0 C0.99 0.33 1.98 0.66 3 1 C2.01 2.485 2.01 2.485 1 4 C1.30840599 6.15274948 1.30840599 6.15274948 2 8 C3.32 8 4.64 8 6 8 C6 7.34 6 6.68 6 6 C6.66 6.33 7.32 6.66 8 7 C6 10 6 10 4 11 C0.9375 10.6875 0.9375 10.6875 -2 10 C-2.33 9.34 -2.66 8.68 -3 8 C-3.33 8.66 -3.66 9.32 -4 10 C-6.64860427 10.59355614 -9.29197322 10.74209269 -12 11 C-12.66 9.35 -13.32 7.7 -14 6 C-13.34 5.67 -12.68 5.34 -12 5 C-12 6.32 -12 7.64 -12 9 C-11.34 9 -10.68 9 -10 9 C-10 7.68 -10 6.36 -10 5 C-9.34 5 -8.68 5 -8 5 C-8 5.99 -8 6.98 -8 8 C-7.34 8 -6.68 8 -6 8 C-5.67 6.02 -5.34 4.04 -5 2 C-3.35 2.33 -1.7 2.66 0 3 C0 2.01 0 1.02 0 0 Z " fill="#4F9C4A" transform="translate(163,85)"/>
<path d="M0 0 C3 0 3 0 4.84765625 0.98828125 C7.52221844 2.2454711 9.49357064 2.23241432 12.4375 2.1875 C13.36433594 2.18105469 14.29117188 2.17460938 15.24609375 2.16796875 C18.00479247 2.06826883 18.00479247 2.06826883 20.671875 1.4296875 C23.66444757 0.87736706 25.30878102 1.6928365 28 3 C27.67 3.66 27.34 4.32 27 5 C26.34 4.67 25.68 4.34 25 4 C25 4.66 25 5.32 25 6 C22.03 5.505 22.03 5.505 19 5 C19.99 5.99 20.98 6.98 22 8 C20.35 8 18.7 8 17 8 C16.67 7.34 16.34 6.68 16 6 C13.58109851 5.6059614 13.58109851 5.6059614 10.75 5.5 C6.73688269 5.28307474 3.67109864 4.66137311 0 3 C0 2.01 0 1.02 0 0 Z " fill="#438A40" transform="translate(70,81)"/>
<path d="M0 0 C1.29519273 3.8855782 0.93404674 7.41507307 0.6875 11.4375 C0.63432617 12.5831543 0.63432617 12.5831543 0.58007812 13.75195312 C0.35603087 17.59419633 0.16473228 20.68663427 -2 24 C-3.9375 23.6875 -3.9375 23.6875 -6 23 C-6.33 22.01 -6.66 21.02 -7 20 C-6.34 20 -5.68 20 -5 20 C-4.7834375 18.4221875 -4.7834375 18.4221875 -4.5625 16.8125 C-4.12422445 13.84196571 -3.6180261 10.93562398 -3 8 C-2.855625 7.13375 -2.71125 6.2675 -2.5625 5.375 C-2 3 -2 3 0 0 Z " fill="#489746" transform="translate(129,29)"/>
<path d="M0 0 C0 1.32 0 2.64 0 4 C-0.99 4.33 -1.98 4.66 -3 5 C-2.01 5 -1.02 5 0 5 C0.33 5.99 0.66 6.98 1 8 C1.66 8.66 2.32 9.32 3 10 C2 11 2 11 -0.72265625 11.09765625 C-2.37587891 11.08025391 -2.37587891 11.08025391 -4.0625 11.0625 C-5.16722656 11.05347656 -6.27195313 11.04445313 -7.41015625 11.03515625 C-8.69212891 11.01775391 -8.69212891 11.01775391 -10 11 C-10 10.34 -10 9.68 -10 9 C-9.34 8.67 -8.68 8.34 -8 8 C-7.835 6.845 -7.67 5.69 -7.5 4.5 C-7.335 3.345 -7.17 2.19 -7 1 C-4.53721199 -0.231394 -2.7204945 -0.07159196 0 0 Z " fill="#56A553" transform="translate(240,84)"/>
<path d="M0 0 C2.31 0 4.62 0 7 0 C7.33 2.64 7.66 5.28 8 8 C6.02 8.99 4.04 9.98 2 11 C2.33 11.66 2.66 12.32 3 13 C1.68 13.33 0.36 13.66 -1 14 C-1.33 15.65 -1.66 17.3 -2 19 C-2.33 19 -2.66 19 -3 19 C-2.93008114 15.50405706 -2.87293299 12.91070413 -0.375 10.3046875 C0.8912183 9.28864943 2.18409473 8.30475307 3.50390625 7.359375 C3.99761719 6.91078125 4.49132813 6.4621875 5 6 C5 5.01 5 4.02 5 3 C3.68 2.67 2.36 2.34 1 2 C0.67 3.98 0.34 5.96 0 8 C-1.65 8.33 -3.3 8.66 -5 9 C-4.54625 8.62875 -4.0925 8.2575 -3.625 7.875 C-1.52970606 5.45735315 -0.87986715 3.04569398 0 0 Z " fill="#509B4D" transform="translate(44,81)"/>
<path d="M0 0 C1.85598719 0.42971132 3.70971264 0.86919505 5.5625 1.3125 C7.11130859 1.67794922 7.11130859 1.67794922 8.69140625 2.05078125 C12.31614989 3.0907018 15.56463878 4.45343763 19 6 C19.02706445 8.89589652 19.04687029 11.79153795 19.0625 14.6875 C19.07087891 15.50412109 19.07925781 16.32074219 19.08789062 17.16210938 C19.10442051 21.24499084 19.03035098 25.01651707 18 29 C17.34 28.67 16.68 28.34 16 28 C16.14154136 25.43719792 16.28808562 22.87484515 16.4375 20.3125 C16.47681641 19.59126953 16.51613281 18.87003906 16.55664062 18.12695312 C16.78185678 14.33292718 17.12839305 10.71348508 18 7 C17.45472656 6.89042969 16.90945312 6.78085937 16.34765625 6.66796875 C10.74464935 5.48990063 5.3945613 3.912965 0 2 C0 1.34 0 0.68 0 0 Z " fill="#5D9D59" transform="translate(106,20)"/>
<path d="M0 0 C2.31 0.66 4.62 1.32 7 2 C6.34 5.3 5.68 8.6 5 12 C3.68 12.33 2.36 12.66 1 13 C-0.6290678 8.20862412 -1.20577428 4.94367454 0 0 Z " fill="#4B8D48" transform="translate(98,82)"/>
<path d="M0 0 C6.46153846 0.46153846 6.46153846 0.46153846 9 3 C9.66 2.34 10.32 1.68 11 1 C13.0234375 0.83984375 13.0234375 0.83984375 15.375 0.9375 C18.47710865 1.05681187 21.01455122 0.87927601 24 0 C24.66 1.32 25.32 2.64 26 4 C23.525 3.505 23.525 3.505 21 3 C20.67 3.66 20.34 4.32 20 5 C19.34 4.67 18.68 4.34 18 4 C16.00448218 3.64080679 14.00451121 3.30503431 12 3 C12 3.99 12 4.98 12 6 C7.16371695 5.00956295 2.52381127 4.04301154 -2 2 C-1.34 1.34 -0.68 0.68 0 0 Z " fill="#427B3F" transform="translate(151,82)"/>
<path d="M0 0 C2.31 1.98 4.62 3.96 7 6 C5.68 7.32 4.36 8.64 3 10 C1.66102417 9.04956626 0.32894573 8.08940853 -1 7.125 C-1.7425 6.59132813 -2.485 6.05765625 -3.25 5.5078125 C-3.8275 5.01023437 -4.405 4.51265625 -5 4 C-5 3.34 -5 2.68 -5 2 C-3.35 1.34 -1.7 0.68 0 0 Z " fill="#398D38" transform="translate(59,36)"/>
<path d="M0 0 C0.66 0 1.32 0 2 0 C2.226875 0.61875 2.45375 1.2375 2.6875 1.875 C4.42695928 4.69126741 5.81226664 5.24101587 9 6 C11.2857711 5.23396041 11.2857711 5.23396041 13 4 C13.144375 5.11375 13.28875 6.2275 13.4375 7.375 C13.78372035 10.82142047 13.78372035 10.82142047 15 13 C8.29275667 11.55333967 5.04574342 9.10388657 1.1875 3.25 C0 1 0 1 0 0 Z " fill="#3F913E" transform="translate(53,99)"/>
<path d="M0 0 C2.5 1.4375 2.5 1.4375 3.8125 4.5625 C4.1528125 5.985625 4.1528125 5.985625 4.5 7.4375 C3.51 7.7675 2.52 8.0975 1.5 8.4375 C1.17 7.7775 0.84 7.1175 0.5 6.4375 C-0.16 6.4375 -0.82 6.4375 -1.5 6.4375 C-0.84 8.0875 -0.18 9.7375 0.5 11.4375 C-0.49 11.9325 -0.49 11.9325 -1.5 12.4375 C-2.00559908 11.00195975 -2.5042749 9.5639798 -3 8.125 C-3.2784375 7.32449219 -3.556875 6.52398437 -3.84375 5.69921875 C-4.5 3.4375 -4.5 3.4375 -4.5 0.4375 C-2.5 -0.5625 -2.5 -0.5625 0 0 Z " fill="#418B3E" transform="translate(44.5,58.5625)"/>
<path d="M0 0 C2.97 0.495 2.97 0.495 6 1 C6 1.66 6 2.32 6 3 C6.99 3.33 7.98 3.66 9 4 C8.01 4.33 7.02 4.66 6 5 C5.34 5.66 4.68 6.32 4 7 C0.23312136 7 -0.91190305 6.76462683 -4 5 C-4.33 6.32 -4.66 7.64 -5 9 C-5 6.36 -5 3.72 -5 1 C-4.34 1 -3.68 1 -3 1 C-3 1.66 -3 2.32 -3 3 C-2.01 3.33 -1.02 3.66 0 4 C0 2.68 0 1.36 0 0 Z " fill="#44963C" transform="translate(76,85)"/>
<path d="M0 0 C0.33 0.99 0.66 1.98 1 3 C1.99 3.33 2.98 3.66 4 4 C3.34 4 2.68 4 2 4 C2.33 4.99 2.66 5.98 3 7 C1.68 7.33 0.36 7.66 -1 8 C-1 8.99 -1 9.98 -1 11 C-3.475 10.01 -3.475 10.01 -6 9 C-5.67 6.69 -5.34 4.38 -5 2 C-3.35 1.34 -1.7 0.68 0 0 Z " fill="#488A46" transform="translate(231,81)"/>
<path d="M0 0 C3.54164915 -0.0292067 7.08326697 -0.04686814 10.625 -0.0625 C11.62402344 -0.07087891 12.62304688 -0.07925781 13.65234375 -0.08789062 C18.55020275 -0.1041087 23.18656199 -0.04318537 28 1 C28 1.33 28 1.66 28 2 C23.87502594 2.16731286 19.75001667 2.33374116 15.625 2.5 C14.449375 2.54769531 13.27375 2.59539063 12.0625 2.64453125 C10.94101563 2.68964844 9.81953125 2.73476562 8.6640625 2.78125 C7.10872803 2.8440918 7.10872803 2.8440918 5.52197266 2.90820312 C4.01533561 2.96304296 2.50763477 3 1 3 C0.67 2.01 0.34 1.02 0 0 Z " fill="#39773A" transform="translate(61,11)"/>
<path d="M0 0 C0.66 0 1.32 0 2 0 C2 0.66 2 1.32 2 2 C2.721875 1.79375 3.44375 1.5875 4.1875 1.375 C7 1 7 1 9.5625 2.0625 C11.97752226 3.30196543 11.97752226 3.30196543 14.3125 2.125 C14.869375 1.75375 15.42625 1.3825 16 1 C16 1.66 16 2.32 16 3 C17.65 2.67 19.3 2.34 21 2 C18.64551908 4.35448092 17.844948 4.33616746 14.625 4.625 C13.85414063 4.69976562 13.08328125 4.77453125 12.2890625 4.8515625 C10.19651952 4.98725641 8.096938 5 6 5 C6 5.99 6 6.98 6 8 C5.34 8 4.68 8 4 8 C3.67 6.68 3.34 5.36 3 4 C1.35 3.67 -0.3 3.34 -2 3 C-1.34 2.01 -0.68 1.02 0 0 Z " fill="#356E34" transform="translate(202,81)"/>
<path d="M0 0 C0 0.99 0 1.98 0 3 C0.99 3.33 1.98 3.66 3 4 C3 6.31 3 8.62 3 11 C2.01 11 1.02 11 0 11 C0 9.35 0 7.7 0 6 C-0.33 6.66 -0.66 7.32 -1 8 C-2.65 7.67 -4.3 7.34 -6 7 C-5.34 6.01 -4.68 5.02 -4 4 C-4.66 3.34 -5.32 2.68 -6 2 C-3 0 -3 0 0 0 Z " fill="#57A155" transform="translate(249,84)"/>
<path d="M0 0 C13.65975104 0.50219673 13.65975104 0.50219673 19 5 C20.03273144 7.678811 20.18329407 8.56009422 19.0625 11.25 C18.5365625 12.11625 18.5365625 12.11625 18 13 C18 10.69 18 8.38 18 6 C16.93072266 5.70996094 16.93072266 5.70996094 15.83984375 5.4140625 C10.54986672 3.97587225 5.26663967 2.52147368 0 1 C0 0.67 0 0.34 0 0 Z " fill="#5D955D" transform="translate(110,18)"/>
<path d="M0 0 C1.31611677 0.95336021 2.62778961 1.91285774 3.9375 2.875 C4.66839844 3.40867187 5.39929687 3.94234375 6.15234375 4.4921875 C8 6 8 6 9 8 C6.83125748 7.49396008 5.00032373 7.00016187 3 6 C3.66 7.98 4.32 9.96 5 12 C3.02 11.01 1.04 10.02 -1 9 C-1 8.34 -1 7.68 -1 7 C-0.34 6.67 0.32 6.34 1 6 C0.34 5.34 -0.32 4.68 -1 4 C-0.625 1.875 -0.625 1.875 0 0 Z " fill="#54934F" transform="translate(50,113)"/>
<path d="M0 0 C0.185625 0.9590625 0.185625 0.9590625 0.375 1.9375 C0.684375 2.9584375 0.684375 2.9584375 1 4 C1.66 4.33 2.32 4.66 3 5 C2.67 5.66 2.34 6.32 2 7 C2.99 7 3.98 7 5 7 C5 7.66 5 8.32 5 9 C2.125 9.625 2.125 9.625 -1 10 C-1.66 9.34 -2.32 8.68 -3 8 C-2.67 7.01 -2.34 6.02 -2 5 C-2.33 4.67 -2.66 4.34 -3 4 C-3 3.01 -3 2.02 -3 1 C-2.01 0.67 -1.02 0.34 0 0 Z " fill="#519F4E" transform="translate(205,85)"/>
<path d="M0 0 C0.598125 0.350625 1.19625 0.70125 1.8125 1.0625 C0.4925 1.0625 -0.8275 1.0625 -2.1875 1.0625 C-1.8575 2.3825 -1.5275 3.7025 -1.1875 5.0625 C0.1325 4.4025 1.4525 3.7425 2.8125 3.0625 C2.1525 5.0425 1.4925 7.0225 0.8125 9.0625 C-0.8375 8.7325 -2.4875 8.4025 -4.1875 8.0625 C-4.5175 5.4225 -4.8475 2.7825 -5.1875 0.0625 C-2.1875 -0.9375 -2.1875 -0.9375 0 0 Z " fill="#4C9D47" transform="translate(147.1875,85.9375)"/>
<path d="M0 0 C2.97 0 5.94 0 9 0 C8.67 1.98 8.34 3.96 8 6 C4.7 6 1.4 6 -2 6 C-2 5.34 -2 4.68 -2 4 C1.465 3.505 1.465 3.505 5 3 C2.525 2.01 2.525 2.01 0 1 C0 0.67 0 0.34 0 0 Z " fill="#509E4F" transform="translate(44,72)"/>
<path d="M0 0 C0.33 0 0.66 0 1 0 C1.054138 2.24973447 1.09285491 4.49984383 1.125 6.75 C1.14820313 8.00296875 1.17140625 9.2559375 1.1953125 10.546875 C1.01537302 13.72820492 0.68998582 15.36521896 -1 18 C-2.9375 17.6875 -2.9375 17.6875 -5 17 C-5.33 16.01 -5.66 15.02 -6 14 C-4.02 13.34 -2.04 12.68 0 12 C0 8.04 0 4.08 0 0 Z " fill="#487B46" transform="translate(128,35)"/>
<path d="M0 0 C0.66 0.66 1.32 1.32 2 2 C-0.51974061 4.10779391 -2.92170405 5.81720648 -6 7 C-9.2841675 6.56480985 -12.03987068 5.45950821 -15 4 C-12 3 -12 3 -8.625 3.125 C-4.74619829 2.99124822 -3.08876656 2.24637568 0 0 Z " fill="#447B43" transform="translate(78,128)"/>
<path d="M0 0 C1.75 1.4375 1.75 1.4375 3 3 C1.71034824 4.37562854 0.37310707 5.70766393 -1 7 C-1.66 7 -2.32 7 -3 7 C-3.33 7.66 -3.66 8.32 -4 9 C-4 8.01 -4 7.02 -4 6 C-3.34 6 -2.68 6 -2 6 C-2 5.34 -2 4.68 -2 4 C-2.99 4.33 -3.98 4.66 -5 5 C-5.66 4.34 -6.32 3.68 -7 3 C-6.01 3 -5.02 3 -4 3 C-4 2.34 -4 1.68 -4 1 C-2.1875 0.3125 -2.1875 0.3125 0 0 Z " fill="#316C2C" transform="translate(80,36)"/>
<path d="M0 0 C0.66 0 1.32 0 2 0 C2.33 1.65 2.66 3.3 3 5 C3.99 5.33 4.98 5.66 6 6 C5.34 7.32 4.68 8.64 4 10 C1.69 9.67 -0.62 9.34 -3 9 C-2.01 8.34 -1.02 7.68 0 7 C0.25015873 3.41642759 0.25015873 3.41642759 0 0 Z " fill="#609C58" transform="translate(265,85)"/>
<path d="M0 0 C0.99 0 1.98 0 3 0 C3 0.99 3 1.98 3 3 C3.66 3 4.32 3 5 3 C5.66 4.98 6.32 6.96 7 9 C5.35 9.66 3.7 10.32 2 11 C1.34 7.37 0.68 3.74 0 0 Z " fill="#3D983C" transform="translate(23,81)"/>
<path d="M0 0 C1.1446875 0.3403125 1.1446875 0.3403125 2.3125 0.6875 C1.3125 2.6875 1.3125 2.6875 -0.625 3.5 C-3.36906708 5.07991741 -3.75640124 6.7390206 -4.6875 9.6875 C-6.6875 6.6875 -6.6875 6.6875 -6.5 4.6875 C-5.04960066 1.11728624 -4.01778221 -0.46718398 0 0 Z " fill="#4C874A" transform="translate(113.6875,83.3125)"/>
<path d="M0 0 C0.66 1.32 1.32 2.64 2 4 C1.34 4 0.68 4 0 4 C0 4.99 0 5.98 0 7 C-0.66 7 -1.32 7 -2 7 C-2 6.01 -2 5.02 -2 4 C-2.66 4 -3.32 4 -4 4 C-4 5.32 -4 6.64 -4 8 C-4.66 8 -5.32 8 -6 8 C-6.66 6.02 -7.32 4.04 -8 2 C-6.68 1.67 -5.36 1.34 -4 1 C-4 1.66 -4 2.32 -4 3 C-3.01 2.67 -2.02 2.34 -1 2 C-0.67 1.34 -0.34 0.68 0 0 Z " fill="#3F9B39" transform="translate(157,86)"/>
<path d="M0 0 C0.928125 0.2784375 0.928125 0.2784375 1.875 0.5625 C4.04160178 1.23686176 4.04160178 1.23686176 6 0 C6.33 1.32 6.66 2.64 7 4 C6.360625 4.4125 5.72125 4.825 5.0625 5.25 C2.79009069 7.17810487 2.39803561 8.11424181 2 11 C0.57741188 7.17679443 -0.24042276 4.08718695 0 0 Z " fill="#378431" transform="translate(13,53)"/>
<path d="M0 0 C0.33 1.32 0.66 2.64 1 4 C1.66 4 2.32 4 3 4 C3 2.68 3 1.36 3 0 C3.66 0 4.32 0 5 0 C5 0.99 5 1.98 5 3 C5.66 3 6.32 3 7 3 C7.33 2.01 7.66 1.02 8 0 C8.66 0.66 9.32 1.32 10 2 C9.67 2.99 9.34 3.98 9 5 C6.36 5.33 3.72 5.66 1 6 C0.34 4.35 -0.32 2.7 -1 1 C-0.67 0.67 -0.34 0.34 0 0 Z " fill="#5E9858" transform="translate(150,90)"/>
<path d="M0 0 C0.33 0 0.66 0 1 0 C1 1.65 1 3.3 1 5 C-1.33333333 5 -3.66666667 5 -6 5 C-6.99 5.66 -7.98 6.32 -9 7 C-9.33 5.35 -9.66 3.7 -10 2 C-7.03 2 -4.06 2 -1 2 C-0.67 1.34 -0.34 0.68 0 0 Z " fill="#518A4F" transform="translate(125,89)"/>
<path d="M0 0 C0.33 0.66 0.66 1.32 1 2 C1.66 2 2.32 2 3 2 C3 2.66 3 3.32 3 4 C4.32 4.66 5.64 5.32 7 6 C5 8 5 8 1.375 8.125 C0.26125 8.08375 -0.8525 8.0425 -2 8 C-2 7.34 -2 6.68 -2 6 C-1.01 6 -0.02 6 1 6 C0.67 4.02 0.34 2.04 0 0 Z " fill="#519A53" transform="translate(173,87)"/>
<path d="M0 0 C2.97 0.495 2.97 0.495 6 1 C6 1.66 6 2.32 6 3 C6.66 3.66 7.32 4.32 8 5 C7.34 5 6.68 5 6 5 C6 5.66 6 6.32 6 7 C2.73045798 6.43628586 1.17424117 5.50037734 -1 3 C-0.67 2.01 -0.34 1.02 0 0 Z " fill="#5DA459" transform="translate(270,85)"/>
<path d="M0 0 C1.485 0.99 1.485 0.99 3 2 C3.66 2 4.32 2 5 2 C5 2.66 5 3.32 5 4 C5.66 4 6.32 4 7 4 C7 3.34 7 2.68 7 2 C7.66 2 8.32 2 9 2 C9 1.34 9 0.68 9 0 C9.66 0.33 10.32 0.66 11 1 C8.525 4.465 8.525 4.465 6 8 C5.67 7.34 5.34 6.68 5 6 C3.35636866 5.27840576 1.68949614 4.60648579 0 4 C0 2.68 0 1.36 0 0 Z " fill="#4F954B" transform="translate(37,99)"/>
<path d="M0 0 C0.99 0.33 1.98 0.66 3 1 C2.67 3.97 2.34 6.94 2 10 C1.01 10.33 0.02 10.66 -1 11 C-1.125 3.375 -1.125 3.375 0 0 Z " fill="#3F803D" transform="translate(263,81)"/>
<path d="M0 0 C1.32 0.33 2.64 0.66 4 1 C3.34 1 2.68 1 2 1 C2 1.66 2 2.32 2 3 C2.99 3 3.98 3 5 3 C5 3.66 5 4.32 5 5 C4.01 5 3.02 5 2 5 C2 5.66 2 6.32 2 7 C3.32 6.67 4.64 6.34 6 6 C5.01 7.485 5.01 7.485 4 9 C2.68 9 1.36 9 0 9 C0 6.03 0 3.06 0 0 Z " fill="#41983A" transform="translate(192,85)"/>
<path d="M0 0 C3.17175425 3.43535849 3.45766505 6.15330091 3.6875 10.75 C3.75324219 11.92046875 3.81898437 13.0909375 3.88671875 14.296875 C3.92410156 15.18890625 3.96148437 16.0809375 4 17 C0.68341387 12.0251208 -0.38479461 5.96431647 0 0 Z " fill="#2D6626" transform="translate(10,35)"/>
<path d="M0 0 C1 2 2 4 3 6 C2.34 6 1.68 6 1 6 C0.34 7.32 -0.32 8.64 -1 10 C-2.65 9.67 -4.3 9.34 -6 9 C-5.34 8.67 -4.68 8.34 -4 8 C-3.34786708 5.97536745 -3.34786708 5.97536745 -3 4 C-2.34 4.66 -1.68 5.32 -1 6 C-1.020625 5.195625 -1.04125 4.39125 -1.0625 3.5625 C-1 1 -1 1 0 0 Z " fill="#54964F" transform="translate(217,85)"/>
<path d="M0 0 C0 1.32 0 2.64 0 4 C-2.31 4.33 -4.62 4.66 -7 5 C-6.625 3.0625 -6.625 3.0625 -6 1 C-4 0 -4 0 0 0 Z " fill="#428541" transform="translate(77,48)"/>
<path d="M0 0 C0.66 0 1.32 0 2 0 C2.33 0.66 2.66 1.32 3 2 C4.32 2 5.64 2 7 2 C7.33 1.34 7.66 0.68 8 0 C8.66 0.33 9.32 0.66 10 1 C9.1875 3.4375 9.1875 3.4375 8 6 C7.01 6.33 6.02 6.66 5 7 C4.67 6.34 4.34 5.68 4 5 C3.01 4.67 2.02 4.34 1 4 C1 3.34 1 2.68 1 2 C0.34 1.67 -0.32 1.34 -1 1 C-0.67 0.67 -0.34 0.34 0 0 Z " fill="#439E3D" transform="translate(65,43)"/>
<path d="M0 0 C1.98 0 3.96 0 6 0 C6 2.31 6 4.62 6 7 C3.03 6.505 3.03 6.505 0 6 C0 5.34 0 4.68 0 4 C0.99 4 1.98 4 3 4 C3 3.34 3 2.68 3 2 C2.01 2 1.02 2 0 2 C0 1.34 0 0.68 0 0 Z " fill="#4EA145" transform="translate(194,86)"/>
<path d="M0 0 C-0.33 0.66 -0.66 1.32 -1 2 C-1.66 1.67 -2.32 1.34 -3 1 C-3 1.66 -3 2.32 -3 3 C-7.455 2.01 -7.455 2.01 -12 1 C-7.98716318 -3.01283682 -5.03280241 -1.94449184 0 0 Z " fill="#3A7935" transform="translate(98,84)"/>
<path d="M0 0 C0.66 1.32 1.32 2.64 2 4 C0.35 3.67 -1.3 3.34 -3 3 C-3.33 3.66 -3.66 4.32 -4 5 C-6.31 4.01 -8.62 3.02 -11 2 C-3.28571429 0 -3.28571429 0 0 0 Z " fill="#2C612C" transform="translate(175,82)"/>
<path d="M0 0 C2.97 0.33 5.94 0.66 9 1 C9.33 1.99 9.66 2.98 10 4 C3.25 3.125 3.25 3.125 1 2 C0.67 2.66 0.34 3.32 0 4 C0 2.68 0 1.36 0 0 Z " fill="#3CA13B" transform="translate(105,18)"/>
<path d="M0 0 C0.66 0 1.32 0 2 0 C1.84518205 2.70931419 1.51827919 4.46584039 -0.40234375 6.4453125 C-1.89771708 7.67679642 -3.4462924 8.8429837 -5 10 C-5.33 9.01 -5.66 8.02 -6 7 C-5.34 7 -4.68 7 -4 7 C-3.34 5.35 -2.68 3.7 -2 2 C-1.34 2 -0.68 2 0 2 C0 1.34 0 0.68 0 0 Z " fill="#419C3E" transform="translate(105,99)"/>
<path d="M0 0 C0.66 1.32 1.32 2.64 2 4 C2.66 4 3.32 4 4 4 C4 5.65 4 7.3 4 9 C2.68 9 1.36 9 0 9 C0 6.03 0 3.06 0 0 Z " fill="#5B9958" transform="translate(258,83)"/>
<path d="M0 0 C0.33 1.65 0.66 3.3 1 5 C-1.31 5 -3.62 5 -6 5 C-6.33 3.68 -6.66 2.36 -7 1 C-4.50935112 0.31292445 -2.62113708 0 0 0 Z " fill="#45A13F" transform="translate(135,86)"/>
<path d="M0 0 C2.42130331 2.42130331 2.52840504 3.80111377 3.125 7.125 C3.29257812 8.03507812 3.46015625 8.94515625 3.6328125 9.8828125 C3.81457031 10.93082031 3.81457031 10.93082031 4 12 C1.5 11 1.5 11 -1 9 C-1.5357041 6.16190806 -1.28314244 3.92580525 -1 1 C-0.67 0.67 -0.34 0.34 0 0 Z " fill="#4D934B" transform="translate(19,57)"/>
<path d="M0 0 C0.66 0.33 1.32 0.66 2 1 C1.34 2.98 0.68 4.96 0 7 C-1.65 7 -3.3 7 -5 7 C-4.67 5.68 -4.34 4.36 -4 3 C-2.68 2.67 -1.36 2.34 0 2 C0 1.34 0 0.68 0 0 Z " fill="#5F9F5C" transform="translate(120,84)"/>
<path d="M0 0 C1.65 0.33 3.3 0.66 5 1 C4.01 1.495 4.01 1.495 3 2 C3.33 2.99 3.66 3.98 4 5 C2.35 5.66 0.7 6.32 -1 7 C-0.67 4.69 -0.34 2.38 0 0 Z " fill="#3D8F37" transform="translate(81,122)"/>
<path d="M0 0 C-0.33 1.32 -0.66 2.64 -1 4 C-2.65 3.67 -4.3 3.34 -6 3 C-6 2.01 -6 1.02 -6 0 C-3.50907189 -1.24546405 -2.58919267 -0.7767578 0 0 Z " fill="#4A9446" transform="translate(142,91)"/>
<path d="M0 0 C2.9375 0.8125 2.9375 0.8125 6 2 C6.33 2.99 6.66 3.98 7 5 C5.35 5.33 3.7 5.66 2 6 C1.34 4.02 0.68 2.04 0 0 Z " fill="#40993A" transform="translate(53,119)"/>
<path d="M0 0 C2.475 0.99 2.475 0.99 5 2 C5 3.32 5 4.64 5 6 C3.35 6 1.7 6 0 6 C-0.38218767 4.34385343 -0.71395102 2.67542976 -1 1 C-0.67 0.67 -0.34 0.34 0 0 Z " fill="#4EA44B" transform="translate(70,89)"/>
<path d="M0 0 C0.66 0.33 1.32 0.66 2 1 C1.625 2.9375 1.625 2.9375 1 5 C0.01 5.495 0.01 5.495 -1 6 C-1.66 5.67 -2.32 5.34 -3 5 C-3.33 5.66 -3.66 6.32 -4 7 C-4.33 5.68 -4.66 4.36 -5 3 C-3.68 3 -2.36 3 -1 3 C-0.67 2.01 -0.34 1.02 0 0 Z " fill="#469A3E" transform="translate(225,84)"/>
<path d="M0 0 C2.5 1.4375 2.5 1.4375 3.8125 4.5625 C4.1528125 5.985625 4.1528125 5.985625 4.5 7.4375 C3.84 7.4375 3.18 7.4375 2.5 7.4375 C2.5 6.4475 2.5 5.4575 2.5 4.4375 C1.84 4.4375 1.18 4.4375 0.5 4.4375 C0.5 3.7775 0.5 3.1175 0.5 2.4375 C-0.49 2.7675 -1.48 3.0975 -2.5 3.4375 C-3.16 2.4475 -3.82 1.4575 -4.5 0.4375 C-2.5 -0.5625 -2.5 -0.5625 0 0 Z " fill="#3F703E" transform="translate(44.5,58.5625)"/>
<path d="M0 0 C0.33 0 0.66 0 1 0 C1.05380578 2.79192205 1.09357669 5.5828141 1.125 8.375 C1.14175781 9.1690625 1.15851563 9.963125 1.17578125 10.78125 C1.19335473 12.85492015 1.10335168 14.92883241 1 17 C0.34 17.66 -0.32 18.32 -1 19 C-2 16 -2 16 -1 13 C-0.77548542 10.77425665 -0.59217122 8.54418481 -0.4375 6.3125 C-0.35371094 5.13300781 -0.26992187 3.95351562 -0.18359375 2.73828125 C-0.12300781 1.83464844 -0.06242187 0.93101563 0 0 Z " fill="#3BA438" transform="translate(67,76)"/>
<path d="M0 0 C0.33 0.66 0.66 1.32 1 2 C1.66 2 2.32 2 3 2 C3 3.65 3 5.3 3 7 C1.02 7 -0.96 7 -3 7 C-3 6.34 -3 5.68 -3 5 C-2.34 4.67 -1.68 4.34 -1 4 C-0.34786708 1.97536745 -0.34786708 1.97536745 0 0 Z " fill="#64A25F" transform="translate(233,88)"/>
<path d="M0 0 C0.66 0 1.32 0 2 0 C2.33 1.65 2.66 3.3 3 5 C1 6 1 6 -2.125 5.0625 C-3.07375 4.711875 -4.0225 4.36125 -5 4 C-5 3.34 -5 2.68 -5 2 C-2.525 2.495 -2.525 2.495 0 3 C0 2.01 0 1.02 0 0 Z " fill="#409A3C" transform="translate(93,89)"/>
<path d="M0 0 C0.625 1.875 0.625 1.875 1 4 C0.34 4.66 -0.32 5.32 -1 6 C-2.32 5.34 -3.64 4.68 -5 4 C-5 3.34 -5 2.68 -5 2 C-3.35 1.34 -1.7 0.68 0 0 Z " fill="#297528" transform="translate(59,36)"/>
<path d="M0 0 C0.33 1.32 0.66 2.64 1 4 C-0.32 4 -1.64 4 -3 4 C-2.67 3.01 -2.34 2.02 -2 1 C-3.65 1.66 -5.3 2.32 -7 3 C-7 2.01 -7 1.02 -7 0 C-3.86650268 -1.04449911 -3.01031744 -0.93423645 0 0 Z " fill="#3D7038" transform="translate(251,83)"/>
<path d="M0 0 C0.99 0.99 1.98 1.98 3 3 C1 5 1 5 -2.125 5.125 C-3.548125 5.063125 -3.548125 5.063125 -5 5 C-4 2 -4 2 -1.9375 0.8125 C-1.298125 0.544375 -0.65875 0.27625 0 0 Z " fill="#346034" transform="translate(276,81)"/>
<path d="M0 0 C3.86695678 0 6.5088452 1.41909971 10 3 C8.375 4.125 8.375 4.125 6 5 C2.75 4.125 2.75 4.125 0 3 C0 2.01 0 1.02 0 0 Z " fill="#356B37" transform="translate(70,81)"/>
<path d="M0 0 C1.32 0 2.64 0 4 0 C3.6875 2.375 3.6875 2.375 3 5 C2.01 5.66 1.02 6.32 0 7 C0.33 5.35 0.66 3.7 1 2 C0.34 1.67 -0.32 1.34 -1 1 C-0.67 0.67 -0.34 0.34 0 0 Z " fill="#4C894A" transform="translate(106,97)"/>
<path d="M0 0 C0.33 0 0.66 0 1 0 C1.0825 1.11375 1.165 2.2275 1.25 3.375 C1.57873787 7.05753944 1.57873787 7.05753944 4.0625 8.4375 C4.701875 8.623125 5.34125 8.80875 6 9 C5.34 9.66 4.68 10.32 4 11 C2.68 10.34 1.36 9.68 0 9 C0 6.03 0 3.06 0 0 Z " fill="#589551" transform="translate(255,85)"/>
<path d="M0 0 C-0.33 0.66 -0.66 1.32 -1 2 C-1.66 2 -2.32 2 -3 2 C-3.33 2.66 -3.66 3.32 -4 4 C-4.99 4 -5.98 4 -7 4 C-7 3.01 -7 2.02 -7 1 C-3.375 -1.125 -3.375 -1.125 0 0 Z " fill="#56924F" transform="translate(119,85)"/>
<path d="M0 0 C2.31 0.33 4.62 0.66 7 1 C7 1.66 7 2.32 7 3 C6.01 3 5.02 3 4 3 C3.67 3.66 3.34 4.32 3 5 C3 4.34 3 3.68 3 3 C1.35 3.33 -0.3 3.66 -2 4 C-1.34 2.68 -0.68 1.36 0 0 Z " fill="#477C3D" transform="translate(193,82)"/>
<path d="M0 0 C2.475 0.495 2.475 0.495 5 1 C5.33 2.32 5.66 3.64 6 5 C4.35 5.33 2.7 5.66 1 6 C1 4.68 1 3.36 1 2 C0.67 1.34 0.34 0.68 0 0 Z " fill="#090E07" transform="translate(64,137)"/>
<path d="M0 0 C0 0.99 0 1.98 0 3 C-1.96466413 4.06775224 -3.96855359 5.06553465 -6 6 C-6.66 5.67 -7.32 5.34 -8 5 C-5.64722731 2.27573689 -3.37503669 1.1858237 0 0 Z " fill="#56984F" transform="translate(80,122)"/>
<path d="M0 0 C0.99 0 1.98 0 3 0 C2.67 1.32 2.34 2.64 2 4 C0.02 4.33 -1.96 4.66 -4 5 C-4 4.01 -4 3.02 -4 2 C-3.01 2 -2.02 2 -1 2 C-0.67 1.34 -0.34 0.68 0 0 Z " fill="#419C3B" transform="translate(95,110)"/>
<path d="M0 0 C1.98 0 3.96 0 6 0 C6.33 0.99 6.66 1.98 7 3 C3.98968256 3.93423645 3.13349732 4.04449911 0 3 C0 2.01 0 1.02 0 0 Z " fill="#3E833A" transform="translate(124,83)"/>
<path d="M0 0 C2.86453858 3.41016497 4.34703566 6.90694544 6 11 C4.68 10.34 3.36 9.68 2 9 C2 7.68 2 6.36 2 5 C1.34 5 0.68 5 0 5 C0 3.35 0 1.7 0 0 Z " fill="#528D53" transform="translate(26,79)"/>
<path d="M0 0 C1.125 1.6875 1.125 1.6875 2 4 C1.125 6.75 1.125 6.75 0 9 C-1.32 8.67 -2.64 8.34 -4 8 C-3.34 8 -2.68 8 -2 8 C-1.855625 6.865625 -1.71125 5.73125 -1.5625 4.5625 C-1 1 -1 1 0 0 Z " fill="#51954F" transform="translate(40,78)"/>
<path d="M0 0 C2.25 0.25 2.25 0.25 4 1 C4 1.66 4 2.32 4 3 C1.36 3.33 -1.28 3.66 -4 4 C-2.25 1.9375 -2.25 1.9375 0 0 Z " fill="#3FA043" transform="translate(32,17)"/>
<path d="M0 0 C2.64 0.66 5.28 1.32 8 2 C7.67 2.66 7.34 3.32 7 4 C4.69 4 2.38 4 0 4 C0 2.68 0 1.36 0 0 Z " fill="#579750" transform="translate(79,91)"/>
<path d="M0 0 C0.33 0.66 0.66 1.32 1 2 C0.67 2.66 0.34 3.32 0 4 C-2.64 3.34 -5.28 2.68 -8 2 C-4.77208445 -0.1519437 -3.71599191 -0.20086443 0 0 Z " fill="#2C702C" transform="translate(189,83)"/>
<path d="M0 0 C0.66 0.66 1.32 1.32 2 2 C-2.43076923 5.07692308 -2.43076923 5.07692308 -5.3125 4.6875 C-5.869375 4.460625 -6.42625 4.23375 -7 4 C-4.69 2.68 -2.38 1.36 0 0 Z " fill="#357E33" transform="translate(78,128)"/>
<path d="M0 0 C1.4540625 0.0309375 1.4540625 0.0309375 2.9375 0.0625 C1.9475 0.3925 0.9575 0.7225 -0.0625 1.0625 C-0.0625 1.7225 -0.0625 2.3825 -0.0625 3.0625 C0.5975 3.3925 1.2575 3.7225 1.9375 4.0625 C0.2875 4.0625 -1.3625 4.0625 -3.0625 4.0625 C-3.3925 3.0725 -3.7225 2.0825 -4.0625 1.0625 C-3.0625 0.0625 -3.0625 0.0625 0 0 Z " fill="#3A923F" transform="translate(185.0625,84.9375)"/>
<path d="M0 0 C1 4 1 4 1 4 Z " fill="#000000" transform="translate(183,70)"/>
<path d="M0 0 C3 1 3 1 3 1 Z " fill="#002611" transform="translate(187,81)"/>
<path d="" fill="#000000" transform="translate(0,0)"/>
<path d="M0 0 C2 1 2 1 2 1 Z " fill="#000000" transform="translate(75,147)"/>
<path d="M0 0 C2 1 2 1 2 1 Z " fill="#002000" transform="translate(271,81)"/>
<path d="M0 0 C2 1 2 1 2 1 Z " fill="#000E00" transform="translate(248,81)"/>
<path d="M0 0 C2 1 2 1 2 1 Z " fill="#104010" transform="translate(205,81)"/>
<path d="M0 0 C2 1 2 1 2 1 Z " fill="#133E13" transform="translate(93,81)"/>
<path d="M0 0 C2 1 2 1 2 1 Z " fill="#001515" transform="translate(90,81)"/>
<path d="" fill="#121212" transform="translate(0,0)"/>
<path d="" fill="#000000" transform="translate(0,0)"/>
<path d="" fill="#000000" transform="translate(0,0)"/>
<path d="" fill="#000000" transform="translate(0,0)"/>
<path d="" fill="#000000" transform="translate(0,0)"/>
<path d="" fill="#000000" transform="translate(0,0)"/>
<path d="" fill="#000000" transform="translate(0,0)"/>
<path d="M0 0 C2 1 2 1 2 1 Z " fill="#000000" transform="translate(183,54)"/>
<path d="" fill="#000000" transform="translate(0,0)"/>
<path d="" fill="#000000" transform="translate(0,0)"/>
<path d="M0 0 C2 1 2 1 2 1 Z " fill="#191919" transform="translate(118,51)"/>
<path d="" fill="#000000" transform="translate(0,0)"/>
<path d="M0 0 C2 1 2 1 2 1 Z " fill="#000000" transform="translate(20,5)"/>
<path d="M0 0 C2 1 2 1 2 1 Z " fill="#000000" transform="translate(102,1)"/>
<path d="" fill="#000000" transform="translate(0,0)"/>
<path d="" fill="#000000" transform="translate(0,0)"/>
<path d="" fill="#000000" transform="translate(0,0)"/>
<path d="" fill="#000000" transform="translate(0,0)"/>
<path d="" fill="#555500" transform="translate(0,0)"/>
<path d="" fill="#000000" transform="translate(0,0)"/>
<path d="" fill="#404040" transform="translate(0,0)"/>
<path d="" fill="#000000" transform="translate(0,0)"/>
<path d="" fill="#000000" transform="translate(0,0)"/>
<path d="" fill="#2A2A2A" transform="translate(0,0)"/>
<path d="" fill="#333333" transform="translate(0,0)"/>
<path d="" fill="#808080" transform="translate(0,0)"/>
<path d="" fill="#000000" transform="translate(0,0)"/>
<path d="" fill="#000000" transform="translate(0,0)"/>
<path d="" fill="#000000" transform="translate(0,0)"/>
<path d="" fill="#000000" transform="translate(0,0)"/>
<path d="" fill="#008000" transform="translate(0,0)"/>
<path d="" fill="#000000" transform="translate(0,0)"/>
<path d="" fill="#000000" transform="translate(0,0)"/>
<path d="" fill="#708F70" transform="translate(0,0)"/>
<path d="" fill="#808080" transform="translate(0,0)"/>
<path d="" fill="#000000" transform="translate(0,0)"/>
<path d="" fill="#000000" transform="translate(0,0)"/>
<path d="" fill="#808080" transform="translate(0,0)"/>
<path d="" fill="#000000" transform="translate(0,0)"/>
<path d="" fill="#008000" transform="translate(0,0)"/>
<path d="" fill="#000000" transform="translate(0,0)"/>
<path d="" fill="#404040" transform="translate(0,0)"/>
<path d="" fill="#005500" transform="translate(0,0)"/>
<path d="" fill="#000000" transform="translate(0,0)"/>
<path d="" fill="#003333" transform="translate(0,0)"/>
<path d="" fill="#000000" transform="translate(0,0)"/>
<path d="" fill="#000000" transform="translate(0,0)"/>
<path d="" fill="#002A00" transform="translate(0,0)"/>
<path d="" fill="#003300" transform="translate(0,0)"/>
<path d="" fill="#202020" transform="translate(0,0)"/>
<path d="" fill="#000000" transform="translate(0,0)"/>
<path d="" fill="#000000" transform="translate(0,0)"/>
<path d="" fill="#000000" transform="translate(0,0)"/>
<path d="" fill="#000000" transform="translate(0,0)"/>
<path d="" fill="#000000" transform="translate(0,0)"/>
<path d="" fill="#000000" transform="translate(0,0)"/>
<path d="" fill="#000000" transform="translate(0,0)"/>
<path d="" fill="#000000" transform="translate(0,0)"/>
<path d="" fill="#404040" transform="translate(0,0)"/>
<path d="" fill="#000000" transform="translate(0,0)"/>
<path d="" fill="#000000" transform="translate(0,0)"/>
<path d="" fill="#000000" transform="translate(0,0)"/>
<path d="" fill="#171717" transform="translate(0,0)"/>
<path d="" fill="#000000" transform="translate(0,0)"/>
<path d="" fill="#000000" transform="translate(0,0)"/>
<path d="" fill="#000000" transform="translate(0,0)"/>
<path d="" fill="#000000" transform="translate(0,0)"/>
<path d="" fill="#000000" transform="translate(0,0)"/>
<path d="" fill="#000000" transform="translate(0,0)"/>
<path d="" fill="#000000" transform="translate(0,0)"/>
<path d="" fill="#000000" transform="translate(0,0)"/>
<path d="" fill="#000000" transform="translate(0,0)"/>
<path d="" fill="#000000" transform="translate(0,0)"/>
<path d="" fill="#000000" transform="translate(0,0)"/>
<path d="" fill="#000000" transform="translate(0,0)"/>
<path d="" fill="#000000" transform="translate(0,0)"/>
<path d="" fill="#000000" transform="translate(0,0)"/>
<path d="" fill="#000000" transform="translate(0,0)"/>
<path d="" fill="#000000" transform="translate(0,0)"/>
<path d="" fill="#000000" transform="translate(0,0)"/>
<path d="" fill="#000000" transform="translate(0,0)"/>
<path d="" fill="#000000" transform="translate(0,0)"/>
<path d="" fill="#000000" transform="translate(0,0)"/>
<path d="" fill="#000000" transform="translate(0,0)"/>
<path d="" fill="#000000" transform="translate(0,0)"/>
<path d="" fill="#000000" transform="translate(0,0)"/>
<path d="" fill="#000000" transform="translate(0,0)"/>
<path d="" fill="#000000" transform="translate(0,0)"/>
<path d="" fill="#000000" transform="translate(0,0)"/>
<path d="" fill="#000000" transform="translate(0,0)"/>
<path d="" fill="#000000" transform="translate(0,0)"/>
<path d="" fill="#000000" transform="translate(0,0)"/>
<path d="" fill="#000000" transform="translate(0,0)"/>
<path d="" fill="#000000" transform="translate(0,0)"/>
<path d="" fill="#000000" transform="translate(0,0)"/>
<path d="" fill="#000000" transform="translate(0,0)"/>
<path d="" fill="#000000" transform="translate(0,0)"/>
<path d="" fill="#2A2A2A" transform="translate(0,0)"/>
<path d="" fill="#000000" transform="translate(0,0)"/>
<path d="" fill="#000000" transform="translate(0,0)"/>
<path d="" fill="#000000" transform="translate(0,0)"/>
<path d="" fill="#000000" transform="translate(0,0)"/>
<path d="" fill="#000000" transform="translate(0,0)"/>
<path d="" fill="#000000" transform="translate(0,0)"/>
<path d="" fill="#000000" transform="translate(0,0)"/>
<path d="" fill="#000000" transform="translate(0,0)"/>
<path d="" fill="#000000" transform="translate(0,0)"/>
<path d="" fill="#000000" transform="translate(0,0)"/>
<path d="" fill="#000000" transform="translate(0,0)"/>
<path d="" fill="#000000" transform="translate(0,0)"/>
<path d="" fill="#000000" transform="translate(0,0)"/>
<path d="" fill="#000000" transform="translate(0,0)"/>
<path d="" fill="#000000" transform="translate(0,0)"/>
<path d="" fill="#000000" transform="translate(0,0)"/>
<path d="" fill="#000000" transform="translate(0,0)"/>
<path d="" fill="#000000" transform="translate(0,0)"/>
<path d="" fill="#000000" transform="translate(0,0)"/>
</svg>
