<?xml version="1.0" encoding="utf-8"?>
<!-- Generator: Adobe Illustrator 27.0.0, SVG Export Plug-In . SVG Version: 6.00 Build 0)  -->
<svg version="1.0" id="Layer_1" xmlns="http://www.w3.org/2000/svg" xmlns:xlink="http://www.w3.org/1999/xlink" x="0px" y="0px"
	 viewBox="0 0 107.73 1572.92" style="enable-background:new 0 0 107.73 1572.92;" xml:space="preserve">
<style type="text/css">
	.st0{fill:#32A849;}
	.st1{fill:#FFFFFF;}
</style>
<g>
	<polygon class="st0" points="107.73,1515.79 0,1572.92 0,0 107.73,57.13 	"/>
	<g>
		<g>
			<g>
				<path class="st1" d="M65.76,177H43.42v-5.65h22.34V177z M69.37,171.74c0.63-0.66,1.42-0.99,2.36-0.99
					c0.94,0,1.73,0.33,2.36,0.99c0.63,0.66,0.95,1.49,0.95,2.48c0,0.99-0.32,1.82-0.95,2.48c-0.63,0.66-1.42,0.99-2.36,0.99
					c-0.94,0-1.73-0.33-2.36-0.99c-0.63-0.66-0.95-1.49-0.95-2.48C68.42,173.23,68.73,172.4,69.37,171.74z"/>
				<path class="st1" d="M63.56,201.4c-1.68,1.64-4.03,2.46-7.04,2.46H43.42v-5.65h12.34c1.77,0,3.14-0.44,4.09-1.33
					c0.95-0.89,1.43-2.1,1.43-3.63c0-1.56-0.48-2.79-1.43-3.69c-0.95-0.9-2.32-1.35-4.09-1.35H43.42v-5.64h22.34v5.64h-2.78
					c0.97,0.75,1.73,1.72,2.28,2.88c0.55,1.17,0.83,2.45,0.83,3.85C66.08,197.61,65.24,199.76,63.56,201.4z"/>
				<path class="st1" d="M61.12,219.46v-3.91h-17.7v-5.73h17.7v-2.54h4.64v2.54h1.13c2.74,0,4.76,0.78,6.05,2.34
					c1.29,1.56,1.9,3.91,1.81,7.06h-4.76c0.03-1.37-0.2-2.33-0.68-2.86c-0.48-0.54-1.36-0.81-2.62-0.81h-0.93v3.91H61.12z"/>
				<path class="st1" d="M44.49,227.25c0.95-1.72,2.3-3.07,4.05-4.05c1.75-0.98,3.76-1.47,6.05-1.47s4.3,0.5,6.05,1.51
					c1.75,1.01,3.1,2.38,4.05,4.13c0.95,1.75,1.43,3.7,1.43,5.85s-0.48,4.1-1.43,5.85c-0.95,1.75-2.31,3.13-4.05,4.13
					c-1.75,1.01-3.76,1.51-6.05,1.51s-4.3-0.52-6.05-1.55c-1.75-1.03-3.1-2.43-4.05-4.19c-0.95-1.76-1.43-3.73-1.43-5.91
					C43.06,230.9,43.53,228.97,44.49,227.25z M48.72,235.94c0.5,0.9,1.24,1.62,2.24,2.16c0.99,0.54,2.2,0.81,3.63,0.81
					c2.12,0,3.76-0.56,4.9-1.67c1.14-1.12,1.71-2.48,1.71-4.09s-0.57-2.96-1.71-4.05c-1.14-1.09-2.78-1.63-4.9-1.63
					s-3.76,0.53-4.9,1.59c-1.14,1.06-1.71,2.4-1.71,4.01C47.98,234.07,48.22,235.03,48.72,235.94z"/>
				<path class="st1" d="M68.14,278.46c-1.16,2.28-2.78,4.04-4.88,5.26c-2.1,1.22-4.52,1.84-7.26,1.84c-2.21,0-4.29-0.38-6.25-1.15
					c-1.96-0.77-3.55-1.87-4.76-3.33c-1.21-1.45-1.81-3.17-1.81-5.16c0-1.4,0.29-2.53,0.87-3.39c0.58-0.86,1.4-1.41,2.48-1.65
					c-1.05-0.78-1.88-1.79-2.48-3.03s-0.91-2.54-0.91-3.91c0-2.04,0.61-3.64,1.83-4.8c1.22-1.16,2.9-1.73,5.02-1.73
					c2.02,0,3.9,0.42,5.65,1.25c1.75,0.83,3.15,1.99,4.21,3.47s1.59,3.15,1.59,5c0,2.31-0.81,3.9-2.42,4.76l2.1,0.36v4.72
					l-10.89-1.89c-0.51-0.08-0.98-0.12-1.41-0.12c-0.65,0-1.13,0.14-1.45,0.4c-0.32,0.27-0.48,0.72-0.48,1.37
					c0,0.97,0.46,1.78,1.37,2.44c0.91,0.66,2.06,1.16,3.43,1.49c1.37,0.34,2.74,0.51,4.11,0.51c3.25,0,5.77-1,7.56-2.98
					c1.79-1.99,2.68-4.8,2.68-8.43c0-3.09-0.75-5.89-2.24-8.39c-1.49-2.5-3.52-4.46-6.09-5.87c-2.57-1.41-5.42-2.12-8.57-2.12
					c-3.33,0-5.9,0.99-7.7,2.96c-1.8,1.98-2.7,4.78-2.7,8.41c0,2.61,0.47,4.9,1.41,6.9l-3.71,0.81c-1.08-2.56-1.61-5.39-1.61-8.51
					c0-3.01,0.57-5.64,1.71-7.9c1.14-2.26,2.76-4.01,4.86-5.24c2.1-1.24,4.53-1.86,7.3-1.86c3.95,0,7.54,0.92,10.77,2.76
					c3.23,1.84,5.77,4.39,7.62,7.66s2.78,6.93,2.78,10.99C69.87,273.47,69.29,276.17,68.14,278.46z M48.18,268.38
					c0.56,0.81,1.32,1.44,2.26,1.91c0.94,0.47,1.95,0.71,3.02,0.71c1.13,0,2.04-0.31,2.74-0.93c0.7-0.62,1.05-1.48,1.05-2.58
					c0-0.99-0.3-1.87-0.91-2.62c-0.6-0.75-1.39-1.34-2.36-1.75c-0.97-0.42-1.99-0.63-3.06-0.63c-1.1,0-1.98,0.27-2.62,0.81
					c-0.65,0.54-0.97,1.35-0.97,2.42C47.33,266.68,47.61,267.57,48.18,268.38z"/>
				<path class="st1" d="M60.68,291.14c1.75,0.9,3.09,2.12,4.03,3.67c0.94,1.55,1.41,3.27,1.41,5.18c0,1.66-0.34,3.12-1.01,4.37
					c-0.67,1.25-1.52,2.25-2.54,3.01h3.19v5.69H43.42v-5.69h3.27c-1.05-0.73-1.92-1.73-2.6-3.01c-0.68-1.28-1.03-2.75-1.03-4.41
					c0-1.88,0.48-3.59,1.45-5.14c0.97-1.55,2.33-2.77,4.09-3.67c1.76-0.9,3.78-1.35,6.07-1.35
					C56.93,289.79,58.93,290.24,60.68,291.14z M58.12,306.56c0.98-0.54,1.73-1.26,2.26-2.18c0.53-0.91,0.79-1.9,0.79-2.94
					s-0.26-2.01-0.77-2.9c-0.51-0.89-1.26-1.61-2.24-2.16c-0.98-0.55-2.14-0.83-3.49-0.83c-1.34,0-2.52,0.28-3.53,0.83
					c-1.01,0.55-1.78,1.28-2.32,2.18c-0.54,0.9-0.81,1.86-0.81,2.88c0,1.05,0.26,2.03,0.79,2.94c0.53,0.91,1.28,1.64,2.26,2.18
					c0.98,0.54,2.16,0.81,3.53,0.81C55.96,307.37,57.14,307.1,58.12,306.56z"/>
				<path class="st1" d="M60.66,318.54c1.73,0.94,3.08,2.24,4.03,3.91c0.95,1.67,1.43,3.57,1.43,5.73c0,2.77-0.69,5.06-2.08,6.87
					c-1.38,1.82-3.33,3.03-5.83,3.65v-6.09c0.97-0.32,1.73-0.87,2.28-1.63c0.55-0.77,0.83-1.72,0.83-2.84
					c0-1.61-0.59-2.89-1.75-3.83c-1.17-0.94-2.83-1.41-4.98-1.41c-2.12,0-3.77,0.47-4.94,1.41c-1.17,0.94-1.75,2.22-1.75,3.83
					c0,2.28,1.02,3.78,3.06,4.48v6.09c-2.42-0.62-4.34-1.84-5.77-3.67c-1.43-1.83-2.14-4.11-2.14-6.85c0-2.15,0.48-4.06,1.43-5.73
					c0.95-1.67,2.3-2.97,4.03-3.91s3.76-1.41,6.07-1.41S58.92,317.6,60.66,318.54z"/>
				<path class="st1" d="M60.66,342.81c1.73,0.94,3.08,2.24,4.03,3.91c0.95,1.67,1.43,3.57,1.43,5.73c0,2.77-0.69,5.06-2.08,6.87
					c-1.38,1.82-3.33,3.03-5.83,3.65v-6.09c0.97-0.32,1.73-0.87,2.28-1.63c0.55-0.77,0.83-1.72,0.83-2.84
					c0-1.61-0.59-2.89-1.75-3.83c-1.17-0.94-2.83-1.41-4.98-1.41c-2.12,0-3.77,0.47-4.94,1.41c-1.17,0.94-1.75,2.22-1.75,3.83
					c0,2.28,1.02,3.78,3.06,4.48v6.09c-2.42-0.62-4.34-1.84-5.77-3.67c-1.43-1.83-2.14-4.11-2.14-6.85c0-2.15,0.48-4.06,1.43-5.73
					c0.95-1.67,2.3-2.97,4.03-3.91s3.76-1.41,6.07-1.41S58.92,341.87,60.66,342.81z"/>
				<path class="st1" d="M65.76,388.21H43.42v-5.69h2.82c-0.97-0.73-1.73-1.67-2.28-2.84c-0.55-1.17-0.83-2.44-0.83-3.81
					c0-1.75,0.37-3.29,1.11-4.64c0.74-1.35,1.83-2.4,3.27-3.17c1.44-0.77,3.15-1.15,5.14-1.15h13.11v5.64h-12.3
					c-1.77,0-3.14,0.44-4.09,1.33c-0.95,0.89-1.43,2.1-1.43,3.63c0,1.56,0.48,2.78,1.43,3.67c0.95,0.89,2.32,1.33,4.09,1.33h12.3
					V388.21z"/>
				<path class="st1" d="M65.07,402.27c0.67,1.17,1.01,2.5,1.01,4.01h-5.93v-1.49c0-1.77-0.42-3.11-1.25-4.01
					c-0.83-0.9-2.28-1.35-4.36-1.35H43.42v-5.64h22.34v5.64h-3.47C63.47,400.15,64.4,401.1,65.07,402.27z"/>
				<path class="st1" d="M60.68,409.97c1.75,0.9,3.09,2.12,4.03,3.67c0.94,1.55,1.41,3.27,1.41,5.18c0,1.66-0.34,3.12-1.01,4.37
					c-0.67,1.25-1.52,2.25-2.54,3.01h3.19v5.69H43.42v-5.69h3.27c-1.05-0.73-1.92-1.73-2.6-3.01c-0.68-1.28-1.03-2.75-1.03-4.41
					c0-1.88,0.48-3.59,1.45-5.14c0.97-1.55,2.33-2.77,4.09-3.67c1.76-0.9,3.78-1.35,6.07-1.35
					C56.93,408.62,58.93,409.07,60.68,409.97z M58.12,425.39c0.98-0.54,1.73-1.26,2.26-2.18c0.53-0.91,0.79-1.9,0.79-2.94
					s-0.26-2.01-0.77-2.9c-0.51-0.89-1.26-1.61-2.24-2.16c-0.98-0.55-2.14-0.83-3.49-0.83c-1.34,0-2.52,0.28-3.53,0.83
					c-1.01,0.55-1.78,1.28-2.32,2.18c-0.54,0.9-0.81,1.86-0.81,2.88c0,1.05,0.26,2.03,0.79,2.94c0.53,0.91,1.28,1.64,2.26,2.18
					c0.98,0.54,2.16,0.81,3.53,0.81C55.96,426.2,57.14,425.93,58.12,425.39z"/>
				<path class="st1" d="M61.12,443.98H50.31c-0.75,0-1.3,0.18-1.63,0.54c-0.34,0.36-0.5,0.97-0.5,1.84v2.62h-4.76v-3.55
					c0-4.76,2.31-7.14,6.94-7.14h10.77v-2.66h4.64v2.66h5.52v5.69h-5.52v5h-4.64V443.98z"/>
				<path class="st1" d="M52.89,473.66v-16.33c-1.61,0.13-2.88,0.7-3.79,1.69c-0.91,0.99-1.37,2.22-1.37,3.67
					c0,2.1,0.9,3.59,2.7,4.48v6.09c-2.15-0.65-3.92-1.88-5.3-3.71c-1.38-1.83-2.08-4.07-2.08-6.73c0-2.15,0.48-4.08,1.43-5.79
					c0.95-1.71,2.3-3.04,4.05-3.99c1.75-0.96,3.76-1.43,6.05-1.43c2.31,0,4.34,0.47,6.09,1.41c1.75,0.94,3.09,2.26,4.03,3.95
					c0.94,1.69,1.41,3.64,1.41,5.85c0,2.12-0.46,4.03-1.37,5.71c-0.91,1.68-2.21,2.98-3.89,3.91c-1.68,0.93-3.61,1.39-5.79,1.39
					C54.27,473.82,53.54,473.76,52.89,473.66z M56.68,467.97c1.45-0.03,2.61-0.55,3.49-1.57c0.87-1.02,1.31-2.27,1.31-3.75
					c0-1.4-0.42-2.57-1.27-3.53c-0.85-0.95-2.02-1.54-3.53-1.75V467.97z"/>
				<path class="st1" d="M65.09,486.58c0.69,1.28,1.03,2.74,1.03,4.38c0,1.91-0.47,3.64-1.41,5.18c-0.94,1.54-2.28,2.77-4.01,3.67
					c-1.73,0.9-3.74,1.35-6.03,1.35s-4.31-0.45-6.07-1.35c-1.76-0.9-3.13-2.12-4.09-3.67c-0.97-1.55-1.45-3.27-1.45-5.18
					c0-1.64,0.34-3.08,1.01-4.33s1.52-2.26,2.54-3.05H32.77v-5.64h32.98v5.64h-3.23C63.55,484.3,64.41,485.3,65.09,486.58z
					 M58.16,494.56c0.98-0.55,1.73-1.28,2.24-2.18c0.51-0.9,0.77-1.87,0.77-2.92c0-1.02-0.26-1.98-0.79-2.88
					c-0.52-0.9-1.28-1.63-2.28-2.18c-0.99-0.55-2.16-0.83-3.51-0.83s-2.51,0.28-3.51,0.83c-0.99,0.55-1.75,1.28-2.28,2.18
					c-0.52,0.9-0.79,1.86-0.79,2.88c0,1.05,0.27,2.02,0.81,2.92c0.54,0.9,1.3,1.63,2.3,2.18c0.99,0.55,2.18,0.83,3.55,0.83
					C56.01,495.39,57.18,495.12,58.16,494.56z"/>
				<path class="st1" d="M52.89,525.88v-16.33c-1.61,0.13-2.88,0.7-3.79,1.69c-0.91,0.99-1.37,2.22-1.37,3.67
					c0,2.1,0.9,3.59,2.7,4.48v6.09c-2.15-0.65-3.92-1.88-5.3-3.71c-1.38-1.83-2.08-4.07-2.08-6.73c0-2.15,0.48-4.08,1.43-5.79
					c0.95-1.71,2.3-3.04,4.05-3.99c1.75-0.96,3.76-1.43,6.05-1.43c2.31,0,4.34,0.47,6.09,1.41c1.75,0.94,3.09,2.26,4.03,3.95
					c0.94,1.69,1.41,3.64,1.41,5.85c0,2.12-0.46,4.03-1.37,5.71c-0.91,1.68-2.21,2.98-3.89,3.91c-1.68,0.93-3.61,1.39-5.79,1.39
					C54.27,526.04,53.54,525.98,52.89,525.88z M56.68,520.19c1.45-0.03,2.61-0.55,3.49-1.57c0.87-1.02,1.31-2.27,1.31-3.75
					c0-1.4-0.42-2.57-1.27-3.53c-0.85-0.95-2.02-1.54-3.53-1.75V520.19z"/>
				<path class="st1" d="M44.04,533.78c0.66-1.45,1.55-2.6,2.68-3.45s2.38-1.31,3.75-1.39v5.69c-0.86,0.11-1.57,0.53-2.14,1.27
					c-0.56,0.74-0.85,1.66-0.85,2.76c0,1.07,0.22,1.91,0.65,2.52c0.43,0.6,0.98,0.91,1.65,0.91c0.73,0,1.27-0.37,1.63-1.11
					c0.36-0.74,0.76-1.92,1.19-3.53c0.4-1.67,0.82-3.03,1.25-4.09c0.43-1.06,1.09-1.98,1.98-2.74c0.89-0.77,2.08-1.15,3.59-1.15
					c1.24,0,2.36,0.36,3.39,1.07c1.02,0.71,1.83,1.73,2.42,3.06c0.59,1.33,0.89,2.9,0.89,4.7c0,2.66-0.67,4.78-2,6.37
					c-1.33,1.59-3.13,2.46-5.38,2.62v-5.4c0.89-0.08,1.59-0.45,2.12-1.11c0.52-0.66,0.79-1.54,0.79-2.64c0-1.02-0.19-1.81-0.57-2.36
					c-0.38-0.55-0.9-0.83-1.57-0.83c-0.75,0-1.32,0.38-1.71,1.13c-0.39,0.75-0.79,1.92-1.19,3.51c-0.4,1.61-0.82,2.94-1.25,3.99
					c-0.43,1.05-1.1,1.96-2,2.72c-0.9,0.77-2.09,1.16-3.57,1.19c-1.29,0-2.45-0.36-3.47-1.07c-1.02-0.71-1.82-1.73-2.4-3.06
					c-0.58-1.33-0.87-2.88-0.87-4.66C43.06,536.87,43.39,535.23,44.04,533.78z"/>
				<path class="st1" d="M61.12,558.7H50.31c-0.75,0-1.3,0.18-1.63,0.54c-0.34,0.36-0.5,0.97-0.5,1.84v2.62h-4.76v-3.55
					c0-4.76,2.31-7.14,6.94-7.14h10.77v-2.66h4.64v2.66h5.52v5.69h-5.52v5h-4.64V558.7z"/>
				<path class="st1" d="M60.66,567.73c1.73,0.94,3.08,2.24,4.03,3.91c0.95,1.67,1.43,3.57,1.43,5.73c0,2.77-0.69,5.06-2.08,6.87
					c-1.38,1.82-3.33,3.03-5.83,3.65v-6.09c0.97-0.32,1.73-0.87,2.28-1.63c0.55-0.77,0.83-1.72,0.83-2.84
					c0-1.61-0.59-2.89-1.75-3.83c-1.17-0.94-2.83-1.41-4.98-1.41c-2.12,0-3.77,0.47-4.94,1.41c-1.17,0.94-1.75,2.22-1.75,3.83
					c0,2.28,1.02,3.78,3.06,4.48v6.09c-2.42-0.62-4.34-1.84-5.77-3.67c-1.43-1.83-2.14-4.11-2.14-6.85c0-2.15,0.48-4.06,1.43-5.73
					c0.95-1.67,2.3-2.97,4.03-3.91s3.76-1.41,6.07-1.41S58.92,566.79,60.66,567.73z"/>
				<path class="st1" d="M44.49,596.16c0.95-1.72,2.3-3.07,4.05-4.05c1.75-0.98,3.76-1.47,6.05-1.47s4.3,0.5,6.05,1.51
					c1.75,1.01,3.1,2.38,4.05,4.13c0.95,1.75,1.43,3.7,1.43,5.85s-0.48,4.1-1.43,5.85c-0.95,1.75-2.31,3.13-4.05,4.13
					c-1.75,1.01-3.76,1.51-6.05,1.51s-4.3-0.52-6.05-1.55c-1.75-1.03-3.1-2.43-4.05-4.19c-0.95-1.76-1.43-3.73-1.43-5.91
					C43.06,599.81,43.53,597.88,44.49,596.16z M48.72,604.85c0.5,0.9,1.24,1.62,2.24,2.16c0.99,0.54,2.2,0.81,3.63,0.81
					c2.12,0,3.76-0.56,4.9-1.67c1.14-1.12,1.71-2.48,1.71-4.09s-0.57-2.96-1.71-4.05c-1.14-1.09-2.78-1.63-4.9-1.63
					s-3.76,0.53-4.9,1.59c-1.14,1.06-1.71,2.4-1.71,4.01C47.98,602.99,48.22,603.95,48.72,604.85z"/>
				<path class="st1" d="M63.56,636.6c-1.68,1.64-4.03,2.46-7.04,2.46H43.42v-5.65h12.34c1.77,0,3.14-0.44,4.09-1.33
					c0.95-0.89,1.43-2.1,1.43-3.63c0-1.56-0.48-2.79-1.43-3.69c-0.95-0.9-2.32-1.35-4.09-1.35H43.42v-5.64h22.34v5.64h-2.78
					c0.97,0.75,1.73,1.72,2.28,2.88c0.55,1.17,0.83,2.45,0.83,3.85C66.08,632.81,65.24,634.96,63.56,636.6z"/>
				<path class="st1" d="M61.12,651H50.31c-0.75,0-1.3,0.18-1.63,0.54c-0.34,0.36-0.5,0.97-0.5,1.84V656h-4.76v-3.55
					c0-4.76,2.31-7.14,6.94-7.14h10.77v-2.66h4.64v2.66h5.52V651h-5.52v5h-4.64V651z"/>
				<path class="st1" d="M65.07,668.56c0.67,1.17,1.01,2.5,1.01,4.01h-5.93v-1.49c0-1.77-0.42-3.11-1.25-4.01
					c-0.83-0.9-2.28-1.35-4.36-1.35H43.42v-5.64h22.34v5.64h-3.47C63.47,666.44,64.4,667.39,65.07,668.56z"/>
				<path class="st1" d="M44.49,680.47c0.95-1.72,2.3-3.07,4.05-4.05c1.75-0.98,3.76-1.47,6.05-1.47s4.3,0.5,6.05,1.51
					c1.75,1.01,3.1,2.38,4.05,4.13c0.95,1.75,1.43,3.7,1.43,5.85s-0.48,4.1-1.43,5.85c-0.95,1.75-2.31,3.13-4.05,4.13
					c-1.75,1.01-3.76,1.51-6.05,1.51s-4.3-0.52-6.05-1.55c-1.75-1.03-3.1-2.43-4.05-4.19c-0.95-1.76-1.43-3.73-1.43-5.91
					C43.06,684.13,43.53,682.19,44.49,680.47z M48.72,689.16c0.5,0.9,1.24,1.62,2.24,2.16c0.99,0.54,2.2,0.81,3.63,0.81
					c2.12,0,3.76-0.56,4.9-1.67c1.14-1.12,1.71-2.48,1.71-4.09c0-1.61-0.57-2.96-1.71-4.05c-1.14-1.09-2.78-1.63-4.9-1.63
					s-3.76,0.53-4.9,1.59c-1.14,1.06-1.71,2.4-1.71,4.01C47.98,687.3,48.22,688.26,48.72,689.16z"/>
				<path class="st1" d="M73.26,707.73H43.42v-5.64h29.84V707.73z"/>
				<path class="st1" d="M44.08,713.28c0.63-0.66,1.42-0.99,2.36-0.99c0.94,0,1.73,0.33,2.36,0.99c0.63,0.66,0.95,1.5,0.95,2.52
					c0,0.99-0.32,1.81-0.95,2.46c-0.63,0.65-1.42,0.97-2.36,0.97c-0.94,0-1.73-0.32-2.36-0.97c-0.63-0.65-0.95-1.47-0.95-2.46
					C43.14,714.77,43.45,713.93,44.08,713.28z"/>
				<path class="st1" d="M60.68,723.68c1.75,0.9,3.09,2.12,4.03,3.67c0.94,1.55,1.41,3.27,1.41,5.18c0,1.66-0.34,3.12-1.01,4.37
					c-0.67,1.25-1.52,2.25-2.54,3.01h3.19v5.69H43.42v-5.69h3.27c-1.05-0.73-1.92-1.73-2.6-3.01c-0.68-1.28-1.03-2.75-1.03-4.41
					c0-1.88,0.48-3.59,1.45-5.14c0.97-1.55,2.33-2.77,4.09-3.67c1.76-0.9,3.78-1.35,6.07-1.35
					C56.93,722.33,58.93,722.78,60.68,723.68z M58.12,739.1c0.98-0.54,1.73-1.26,2.26-2.18c0.53-0.91,0.79-1.9,0.79-2.94
					c0-1.05-0.26-2.01-0.77-2.9c-0.51-0.89-1.26-1.61-2.24-2.16c-0.98-0.55-2.14-0.83-3.49-0.83c-1.34,0-2.52,0.28-3.53,0.83
					c-1.01,0.55-1.78,1.28-2.32,2.18c-0.54,0.9-0.81,1.86-0.81,2.88c0,1.05,0.26,2.03,0.79,2.94c0.53,0.91,1.28,1.64,2.26,2.18
					c0.98,0.54,2.16,0.81,3.53,0.81C55.96,739.91,57.14,739.64,58.12,739.1z"/>
				<path class="st1" d="M52.89,771.72v-16.33c-1.61,0.13-2.88,0.7-3.79,1.69c-0.91,0.99-1.37,2.22-1.37,3.67
					c0,2.1,0.9,3.59,2.7,4.48v6.09c-2.15-0.65-3.92-1.88-5.3-3.71c-1.38-1.83-2.08-4.07-2.08-6.73c0-2.15,0.48-4.08,1.43-5.79
					c0.95-1.71,2.3-3.04,4.05-3.99c1.75-0.96,3.76-1.43,6.05-1.43c2.31,0,4.34,0.47,6.09,1.41c1.75,0.94,3.09,2.26,4.03,3.95
					c0.94,1.69,1.41,3.64,1.41,5.85c0,2.12-0.46,4.03-1.37,5.71c-0.91,1.68-2.21,2.98-3.89,3.91c-1.68,0.93-3.61,1.39-5.79,1.39
					C54.27,771.88,53.54,771.83,52.89,771.72z M56.68,766.04c1.45-0.03,2.61-0.55,3.49-1.57c0.87-1.02,1.31-2.27,1.31-3.75
					c0-1.4-0.42-2.57-1.27-3.53c-0.85-0.95-2.02-1.54-3.53-1.75V766.04z"/>
			</g>
			<path class="st1" d="M81.12,104.66h-54.5v54.5h54.5V104.66z M65.55,148.13c-0.45-0.48-0.83-0.9-1.22-1.31
				c-4.53-4.91-9.07-9.82-13.6-14.73c-0.58-0.62-0.57-0.99,0.03-1.6c3.24-3.26,6.48-6.51,9.73-9.77c1.58-1.59,3.17-3.19,4.75-4.78
				c0.08-0.08,0.16-0.15,0.3-0.28C65.55,126.5,65.55,137.26,65.55,148.13z M43.53,114.49c0.03-0.04,0.06-0.08,0.09-0.13
				c6.85,0,13.69,0,20.61,0c-0.09,0.12-0.14,0.2-0.2,0.26c-3.16,3.18-6.32,6.36-9.47,9.54c-0.18,0.18-0.28,0.18-0.47,0.01
				c-3.43-3.18-6.86-6.35-10.29-9.53C43.72,114.57,43.61,114.54,43.53,114.49z M42.19,115.58c3.67,3.39,7.26,6.71,10.88,10.07
				c-0.41,0.42-0.79,0.81-1.17,1.2c-0.84,0.84-1.67,1.68-2.51,2.52c-1.13,1.14-1.15,2.66-0.04,3.85c1.18,1.27,2.36,2.54,3.53,3.82
				c0.51,0.56,0.54,0.4-0.04,0.96c-2.82,2.72-5.66,5.44-8.48,8.15c-0.62,0.6-1.25,1.2-1.88,1.8c-0.08,0.07-0.16,0.14-0.28,0.24
				C42.19,137.31,42.19,126.5,42.19,115.58z M43.51,149.45c0.11-0.12,0.17-0.19,0.24-0.26c3.51-3.37,7.02-6.75,10.52-10.13
				c0.21-0.21,0.33-0.19,0.52,0.02c2.43,2.64,4.87,5.28,7.3,7.92c0.69,0.75,1.38,1.49,2.07,2.24c0.04,0.05,0.08,0.11,0.16,0.22
				C57.35,149.45,50.46,149.45,43.51,149.45z"/>
		</g>
		<g>
			<g>
				<path class="st1" d="M64.67,906.01l-22.34-6.53v-6.09l15.6-4.07l-15.6-4.07v-6.13l22.34-6.57v5.73l-17.02,3.95l17.02,4.27v5.97
					l-16.98,4.2l16.98,3.95V906.01z"/>
				<path class="st1" d="M64.67,940.04l-22.34-6.53v-6.09l15.6-4.07l-15.6-4.07v-6.13l22.34-6.57v5.73l-17.02,3.95l17.02,4.27v5.97
					l-16.98,4.19l16.98,3.95V940.04z"/>
				<path class="st1" d="M64.67,974.08l-22.34-6.53v-6.09l15.6-4.07l-15.6-4.07v-6.13l22.34-6.57v5.73l-17.02,3.95l17.02,4.27v5.97
					l-16.98,4.19l16.98,3.95V974.08z"/>
				<path class="st1" d="M43,977.12c0.63-0.66,1.42-0.99,2.36-0.99c0.94,0,1.73,0.33,2.36,0.99c0.63,0.66,0.95,1.5,0.95,2.52
					c0,0.99-0.32,1.81-0.95,2.46c-0.63,0.65-1.42,0.97-2.36,0.97c-0.94,0-1.73-0.32-2.36-0.97c-0.63-0.65-0.95-1.47-0.95-2.46
					C42.05,978.61,42.37,977.78,43,977.12z"/>
				<path class="st1" d="M59.59,987.52c1.75,0.9,3.09,2.12,4.03,3.67c0.94,1.55,1.41,3.27,1.41,5.18c0,1.66-0.34,3.12-1.01,4.37
					c-0.67,1.25-1.52,2.25-2.54,3.01h3.19v5.69H42.33v-5.69h3.27c-1.05-0.73-1.92-1.73-2.6-3.01c-0.68-1.28-1.03-2.75-1.03-4.41
					c0-1.88,0.48-3.59,1.45-5.14c0.97-1.55,2.33-2.77,4.09-3.67c1.76-0.9,3.78-1.35,6.07-1.35
					C55.84,986.17,57.84,986.62,59.59,987.52z M57.03,1002.95c0.98-0.54,1.73-1.26,2.26-2.18c0.53-0.91,0.79-1.9,0.79-2.94
					c0-1.05-0.26-2.01-0.77-2.9c-0.51-0.89-1.26-1.61-2.24-2.16c-0.98-0.55-2.14-0.83-3.49-0.83c-1.34,0-2.52,0.28-3.53,0.83
					c-1.01,0.55-1.78,1.28-2.32,2.18c-0.54,0.9-0.81,1.86-0.81,2.88c0,1.05,0.26,2.03,0.79,2.94c0.53,0.91,1.28,1.64,2.26,2.18
					c0.98,0.54,2.16,0.81,3.53,0.81C54.88,1003.75,56.05,1003.48,57.03,1002.95z"/>
				<path class="st1" d="M59.57,1014.92c1.73,0.94,3.08,2.24,4.03,3.91c0.95,1.67,1.43,3.57,1.43,5.73c0,2.77-0.69,5.06-2.08,6.87
					c-1.38,1.82-3.33,3.03-5.83,3.65v-6.09c0.97-0.32,1.73-0.87,2.28-1.63c0.55-0.77,0.83-1.72,0.83-2.84
					c0-1.61-0.59-2.89-1.75-3.83c-1.17-0.94-2.83-1.41-4.98-1.41c-2.12,0-3.77,0.47-4.94,1.41c-1.17,0.94-1.75,2.22-1.75,3.83
					c0,2.28,1.02,3.78,3.06,4.48v6.09c-2.42-0.62-4.34-1.84-5.77-3.67c-1.43-1.83-2.14-4.11-2.14-6.85c0-2.15,0.48-4.06,1.43-5.73
					c0.95-1.67,2.3-2.97,4.03-3.91s3.76-1.41,6.07-1.41S57.84,1013.98,59.57,1014.92z"/>
				<path class="st1" d="M59.57,1039.19c1.73,0.94,3.08,2.24,4.03,3.91c0.95,1.67,1.43,3.57,1.43,5.73c0,2.77-0.69,5.06-2.08,6.87
					c-1.38,1.82-3.33,3.03-5.83,3.65v-6.09c0.97-0.32,1.73-0.87,2.28-1.63c0.55-0.77,0.83-1.72,0.83-2.84
					c0-1.61-0.59-2.89-1.75-3.83s-2.83-1.41-4.98-1.41c-2.12,0-3.77,0.47-4.94,1.41c-1.17,0.94-1.75,2.22-1.75,3.83
					c0,2.28,1.02,3.78,3.06,4.48v6.09c-2.42-0.62-4.34-1.84-5.77-3.67c-1.43-1.83-2.14-4.11-2.14-6.85c0-2.15,0.48-4.06,1.43-5.73
					c0.95-1.67,2.3-2.97,4.03-3.91s3.76-1.41,6.07-1.41S57.84,1038.25,59.57,1039.19z"/>
				<path class="st1" d="M64.67,1084.6H42.33v-5.69h2.82c-0.97-0.73-1.73-1.67-2.28-2.84c-0.55-1.17-0.83-2.44-0.83-3.81
					c0-1.75,0.37-3.29,1.11-4.64c0.74-1.35,1.83-2.4,3.27-3.17c1.44-0.77,3.15-1.15,5.14-1.15h13.11v5.64h-12.3
					c-1.77,0-3.14,0.44-4.09,1.33c-0.95,0.89-1.43,2.1-1.43,3.63c0,1.56,0.48,2.78,1.43,3.67c0.95,0.89,2.32,1.33,4.09,1.33h12.3
					V1084.6z"/>
				<path class="st1" d="M63.99,1098.65c0.67,1.17,1.01,2.5,1.01,4.01h-5.93v-1.49c0-1.77-0.42-3.11-1.25-4.01
					c-0.83-0.9-2.28-1.35-4.36-1.35H42.33v-5.64h22.34v5.64h-3.47C62.39,1096.53,63.32,1097.48,63.99,1098.65z"/>
				<path class="st1" d="M59.59,1106.35c1.75,0.9,3.09,2.12,4.03,3.67s1.41,3.27,1.41,5.18c0,1.66-0.34,3.12-1.01,4.37
					c-0.67,1.25-1.52,2.25-2.54,3.01h3.19v5.69H42.33v-5.69h3.27c-1.05-0.73-1.92-1.73-2.6-3.01c-0.68-1.28-1.03-2.75-1.03-4.41
					c0-1.88,0.48-3.59,1.45-5.14c0.97-1.55,2.33-2.77,4.09-3.67c1.76-0.9,3.78-1.35,6.07-1.35
					C55.84,1105,57.84,1105.45,59.59,1106.35z M57.03,1121.78c0.98-0.54,1.73-1.26,2.26-2.18c0.53-0.91,0.79-1.9,0.79-2.94
					s-0.26-2.01-0.77-2.9c-0.51-0.89-1.26-1.61-2.24-2.16c-0.98-0.55-2.14-0.83-3.49-0.83c-1.34,0-2.52,0.28-3.53,0.83
					c-1.01,0.55-1.78,1.28-2.32,2.18c-0.54,0.9-0.81,1.86-0.81,2.88c0,1.05,0.26,2.03,0.79,2.94c0.53,0.91,1.28,1.64,2.26,2.18
					c0.98,0.54,2.16,0.81,3.53,0.81C54.88,1122.58,56.05,1122.31,57.03,1121.78z"/>
				<path class="st1" d="M60.04,1140.36H49.23c-0.75,0-1.3,0.18-1.63,0.54c-0.34,0.36-0.5,0.97-0.5,1.84v2.62h-4.76v-3.55
					c0-4.76,2.31-7.14,6.94-7.14h10.77v-2.66h4.64v2.66h5.52v5.69h-5.52v5h-4.64V1140.36z"/>
				<path class="st1" d="M51.81,1170.04v-16.33c-1.61,0.13-2.88,0.7-3.79,1.69c-0.91,0.99-1.37,2.22-1.37,3.67
					c0,2.1,0.9,3.59,2.7,4.48v6.09c-2.15-0.65-3.92-1.88-5.3-3.71c-1.38-1.83-2.08-4.07-2.08-6.73c0-2.15,0.48-4.08,1.43-5.79
					c0.95-1.71,2.3-3.04,4.05-3.99c1.75-0.96,3.76-1.43,6.05-1.43c2.31,0,4.34,0.47,6.09,1.41c1.75,0.94,3.09,2.26,4.03,3.95
					s1.41,3.64,1.41,5.85c0,2.12-0.46,4.03-1.37,5.71c-0.91,1.68-2.21,2.98-3.89,3.91c-1.68,0.93-3.61,1.39-5.79,1.39
					C53.18,1170.2,52.46,1170.15,51.81,1170.04z M55.6,1164.36c1.45-0.03,2.61-0.55,3.49-1.57c0.87-1.02,1.31-2.27,1.31-3.75
					c0-1.4-0.42-2.57-1.27-3.53c-0.85-0.95-2.02-1.54-3.53-1.75V1164.36z"/>
				<path class="st1" d="M64.01,1182.96c0.69,1.28,1.03,2.74,1.03,4.38c0,1.91-0.47,3.64-1.41,5.18c-0.94,1.54-2.28,2.77-4.01,3.67
					c-1.73,0.9-3.74,1.35-6.03,1.35c-2.28,0-4.31-0.45-6.07-1.35c-1.76-0.9-3.13-2.12-4.09-3.67c-0.97-1.55-1.45-3.27-1.45-5.18
					c0-1.64,0.34-3.08,1.01-4.33s1.52-2.26,2.54-3.05H31.69v-5.64h32.98v5.64h-3.23C62.47,1180.69,63.32,1181.69,64.01,1182.96z
					 M57.07,1190.95c0.98-0.55,1.73-1.28,2.24-2.18c0.51-0.9,0.77-1.87,0.77-2.92c0-1.02-0.26-1.98-0.79-2.88
					c-0.52-0.9-1.28-1.63-2.28-2.18c-0.99-0.55-2.16-0.83-3.51-0.83s-2.51,0.28-3.51,0.83s-1.75,1.28-2.28,2.18
					c-0.52,0.9-0.79,1.86-0.79,2.88c0,1.05,0.27,2.02,0.81,2.92c0.54,0.9,1.3,1.63,2.3,2.18c0.99,0.55,2.18,0.83,3.55,0.83
					C54.93,1191.78,56.09,1191.5,57.07,1190.95z"/>
				<path class="st1" d="M51.81,1222.26v-16.33c-1.61,0.13-2.88,0.7-3.79,1.69c-0.91,0.99-1.37,2.22-1.37,3.67
					c0,2.1,0.9,3.59,2.7,4.48v6.09c-2.15-0.65-3.92-1.88-5.3-3.71c-1.38-1.83-2.08-4.07-2.08-6.73c0-2.15,0.48-4.08,1.43-5.79
					c0.95-1.71,2.3-3.04,4.05-3.99c1.75-0.96,3.76-1.43,6.05-1.43c2.31,0,4.34,0.47,6.09,1.41c1.75,0.94,3.09,2.26,4.03,3.95
					s1.41,3.64,1.41,5.85c0,2.12-0.46,4.03-1.37,5.71c-0.91,1.68-2.21,2.98-3.89,3.91c-1.68,0.93-3.61,1.39-5.79,1.39
					C53.18,1222.42,52.46,1222.37,51.81,1222.26z M55.6,1216.58c1.45-0.03,2.61-0.55,3.49-1.57c0.87-1.02,1.31-2.27,1.31-3.75
					c0-1.4-0.42-2.57-1.27-3.53c-0.85-0.95-2.02-1.54-3.53-1.75V1216.58z"/>
				<path class="st1" d="M42.96,1230.16c0.66-1.45,1.55-2.6,2.68-3.45c1.13-0.85,2.38-1.31,3.75-1.39v5.69
					c-0.86,0.11-1.57,0.53-2.14,1.27c-0.56,0.74-0.85,1.66-0.85,2.76c0,1.07,0.22,1.91,0.65,2.52c0.43,0.6,0.98,0.91,1.65,0.91
					c0.73,0,1.27-0.37,1.63-1.11c0.36-0.74,0.76-1.92,1.19-3.53c0.4-1.67,0.82-3.03,1.25-4.09c0.43-1.06,1.09-1.98,1.98-2.74
					c0.89-0.77,2.08-1.15,3.59-1.15c1.24,0,2.36,0.36,3.39,1.07c1.02,0.71,1.83,1.73,2.42,3.06c0.59,1.33,0.89,2.9,0.89,4.7
					c0,2.66-0.67,4.78-2,6.37c-1.33,1.59-3.13,2.46-5.38,2.62v-5.4c0.89-0.08,1.59-0.45,2.12-1.11c0.52-0.66,0.79-1.54,0.79-2.64
					c0-1.02-0.19-1.81-0.57-2.36c-0.38-0.55-0.9-0.83-1.57-0.83c-0.75,0-1.32,0.38-1.71,1.13c-0.39,0.75-0.79,1.92-1.19,3.51
					c-0.4,1.61-0.82,2.94-1.25,3.99c-0.43,1.05-1.1,1.96-2,2.72c-0.9,0.77-2.09,1.16-3.57,1.19c-1.29,0-2.45-0.36-3.47-1.07
					c-1.02-0.71-1.82-1.73-2.4-3.06c-0.58-1.33-0.87-2.88-0.87-4.66C41.97,1233.25,42.3,1231.61,42.96,1230.16z"/>
				<path class="st1" d="M60.04,1255.08H49.23c-0.75,0-1.3,0.18-1.63,0.54c-0.34,0.36-0.5,0.97-0.5,1.84v2.62h-4.76v-3.55
					c0-4.76,2.31-7.14,6.94-7.14h10.77v-2.66h4.64v2.66h5.52v5.69h-5.52v5h-4.64V1255.08z"/>
				<path class="st1" d="M59.57,1264.11c1.73,0.94,3.08,2.24,4.03,3.91c0.95,1.67,1.43,3.57,1.43,5.73c0,2.77-0.69,5.06-2.08,6.87
					c-1.38,1.82-3.33,3.03-5.83,3.65v-6.09c0.97-0.32,1.73-0.87,2.28-1.63c0.55-0.77,0.83-1.72,0.83-2.84
					c0-1.61-0.59-2.89-1.75-3.83s-2.83-1.41-4.98-1.41c-2.12,0-3.77,0.47-4.94,1.41c-1.17,0.94-1.75,2.22-1.75,3.83
					c0,2.28,1.02,3.78,3.06,4.48v6.09c-2.42-0.62-4.34-1.84-5.77-3.67c-1.43-1.83-2.14-4.11-2.14-6.85c0-2.15,0.48-4.06,1.43-5.73
					c0.95-1.67,2.3-2.97,4.03-3.91c1.73-0.94,3.76-1.41,6.07-1.41S57.84,1263.17,59.57,1264.11z"/>
				<path class="st1" d="M43.4,1292.54c0.95-1.72,2.3-3.07,4.05-4.05c1.75-0.98,3.76-1.47,6.05-1.47s4.3,0.5,6.05,1.51
					c1.75,1.01,3.1,2.38,4.05,4.13c0.95,1.75,1.43,3.7,1.43,5.85c0,2.15-0.48,4.1-1.43,5.85c-0.95,1.75-2.31,3.13-4.05,4.13
					c-1.75,1.01-3.76,1.51-6.05,1.51s-4.3-0.52-6.05-1.55c-1.75-1.03-3.1-2.43-4.05-4.19c-0.95-1.76-1.43-3.73-1.43-5.91
					C41.97,1296.2,42.45,1294.26,43.4,1292.54z M47.64,1301.23c0.5,0.9,1.24,1.62,2.24,2.16c0.99,0.54,2.2,0.81,3.63,0.81
					c2.12,0,3.76-0.56,4.9-1.67c1.14-1.12,1.71-2.48,1.71-4.09c0-1.61-0.57-2.96-1.71-4.05c-1.14-1.09-2.78-1.63-4.9-1.63
					s-3.76,0.53-4.9,1.59c-1.14,1.06-1.71,2.4-1.71,4.01C46.89,1299.37,47.14,1300.33,47.64,1301.23z"/>
				<path class="st1" d="M62.48,1332.99c-1.68,1.64-4.03,2.46-7.04,2.46H42.33v-5.65h12.34c1.77,0,3.14-0.44,4.09-1.33
					c0.95-0.89,1.43-2.1,1.43-3.63c0-1.56-0.48-2.79-1.43-3.69c-0.95-0.9-2.32-1.35-4.09-1.35H42.33v-5.64h22.34v5.64h-2.78
					c0.97,0.75,1.73,1.72,2.28,2.88c0.55,1.17,0.83,2.45,0.83,3.85C65,1329.2,64.16,1331.35,62.48,1332.99z"/>
				<path class="st1" d="M60.04,1347.38H49.23c-0.75,0-1.3,0.18-1.63,0.54c-0.34,0.36-0.5,0.97-0.5,1.84v2.62h-4.76v-3.55
					c0-4.76,2.31-7.14,6.94-7.14h10.77v-2.66h4.64v2.66h5.52v5.69h-5.52v5h-4.64V1347.38z"/>
				<path class="st1" d="M63.99,1364.94c0.67,1.17,1.01,2.5,1.01,4.01h-5.93v-1.49c0-1.77-0.42-3.11-1.25-4.01
					c-0.83-0.9-2.28-1.35-4.36-1.35H42.33v-5.64h22.34v5.64h-3.47C62.39,1362.82,63.32,1363.77,63.99,1364.94z"/>
				<path class="st1" d="M43.4,1376.86c0.95-1.72,2.3-3.07,4.05-4.05c1.75-0.98,3.76-1.47,6.05-1.47s4.3,0.5,6.05,1.51
					c1.75,1.01,3.1,2.38,4.05,4.13c0.95,1.75,1.43,3.7,1.43,5.85c0,2.15-0.48,4.1-1.43,5.85c-0.95,1.75-2.31,3.13-4.05,4.13
					c-1.75,1.01-3.76,1.51-6.05,1.51s-4.3-0.52-6.05-1.55c-1.75-1.03-3.1-2.43-4.05-4.19c-0.95-1.76-1.43-3.73-1.43-5.91
					C41.97,1380.51,42.45,1378.58,43.4,1376.86z M47.64,1385.55c0.5,0.9,1.24,1.62,2.24,2.16c0.99,0.54,2.2,0.81,3.63,0.81
					c2.12,0,3.76-0.56,4.9-1.67c1.14-1.12,1.71-2.48,1.71-4.09s-0.57-2.96-1.71-4.05c-1.14-1.09-2.78-1.63-4.9-1.63
					s-3.76,0.53-4.9,1.59c-1.14,1.06-1.71,2.4-1.71,4.01C46.89,1383.68,47.14,1384.65,47.64,1385.55z"/>
				<path class="st1" d="M72.17,1404.11H42.33v-5.64h29.84V1404.11z"/>
				<path class="st1" d="M43,1409.66c0.63-0.66,1.42-0.99,2.36-0.99c0.94,0,1.73,0.33,2.36,0.99c0.63,0.66,0.95,1.5,0.95,2.52
					c0,0.99-0.32,1.81-0.95,2.46c-0.63,0.65-1.42,0.97-2.36,0.97c-0.94,0-1.73-0.32-2.36-0.97c-0.63-0.65-0.95-1.47-0.95-2.46
					C42.05,1411.15,42.37,1410.32,43,1409.66z"/>
				<path class="st1" d="M59.59,1420.06c1.75,0.9,3.09,2.12,4.03,3.67s1.41,3.27,1.41,5.18c0,1.66-0.34,3.12-1.01,4.37
					c-0.67,1.25-1.52,2.25-2.54,3.01h3.19v5.69H42.33v-5.69h3.27c-1.05-0.73-1.92-1.73-2.6-3.01c-0.68-1.28-1.03-2.75-1.03-4.41
					c0-1.88,0.48-3.59,1.45-5.14c0.97-1.55,2.33-2.77,4.09-3.67c1.76-0.9,3.78-1.35,6.07-1.35
					C55.84,1418.71,57.84,1419.16,59.59,1420.06z M57.03,1435.49c0.98-0.54,1.73-1.26,2.26-2.18c0.53-0.91,0.79-1.9,0.79-2.94
					c0-1.05-0.26-2.01-0.77-2.9c-0.51-0.89-1.26-1.61-2.24-2.16c-0.98-0.55-2.14-0.83-3.49-0.83c-1.34,0-2.52,0.28-3.53,0.83
					c-1.01,0.55-1.78,1.28-2.32,2.18c-0.54,0.9-0.81,1.86-0.81,2.88c0,1.05,0.26,2.03,0.79,2.94c0.53,0.91,1.28,1.64,2.26,2.18
					c0.98,0.54,2.16,0.81,3.53,0.81C54.88,1436.29,56.05,1436.02,57.03,1435.49z"/>
				<path class="st1" d="M51.81,1468.11v-16.33c-1.61,0.13-2.88,0.7-3.79,1.69c-0.91,0.99-1.37,2.22-1.37,3.67
					c0,2.1,0.9,3.59,2.7,4.48v6.09c-2.15-0.65-3.92-1.88-5.3-3.71c-1.38-1.83-2.08-4.07-2.08-6.73c0-2.15,0.48-4.08,1.43-5.79
					c0.95-1.71,2.3-3.04,4.05-3.99c1.75-0.96,3.76-1.43,6.05-1.43c2.31,0,4.34,0.47,6.09,1.41c1.75,0.94,3.09,2.26,4.03,3.95
					s1.41,3.64,1.41,5.85c0,2.12-0.46,4.03-1.37,5.71c-0.91,1.68-2.21,2.98-3.89,3.91c-1.68,0.93-3.61,1.39-5.79,1.39
					C53.18,1468.27,52.46,1468.22,51.81,1468.11z M55.6,1462.42c1.45-0.03,2.61-0.55,3.49-1.57c0.87-1.02,1.31-2.27,1.31-3.75
					c0-1.4-0.42-2.57-1.27-3.53c-0.85-0.95-2.02-1.54-3.53-1.75V1462.42z"/>
			</g>
			<g>
				<path class="st1" d="M61.77,825.22c0,0.19,0.05,0.27,0.24,0.33c2.28,0.73,4.39,1.8,6.34,3.18c0.89,0.63,1.72,1.35,2.57,2.02
					c0.08,0.06,0.16,0.11,0.24,0.16c0.03-0.02,0.05-0.03,0.08-0.05c-0.44-2.26-1.3-4.35-2.58-6.26c-1.75-2.6-4.02-4.6-6.86-5.99
					c-0.01,0.15-0.02,0.26-0.02,0.37C61.77,821.07,61.77,823.15,61.77,825.22z"/>
				<path class="st1" d="M62.03,828.14c-0.09-0.03-0.18-0.05-0.28-0.08c0,4.05,0,8.06,0,12.11c0.17-0.06,0.33-0.11,0.48-0.17
					c3.24-1.27,6.05-3.2,8.42-5.75c0.13-0.14,0.09-0.21-0.02-0.32c-1.2-1.21-2.44-2.38-3.87-3.33
					C65.28,829.6,63.7,828.78,62.03,828.14z"/>
				<path class="st1" d="M59.27,824.8c0-0.07,0.01-0.13,0.01-0.19c0-2.26,0-4.52,0-6.77c0-0.15-0.06-0.2-0.19-0.24
					c-1.11-0.31-2.22-0.55-3.37-0.58c-1.52-0.04-3.05-0.09-4.56,0.22c-0.56,0.11-1.12,0.27-1.67,0.4c0,2.4,0,4.77,0,7.16
					C52.75,824.18,56,824.17,59.27,824.8z"/>
				<path class="st1" d="M66.39,840.71c-1.4,0.8-2.87,1.46-4.41,1.95c-0.16,0.05-0.22,0.13-0.21,0.29c0.01,0.25,0,0.49,0,0.74
					c0,1.82,0,3.65,0,5.47c0,0.13,0.02,0.26,0.02,0.42c2.7-1.32,4.89-3.18,6.6-5.6c1.42-2.02,2.36-4.26,2.85-6.68
					c-0.02-0.02-0.04-0.03-0.06-0.05c-0.14,0.11-0.28,0.21-0.42,0.33C69.41,838.78,67.96,839.83,66.39,840.71z"/>
				<path class="st1" d="M59.28,840.72c0-4.42,0-8.83,0-13.25c0-0.13-0.03-0.18-0.17-0.21c-0.98-0.22-1.97-0.37-2.98-0.44
					c-2.17-0.16-4.32-0.04-6.45,0.44c-0.16,0.04-0.21,0.09-0.21,0.26c0.01,2.2,0,4.4,0,6.59c0,2.2,0,4.4,0,6.59
					c0,0.12-0.01,0.22,0.15,0.24c0.94,0.14,1.88,0.33,2.82,0.42c2.24,0.22,4.45,0.06,6.65-0.42
					C59.24,840.92,59.28,840.86,59.28,840.72z"/>
				<path class="st1" d="M47.02,828.03c-1.75,0.64-3.36,1.49-4.9,2.49c-1.55,1.01-2.88,2.27-4.15,3.57
					c2.51,2.78,5.53,4.77,9.04,6.09C47.02,836.11,47.02,832.1,47.02,828.03z"/>
				<path class="st1" d="M59.28,850.33c-0.01-2.23,0-4.46,0-6.69c0-0.07,0-0.14,0-0.22c-3.28,0.61-6.53,0.61-9.79,0
					c0,0.05-0.01,0.08-0.01,0.11c0,2.29,0,4.58,0,6.87c0,0.14,0.06,0.16,0.17,0.19c0.97,0.28,1.95,0.47,2.96,0.57
					c2.19,0.21,4.35,0.05,6.47-0.55C59.23,850.57,59.28,850.5,59.28,850.33z"/>
				<path class="st1" d="M38.54,830.16c2.45-2.05,5.17-3.62,8.21-4.61c0.12-0.04,0.24-0.05,0.24-0.25c0-1.63,0.01-3.26,0.01-4.89
					c0-0.58,0-1.16,0-1.74c-0.02-0.01-0.05-0.02-0.07-0.03c-2.69,1.31-4.88,3.21-6.61,5.66c-1.42,2-2.32,4.22-2.81,6.68
					c0.12-0.08,0.19-0.12,0.26-0.17C38.04,830.59,38.29,830.38,38.54,830.16z"/>
				<path class="st1" d="M81.12,806.56h-54.5v54.5h54.5V806.56z M53.51,853.73c-0.07-0.03-0.14-0.07-0.21-0.07
					c-1.45-0.08-2.87-0.31-4.26-0.72c-4.72-1.38-8.44-4.14-11.12-8.25c-1.92-2.95-2.95-6.2-3.08-9.73
					c-0.01-0.19-0.02-0.38-0.03-0.58c0-0.19,0-0.37,0-0.56c0.01-0.1,0.02-0.2,0.03-0.3c0.06-0.75,0.07-1.5,0.18-2.25
					c0.27-1.87,0.81-3.67,1.6-5.39c1.54-3.35,3.87-6.03,6.93-8.08c2.66-1.78,5.6-2.84,8.79-3.18c0.4-0.04,0.79-0.08,1.19-0.11
					c0.59,0,1.17,0,1.76,0c0.06,0.01,0.13,0.03,0.19,0.03c0.83,0.1,1.67,0.15,2.5,0.3c4.22,0.8,7.8,2.78,10.75,5.91
					c3.18,3.38,4.84,7.43,5.21,12.01c0.14,1.79,0.01,3.59-0.37,5.36c-1.01,4.59-3.34,8.38-7.01,11.31
					c-3.24,2.58-6.95,3.97-11.09,4.21c-0.07,0-0.14,0.05-0.21,0.07C54.66,853.73,54.08,853.73,53.51,853.73z"/>
				<path class="st1" d="M47,842.99c0-0.19-0.06-0.28-0.25-0.34c-1.96-0.62-3.79-1.52-5.51-2.62c-1.1-0.7-2.14-1.49-3.12-2.35
					c-0.17-0.15-0.36-0.29-0.54-0.43c-0.01,0.01-0.03,0.03-0.04,0.04c0.5,2.53,1.48,4.85,3.02,6.93c1.7,2.3,3.82,4.09,6.44,5.37
					c0-0.13,0-0.21,0-0.29C47,847.2,46.99,845.09,47,842.99z"/>
			</g>
		</g>
	</g>
</g>
</svg>
